<svg width="19" height="19" viewBox="0 0 19 19" fill="none" xmlns="http://www.w3.org/2000/svg">
<rect width="19" height="19" rx="3" fill="#B4FFFA" fill-opacity="0.9"/>
<path d="M5 11L9.25829 7.08807C9.28845 7.0604 9.32562 7.03823 9.36731 7.02304C9.40899 7.00786 9.45423 7 9.5 7C9.54577 7 9.59101 7.00786 9.63269 7.02304C9.67438 7.03823 9.71155 7.0604 9.74171 7.08807L14 11" fill="#B4FFFA" fill-opacity="0.9"/>
<path d="M5 11L9.25829 7.08807C9.28845 7.0604 9.32562 7.03823 9.36731 7.02304C9.40899 7.00786 9.45423 7 9.5 7C9.54577 7 9.59101 7.00786 9.63269 7.02304C9.67438 7.03823 9.71155 7.0604 9.74171 7.08807L14 11" stroke="#191919" stroke-linecap="round" stroke-linejoin="round"/>
</svg>
