<svg width="12" height="13" viewBox="0 0 12 13" fill="none" xmlns="http://www.w3.org/2000/svg">
<path d="M4.8 0.5H7.2C8.47304 0.5 9.69394 1.01868 10.5941 1.94194C11.4943 2.86519 12 4.1174 12 5.42308C12 6.72876 11.4943 7.98096 10.5941 8.90422C9.81235 9.70602 8.7887 10.2027 7.69908 10.3195C7.42451 10.3489 7.2 10.57 7.2 10.8462V11.7544C7.2 12.11 6.8397 12.3527 6.51214 12.2142C3.59783 10.9824 0 9.12524 0 5.42308C0 4.1174 0.505713 2.86519 1.40589 1.94194C2.30606 1.01868 3.52696 0.5 4.8 0.5Z" fill="#DBFF00" fillOpacity="0.7"/>
</svg>
