<svg width="21" height="18" viewBox="0 0 21 18" fill="none" xmlns="http://www.w3.org/2000/svg">
<path d="M12.2292 4.92042V2.96021C12.2292 2.44033 12.0141 1.94174 11.6312 1.57413C11.2483 1.20652 10.729 1 10.1875 1H3.04167C2.50019 1 1.98088 1.20652 1.59799 1.57413C1.2151 1.94174 1 2.44033 1 2.96021V14.7215C1 15.2414 1.2151 15.7399 1.59799 16.1076C1.98088 16.4752 2.50019 16.6817 3.04167 16.6817H10.1875C10.729 16.6817 11.2483 16.4752 11.6312 16.1076C12.0141 15.7399 12.2292 15.2414 12.2292 14.7215V12.7613" stroke="#13B3BC" stroke-width="1.5" stroke-linecap="round" stroke-linejoin="round"/>
<path d="M7.125 8.84071H19.375M19.375 8.84071L16.3125 5.90039M19.375 8.84071L16.3125 11.781" stroke="#13B3BC" stroke-width="1.5" stroke-linecap="round" stroke-linejoin="round"/>
</svg>
