<svg width="66" height="66" viewBox="0 0 66 66" fill="none" xmlns="http://www.w3.org/2000/svg">
<path d="M0 5C0 2.23858 2.23858 0 5 0H60.9707C63.7321 0 65.9707 2.23858 65.9707 5V60.9707C65.9707 63.7321 63.7321 65.9707 60.9707 65.9707H5C2.23858 65.9707 0 63.7321 0 60.9707V5Z" fill="#DBFF00" fill-opacity="0.1"/>
<path d="M32.9927 18V37.5103" stroke="#DBFF00" stroke-width="6" stroke-linecap="round" stroke-linejoin="round"/>
<path d="M36.9862 48.0068C36.9862 48.5312 36.8829 49.0504 36.6823 49.5349C36.4816 50.0194 36.1875 50.4596 35.8167 50.8303C35.4459 51.2011 35.0057 51.4953 34.5212 51.6959C34.0367 51.8966 33.5175 51.9999 32.9931 51.9999C32.4687 51.9999 31.9495 51.8966 31.465 51.6959C30.9805 51.4953 30.5404 51.2011 30.1696 50.8303C29.7988 50.4596 29.5046 50.0194 29.304 49.5349C29.1033 49.0504 29 48.5312 29 48.0068C29 46.9477 29.4207 45.9321 30.1696 45.1832C30.9184 44.4344 31.9341 44.0137 32.9931 44.0137C34.0522 44.0137 35.0678 44.4344 35.8167 45.1832C36.5655 45.9321 36.9862 46.9477 36.9862 48.0068Z" fill="#DBFF00"/>
</svg>
