<svg width="24" height="24" viewBox="0 0 24 24" fill="none" xmlns="http://www.w3.org/2000/svg">
<path d="M13.7631 6.67195L15.0201 5.41395C15.2058 5.22815 15.4263 5.08076 15.669 4.9802C15.9117 4.87964 16.1719 4.82788 16.4346 4.82788C16.6973 4.82788 16.9574 4.87964 17.2001 4.9802C17.4428 5.08076 17.6633 5.22815 17.8491 5.41395C18.0349 5.59968 18.1823 5.8202 18.2828 6.0629C18.3834 6.3056 18.4351 6.56574 18.4351 6.82845C18.4351 7.09117 18.3834 7.3513 18.2828 7.59401C18.1823 7.83671 18.0349 8.05723 17.8491 8.24295L16.5901 9.49995M13.7631 6.67195L4.58006 15.854L4.41406 18.849L7.40906 18.683L16.5901 9.49995M13.7631 6.67195L16.5901 9.49995M17.8491 8.24195L19.9701 10.364L15.0201 15.314" stroke="#DBFF00" stroke-width="1.5" stroke-linecap="round" stroke-linejoin="round"/>
</svg>
