<svg width="24" height="20" viewBox="0 0 24 20" fill="none" xmlns="http://www.w3.org/2000/svg">
<path d="M4.28261 10.8498L5.98927 18.1135C6.02643 18.2716 6.16753 18.3834 6.32999 18.3834H8.59309C8.75555 18.3834 8.89665 18.2716 8.93381 18.1135L10.6405 10.8498C10.667 10.7368 10.7678 10.657 10.8838 10.657H13.2709C13.3866 10.657 13.4872 10.7364 13.5141 10.8489L15.2502 18.1148C15.2878 18.2723 15.4286 18.3834 15.5906 18.3834H17.8807C18.0457 18.3834 18.1882 18.2683 18.2229 18.107L19.7825 10.8544C19.8073 10.7392 19.9091 10.657 20.027 10.657H21.7C21.8933 10.657 22.05 10.5003 22.05 10.307V9.41306C22.05 9.21976 21.8933 9.06306 21.7 9.06306H20.4959C20.3363 9.06306 20.2175 8.9155 20.2517 8.75958L21.7229 2.04162C21.7707 1.82333 21.6045 1.61675 21.381 1.61675H19.5684C19.4019 1.61675 19.2584 1.73408 19.2254 1.89729L17.8151 8.86267C17.7915 8.97925 17.689 9.06306 17.57 9.06306H15.527C15.4121 9.06306 15.312 8.98474 15.2844 8.87322L13.5512 1.88252C13.5125 1.72639 13.3723 1.61675 13.2114 1.61675H10.852C10.6901 1.61675 10.5493 1.72776 10.5116 1.88518L8.83729 8.87133C8.81034 8.98377 8.7098 9.06306 8.59417 9.06306H6.52029C6.40209 9.06306 6.30004 8.98027 6.27566 8.86461L4.8068 1.89457C4.77268 1.73265 4.62981 1.61675 4.46432 1.61675H2.62198C2.39738 1.61675 2.23091 1.8253 2.28069 2.04431L3.80641 8.75766C3.84197 8.9141 3.72306 9.06306 3.56263 9.06306H2.3C2.1067 9.06306 1.95 9.21976 1.95 9.41306V10.307C1.95 10.5003 2.1067 10.657 2.3 10.657H4.03924C4.15528 10.657 4.25607 10.7368 4.28261 10.8498ZM8.34512 10.9535L7.74226 14.1406C7.69033 14.4152 7.2956 14.4106 7.24997 14.135L6.72247 10.9478C6.69727 10.7955 6.81475 10.657 6.96912 10.657H8.09947C8.25617 10.657 8.37424 10.7995 8.34512 10.9535ZM17.4325 10.9471L16.8995 14.2255C16.8546 14.5014 16.4598 14.5069 16.4072 14.2324L15.779 10.954C15.7494 10.7999 15.8675 10.657 16.0245 10.657H17.1857C17.3398 10.657 17.4572 10.795 17.4325 10.9471ZM12.7686 9.06306H11.3503C11.1926 9.06306 11.0743 8.91887 11.1051 8.76422L11.794 5.30567C11.8471 5.03899 12.2277 5.03685 12.2838 5.30292L13.0132 8.76147C13.046 8.91688 12.9274 9.06306 12.7686 9.06306Z" fill="#DBFF00" stroke="#DBFF00" stroke-width="0.1" stroke-linejoin="round"/>
</svg>
