<svg width="57" height="57" viewBox="0 0 57 57" fill="none" xmlns="http://www.w3.org/2000/svg">
<rect width="57" height="57" rx="5" fill="#DBFF00" fill-opacity="0.15"/>
<path d="M17.9131 22.4414L27.7051 12.985C27.7745 12.9181 27.8599 12.8645 27.9558 12.8278C28.0516 12.7911 28.1557 12.7721 28.2609 12.7721C28.3662 12.7721 28.4702 12.7911 28.566 12.8278C28.6619 12.8645 28.7474 12.9181 28.8167 12.985L38.6087 22.4414" stroke="#DBFF00" stroke-width="2" stroke-linecap="round" stroke-linejoin="round"/>
<path d="M18.3768 35.5059V40.3223H14.2753V35.5059H18.3768ZM15.3182 39.4551H17.3456V36.373H15.3182V39.4551ZM15.8221 44.7402V41.3066H16.9237V43.8379H23.0878V44.7402H15.8221ZM19.4667 41.9277V34.6621H20.4979V37.5215H21.7284V34.4746H22.7831V42.2793H21.7284V38.4473H20.4979V41.9277H19.4667ZM27.6464 34.9434C29.2284 34.9375 30.371 35.8223 30.3768 37.123C30.371 38.4121 29.2284 39.3027 27.6464 39.291C26.0702 39.3027 24.9335 38.4121 24.9393 37.123C24.9335 35.8223 26.0702 34.9375 27.6464 34.9434ZM24.1893 40.1113C26.1288 40.1113 28.8065 40.0703 31.1034 39.7246L31.1854 40.5566C30.2245 40.7383 29.2342 40.8496 28.2675 40.9141V44.6348H27.1542V40.9785C26.1346 41.0254 25.1737 41.0312 24.3417 41.0371L24.1893 40.1113ZM26.0175 37.123C26.0057 37.8848 26.6913 38.3887 27.6464 38.377C28.6249 38.3887 29.3104 37.8848 29.3104 37.123C29.3104 36.3555 28.6249 35.8398 27.6464 35.8457C26.6913 35.8398 26.0057 36.3555 26.0175 37.123ZM31.83 44.9629V34.4746H32.9315V44.9629H31.83ZM44.1815 42.7715V43.709H34.5721V42.7715H38.8026V40.9316H35.744V37.5918H41.9081V36.1152H35.7206V35.2012H43.0096V38.4824H36.8456V40.0176H43.2557V40.9316H39.9042V42.7715H44.1815Z" fill="#F8F8F8"/>
</svg>
