<svg width="21" height="21" viewBox="0 0 21 21" fill="none" xmlns="http://www.w3.org/2000/svg">
<path d="M10.6549 3.10352H3.06892C2.52021 3.10352 1.99397 3.32149 1.60597 3.70949C1.21797 4.09748 1 4.62372 1 5.17243V17.5859C1 18.1346 1.21797 18.6609 1.60597 19.0489C1.99397 19.4369 2.52021 19.6548 3.06892 19.6548H15.4824C16.0311 19.6548 16.5574 19.4369 16.9454 19.0489C17.3334 18.6609 17.5513 18.1346 17.5513 17.5859V11.3792" stroke="#DBFF00" stroke-width="1.5" stroke-linecap="round"/>
<path fill-rule="evenodd" clip-rule="evenodd" d="M20.5699 2.72446C20.7012 2.59966 20.8066 2.45022 20.8802 2.28467C20.9538 2.11912 20.994 1.9407 20.9986 1.7596C21.0032 1.5785 20.9721 1.39826 20.9071 1.22918C20.842 1.0601 20.7443 0.905483 20.6195 0.774164C20.4947 0.642845 20.3453 0.537393 20.1797 0.463829C20.0142 0.390264 19.8358 0.350028 19.6547 0.345418C19.4736 0.340807 19.2933 0.371911 19.1242 0.436956C18.9552 0.502001 18.8006 0.599712 18.6692 0.724511L18.4017 0.978298C18.1443 1.23196 17.9967 1.57652 17.9907 1.93785C17.9847 2.29919 18.1208 2.64844 18.3697 2.91049C18.6185 3.17253 18.9603 3.32645 19.3214 3.33912C19.6826 3.35179 20.0343 3.22221 20.3009 2.97825L20.5699 2.72446ZM17.3258 3.85547C17.4558 3.98559 17.5584 4.1404 17.6277 4.31078C17.697 4.48116 17.7315 4.66367 17.7291 4.84757C17.7268 5.03148 17.6878 5.21306 17.6142 5.38165C17.5407 5.55023 17.4342 5.7024 17.301 5.82922L6.7771 15.8276C6.51189 16.0796 6.15742 16.216 5.79167 16.2067C5.42592 16.1974 5.07885 16.0432 4.82681 15.7779C4.57476 15.5127 4.4384 15.1583 4.44771 14.7925C4.45702 14.4268 4.61125 14.0797 4.87646 13.8276L15.4003 3.82926C15.6611 3.58149 16.0084 3.44541 16.3681 3.45005C16.7278 3.45469 17.0715 3.60106 17.3258 3.85547Z" fill="#DBFF00"/>
</svg>
