<svg width="764" height="283" viewBox="0 0 764 283" fill="none" xmlns="http://www.w3.org/2000/svg">
<mask id="mask0_87_13583" style="mask-type:luminance" maskUnits="userSpaceOnUse" x="0" y="26" width="320" height="66">
<path d="M320 26.666H0V91.9994H320V26.666Z" fill="white"/>
</mask>
<g mask="url(#mask0_87_13583)">
<mask id="mask1_87_13583" style="mask-type:luminance" maskUnits="userSpaceOnUse" x="0" y="27" width="320" height="65">
<path d="M0.320312 27.6816H319.362V91.041H0.320312V27.6816Z" fill="white"/>
</mask>
<g mask="url(#mask1_87_13583)">
<path d="M32.3594 59.332H287.359" stroke="#B2E2E4" stroke-width="63"/>
</g>
</g>
<mask id="mask2_87_13583" style="mask-type:luminance" maskUnits="userSpaceOnUse" x="324" y="240" width="371" height="39">
<path d="M694.667 240H324V278.667H694.667V240Z" fill="white"/>
</mask>
<g mask="url(#mask2_87_13583)">
<mask id="mask3_87_13583" style="mask-type:luminance" maskUnits="userSpaceOnUse" x="324" y="241" width="370" height="38">
<path d="M324.477 241.119H693.758V278.239H324.477V241.119Z" fill="white"/>
</mask>
<g mask="url(#mask3_87_13583)">
<path d="M342.641 259.9L674.911 259.447" stroke="#FAECCB" stroke-width="36"/>
</g>
</g>
<mask id="mask4_87_13583" style="mask-type:luminance" maskUnits="userSpaceOnUse" x="252" y="178" width="326" height="45">
<path d="M577.333 178.666H252V222.666H577.333V178.666Z" fill="white"/>
</mask>
<g mask="url(#mask4_87_13583)">
<mask id="mask5_87_13583" style="mask-type:luminance" maskUnits="userSpaceOnUse" x="252" y="178" width="326" height="44">
<path d="M252.164 178.719H577.284V221.922H252.164V178.719Z" fill="white"/>
</mask>
<g mask="url(#mask5_87_13583)">
<path d="M270.734 197.234L558.635 203.286" stroke="#FAECCB" stroke-width="36"/>
</g>
</g>
<path d="M107.434 207.763C106.981 208.487 106.845 210.028 106.798 211.617C106.751 213.2 106.845 214.924 106.892 216.013C106.71 216.601 107.434 217.778 108.746 217.419C110.106 217.372 113.053 217.101 116.001 216.872C118.856 216.554 121.668 216.283 122.981 215.919C124.704 215.377 125.382 215.06 125.382 213.971C125.382 213.429 125.382 211.617 125.204 209.846C125.022 208.08 124.704 206.445 124.298 206.086C123.569 205.903 120.309 206.039 116.725 206.403C114.866 206.539 113.1 206.763 111.329 206.992C109.611 207.216 108.251 207.492 107.434 207.763ZM124.022 181.56C123.663 181.018 122.798 180.924 121.892 181.106C121.079 181.336 120.35 181.83 120.533 182.695C120.715 183.783 121.033 187.091 121.397 190.716C121.715 194.388 121.939 198.377 122.074 200.601C121.939 201.461 122.663 201.731 123.434 201.731C124.251 201.731 125.158 201.461 125.382 200.778C125.522 200.013 125.564 198.966 125.564 197.742C125.564 196.612 125.475 195.252 125.475 193.846L129.647 193.075C130.189 192.846 130.189 192.033 130.007 191.304C129.871 190.539 129.371 189.992 128.965 189.992L125.204 190.674C125.022 189.45 124.84 187.362 124.616 185.549C124.475 183.69 124.204 182.06 124.022 181.56ZM105.486 200.601C106.392 200.643 107.751 200.778 109.382 200.778C111.106 200.778 112.965 200.554 114.866 199.966C115.231 199.783 115.319 198.924 115.184 198.153C115.001 197.382 114.684 196.653 114.142 196.7C113.371 196.929 111.376 197.247 109.699 197.289C107.934 197.424 106.345 197.247 106.163 196.518C105.621 195.429 105.392 192.987 105.35 190.627C105.21 188.226 105.303 185.82 105.486 184.737C105.486 184.372 104.621 184.237 103.762 184.372C102.809 184.419 101.902 184.737 101.72 185.096C101.543 185.685 101.496 188.497 101.678 191.445C101.856 194.388 102.132 197.565 102.673 198.83C103.079 200.054 104.033 200.419 105.486 200.601ZM110.152 213.612V212.612C110.152 211.658 110.246 210.57 110.47 210.164C110.741 210.117 111.423 209.981 112.553 209.846C113.736 209.664 114.913 209.487 116.184 209.346C118.632 209.033 120.986 208.851 121.121 209.169C121.533 209.487 121.715 210.299 121.757 211.164C121.757 212.023 121.668 212.794 121.35 212.976C121.303 213.158 118.632 213.7 115.954 214.065C114.595 214.242 113.371 214.377 112.194 214.471C111.017 214.606 110.335 214.56 110.199 214.424L110.152 213.612Z" fill="black"/>
<path d="M136.034 189.903C136.263 195.57 141.294 196.065 146.143 195.706C149.138 195.57 151.539 195.159 153.169 194.07C154.846 193.122 155.711 191.398 155.664 188.633C155.482 185.956 154.169 184.419 152.175 183.554C150.133 182.648 147.503 182.513 144.878 182.695C142.201 182.877 139.888 183.237 138.393 184.325C136.852 185.414 135.899 187.138 136.034 189.903ZM158.341 199.377C157.253 199.695 155.529 199.966 153.305 200.237L146.102 200.919C143.607 201.143 141.206 201.278 138.893 201.414C136.581 201.508 134.857 201.549 133.68 201.549C132.909 201.596 132.727 202.414 132.909 203.273C133.044 204.138 133.586 204.903 134.357 204.862C135.539 204.862 137.487 204.815 139.706 204.633C141.93 204.497 144.466 204.315 146.961 204.091C149.456 203.862 151.904 203.591 153.94 203.367C155.982 203.138 157.612 202.867 158.518 202.638C159.065 202.461 159.248 201.596 159.201 200.825C159.107 200.054 158.748 199.377 158.341 199.377ZM156.388 212.388C155.8 212.523 154.711 212.612 153.128 212.747L148.232 213.2C146.596 213.336 145.102 213.429 143.742 213.471C142.43 213.565 141.794 213.565 141.748 213.518C141.341 213.159 141.07 212.206 141.024 211.252C140.977 210.846 140.93 210.435 140.93 210.028V209.169C140.93 208.851 140.024 208.758 139.076 208.94C138.169 209.075 137.216 209.487 137.169 210.075C137.123 210.935 137.216 212.429 137.399 213.836C137.623 215.242 137.893 216.554 138.44 216.784C138.623 216.919 139.8 216.872 141.341 216.825C142.925 216.784 145.055 216.69 147.096 216.513L150.227 216.331C151.268 216.284 152.221 216.195 153.034 216.101C154.758 215.919 156.117 215.695 156.664 215.466C157.07 215.289 157.159 214.471 157.117 213.7C156.977 212.976 156.706 212.341 156.388 212.388ZM146.373 192.622C144.602 192.758 142.971 192.758 141.794 192.351C140.617 191.987 139.8 191.216 139.8 189.721C139.753 188.179 140.117 187.179 140.888 186.773C141.701 186.367 143.065 186.049 144.966 185.914C149.362 185.549 151.904 185.778 152.039 188.633C152.128 191.581 150.268 192.393 146.373 192.622Z" fill="black"/>
<path d="M199.546 206.175L199.317 197.519C199.181 194.3 199.093 191.082 199.046 188.404C198.999 185.821 198.864 183.785 198.864 183.056C198.864 182.332 197.911 182.061 196.957 182.061C196.098 182.014 195.103 182.243 195.103 182.602L195.374 194.483L190.843 195.477L190.749 183.42C190.749 183.056 189.796 182.92 188.89 183.102C187.983 183.285 186.989 183.738 186.989 184.462C186.942 184.738 186.895 185.326 186.895 186.186V189.358C186.942 191.852 187.077 195.024 187.213 198.243C187.395 201.462 187.577 204.634 187.848 207.311C188.03 209.894 188.254 211.936 188.572 212.66C188.572 213.16 189.478 213.384 190.431 213.337C191.338 213.337 192.244 213.019 192.244 212.477L191.02 198.472L195.556 197.519L196.051 210.712C196.051 211.024 196.822 211.207 197.728 211.165C198.64 211.118 199.499 210.936 199.546 210.436V206.175ZM175.108 191.488V202.462L170.53 206.269C170.306 206.811 170.806 207.399 171.577 207.899C172.348 208.399 173.119 208.717 173.343 208.399L177.421 205.54L183.223 208.035C183.858 208.67 185.629 205.769 185.041 204.769L179.056 202.097C178.874 201.191 178.874 199.149 178.827 196.972C178.827 195.889 178.78 194.8 178.739 193.753V191.128C180.187 190.946 181.546 190.811 182.952 190.493C184.312 190.264 184.312 190.04 184.27 188.634C184.27 187.592 183.088 187.003 182.681 187.045C180.233 187.457 178.239 187.774 176.473 187.951C174.614 188.134 173.207 188.227 172.072 188.269C170.806 188.269 170.53 189.269 170.53 189.811V190.493C170.53 190.675 170.577 190.852 170.624 191.035C170.671 191.352 170.942 191.582 171.53 191.764L175.108 191.488Z" fill="black"/>
<path d="M206.023 201.326C206.023 203.186 206.976 203.863 209.106 203.686C209.965 203.686 213.137 203.503 216.491 203.186C219.846 202.868 223.294 202.503 224.653 202.003C225.195 201.826 225.424 201.055 225.424 200.285C225.424 199.514 225.106 198.831 224.564 198.831C222.705 199.014 219.257 199.514 216.132 199.873C212.96 200.238 210.236 200.508 209.783 200.149L210.054 197.519C210.419 197.337 211.325 197.113 212.866 196.883L217.809 196.024C219.528 195.795 221.21 195.477 222.658 195.16C224.153 194.8 225.059 194.436 225.288 194.029C225.83 193.618 226.195 191.035 226.377 188.633C226.512 186.232 226.377 183.826 225.83 183.602C225.241 183.42 223.971 183.373 222.294 183.373C220.616 183.373 218.533 183.42 216.45 183.555C214.361 183.691 212.278 183.826 210.601 184.008C208.924 184.191 207.653 184.326 207.247 184.462C206.7 184.779 206.429 185.55 206.476 186.274C206.476 187.003 206.84 187.639 207.247 187.592C207.429 187.592 208.424 187.545 209.877 187.41L215.09 187.003C216.903 186.868 218.804 186.727 220.163 186.727C221.663 186.727 222.611 186.774 222.794 186.956C222.929 187.139 222.929 188.227 222.794 189.357C222.611 190.399 222.34 191.581 221.752 191.764C221.434 191.988 220.528 192.258 218.986 192.529C217.445 192.758 215.768 193.029 214.044 193.347C212.278 193.618 210.648 193.936 209.106 194.3C207.518 194.618 206.611 194.977 206.294 195.389C205.616 196.972 205.705 199.555 206.023 201.326ZM221.934 209.8C221.887 209.212 221.887 208.67 221.887 208.264V207.04C221.887 206.357 221.934 205.816 221.934 205.045C221.57 203.727 218.304 203.998 218.486 204.863L217.991 210.347L213.549 210.618L212.596 206.722C212.502 205.857 211.689 205.722 210.783 205.904C209.877 206.04 209.106 206.493 209.106 206.722L209.783 210.712L203.71 211.118C202.939 211.165 202.622 211.977 202.669 212.842C202.715 213.701 203.075 214.472 203.799 214.425C206.564 214.243 211.46 214.019 216.314 213.654C221.07 213.295 225.965 212.93 228.778 212.206C229.366 212.16 229.596 211.253 229.549 210.347C229.549 209.441 229.278 208.67 228.689 208.852L221.934 209.8Z" fill="black"/>
<path d="M236.932 194.299C237.567 195.794 238.156 196.34 240.197 196.158C241.104 196.158 244.234 195.976 247.494 195.611C250.713 195.294 254.114 194.887 255.474 194.387C256.062 194.252 256.38 193.575 256.38 192.846C256.291 192.122 255.974 191.486 255.385 191.486C253.661 191.804 250.171 192.169 247.135 192.528C243.958 192.846 241.286 193.028 240.875 192.804C240.515 192.669 240.244 192.169 240.197 191.622C240.062 191.033 240.244 190.445 240.786 190.127C241.151 189.945 242.057 189.768 243.552 189.627L248.359 189.085L253.161 188.544C254.656 188.361 255.609 188.132 255.927 187.861C256.468 187.455 256.609 185.502 256.562 183.648C256.427 181.83 256.015 180.018 255.291 179.7C254.703 179.564 253.39 179.564 251.713 179.564C249.942 179.611 247.859 179.747 245.817 179.929L240.109 180.429C238.432 180.564 237.25 180.7 237.026 180.747C236.437 181.064 236.208 181.877 236.255 182.648C236.437 183.419 236.708 184.101 237.385 184.054C238.52 183.872 241.875 183.419 245.14 183.054C246.77 182.919 248.265 182.783 249.583 182.742C250.942 182.695 251.755 182.742 251.984 182.877C252.343 183.054 252.708 183.648 252.755 184.236C252.937 184.736 252.843 185.367 252.255 185.549C251.89 185.778 250.942 186.002 249.442 186.137C247.906 186.273 246.317 186.455 244.593 186.59C242.869 186.773 241.286 186.955 239.744 187.179C238.291 187.408 237.385 187.637 237.114 187.95C236.708 188.632 236.526 189.674 236.526 190.898C236.526 192.122 236.614 193.346 236.932 194.299ZM238.885 217.596C239.474 218.867 240.244 219.137 241.375 219.002C242.145 219.002 245.229 218.731 248.312 218.507C251.349 218.278 254.52 217.96 255.474 217.778C256.015 217.46 256.244 216.689 256.244 215.965C256.197 215.242 255.974 214.653 255.474 214.653L242.828 216.283C242.328 215.965 241.921 215.601 241.692 215.106C241.468 214.606 241.645 214.288 242.328 214.153C242.463 214.106 243.187 213.971 244.593 213.835C245.953 213.7 247.406 213.518 249.036 213.294C250.666 213.064 252.119 212.84 253.479 212.564C254.838 212.34 255.656 212.023 255.838 211.658C256.244 210.752 256.244 209.304 256.015 208.033C255.697 206.627 255.291 205.538 254.885 205.179C254.791 205.132 254.52 205.132 254.114 205.132H252.484C251.166 205.179 249.442 205.268 247.724 205.403C245.911 205.585 244.052 205.674 242.692 205.856L239.697 206.174C238.974 206.174 238.703 206.945 238.703 207.715C238.703 208.486 239.02 209.21 239.427 209.169L252.072 207.945L252.166 208.215L252.302 208.851C252.343 209.257 252.484 209.846 252.166 210.075C252.119 210.21 251.349 210.252 250.036 210.393C248.765 210.57 247.177 210.663 245.458 210.887C243.781 211.07 241.963 211.299 240.604 211.523C239.291 211.752 238.203 212.07 237.885 212.294C237.25 212.7 237.343 213.7 237.703 214.788C238.067 215.877 238.52 217.007 238.885 217.596ZM258.286 196.971C256.015 197.564 251.26 198.195 246.541 198.742C244.187 199.012 241.921 199.242 239.697 199.419C237.567 199.601 235.89 199.736 234.713 199.783C233.989 199.83 233.578 200.643 233.713 201.413C233.76 202.184 234.26 202.955 234.984 202.913C236.161 202.913 237.932 202.82 240.197 202.637C242.463 202.413 244.822 202.184 247.224 201.913C249.625 201.596 251.89 201.325 254.02 201.007C256.109 200.689 257.604 200.419 258.463 200.148C259.057 200.012 259.369 199.148 259.369 198.377C259.369 197.518 259.057 196.835 258.286 196.971Z" fill="black"/>
<path d="M294.366 197.518C294.366 199.102 294.502 202.367 294.637 205.45C294.773 208.534 294.913 211.341 295.09 211.753C295.137 211.977 296.044 212.07 296.997 211.888C297.814 211.706 298.674 211.341 298.674 210.617C298.491 209.846 298.309 207.81 298.267 205.133C298.132 202.549 298.038 199.331 297.991 196.065C297.95 192.94 297.903 189.721 297.903 187.18C297.903 184.643 297.903 182.784 298.038 182.107C298.085 181.607 297.221 181.518 296.273 181.56C295.273 181.695 294.32 182.06 294.278 182.602C294.184 182.831 294.142 183.466 294.142 184.508V187.815C294.184 190.31 294.32 192.893 294.366 194.029C293.372 194.346 292.236 194.664 290.965 194.935C290.195 195.117 289.564 195.206 289.017 195.206C288.929 194.482 288.794 193.753 288.658 193.075C288.294 191.763 287.84 190.581 287.205 189.539C285.799 187.544 283.715 186.232 280.544 186.414C273.835 186.909 272.247 193.075 272.611 198.289C272.653 201.143 273.241 203.773 274.559 205.586C275.872 207.445 277.96 208.534 281.314 208.305C284.257 208.122 286.252 206.628 287.57 204.497C288.158 203.456 288.658 202.32 288.882 201.055C289.017 200.19 289.111 199.378 289.153 198.56C289.653 198.513 290.106 198.424 290.606 198.336C291.377 198.195 292.601 197.924 294.366 197.518ZM276.189 198.289C276.054 196.341 276.236 194.346 276.96 192.846C277.642 191.352 278.773 190.221 280.632 190.039C282.309 189.992 283.533 190.716 284.304 192.034C285.122 193.346 285.439 195.294 285.481 197.336C285.663 201.732 284.304 204.273 281.314 204.497C279.455 204.727 278.137 204.227 277.366 203.003C276.642 201.779 276.236 200.19 276.189 198.289Z" fill="black"/>
<path d="M310.275 185.55C310.228 187.498 310.275 188.904 310.457 190.222C310.634 191.67 310.952 192.988 311.27 194.665C310.546 194.842 309.546 195.159 308.64 195.342C307.692 195.571 306.785 195.706 306.421 195.389C306.056 195.206 305.697 193.123 305.515 191.128C305.285 189.087 305.197 186.956 305.561 186.592C306.332 186.05 308.233 185.368 310.275 185.55ZM311.905 197.743C312.358 198.472 312.811 198.607 313.765 198.472C315.035 198.607 317.525 198.107 319.202 197.425C319.791 197.248 320.108 196.43 320.108 195.571C320.108 194.8 319.837 194.071 319.296 194.118C318.478 194.436 317.572 194.8 316.848 194.977C316.03 195.159 315.306 195.159 314.942 194.753C314.624 194.571 314.171 192.488 313.947 190.357C313.629 188.227 313.494 186.097 313.853 185.732C314.624 184.779 316.89 184.691 319.478 184.915C319.837 184.915 320.067 184.191 320.067 183.331C320.067 182.561 319.791 181.79 319.384 181.654C317.619 181.425 315.442 181.607 312.134 182.378C310.046 181.878 307.78 181.972 305.921 182.196C304.061 182.514 302.614 182.967 302.249 183.514C301.89 184.238 301.931 187.092 302.114 189.993C302.296 192.894 302.614 195.93 302.884 196.972C303.291 198.743 303.702 199.243 305.197 199.102C305.921 199.284 307.103 199.061 308.369 198.743C309.686 198.425 310.999 198.061 311.905 197.743ZM325.91 190.399C326.051 191.128 326.051 192.805 326.186 194.389C326.275 196.066 326.364 197.607 326.364 198.29C326.364 198.967 327.181 199.284 328.087 199.243C328.994 199.196 329.858 198.696 329.994 197.743C330.129 196.066 329.947 192.305 329.676 188.633C329.447 185.05 329.087 181.519 329.041 180.248C328.994 179.701 327.999 179.43 327.046 179.566C326.051 179.613 325.186 179.977 325.186 180.519C325.186 181.019 325.322 182.061 325.457 183.331C325.504 184.597 325.686 185.956 325.733 187.227L319.067 188.092C318.707 188.133 318.614 188.951 318.66 189.811C318.707 190.54 318.931 191.352 319.478 191.305L325.91 190.399ZM324.962 208.576C325.551 208.534 325.957 208.399 326.41 208.352C326.775 208.217 327.134 208.17 327.364 208.123C328.27 207.946 328.494 207.04 328.452 205.993C328.317 205.269 327.634 204.998 327.364 205.045C326.64 205.087 325.504 205.222 324.327 205.269C323.15 205.404 321.832 205.498 320.561 205.54L320.384 202.821C320.108 202.05 319.249 201.691 318.114 201.732C317.343 201.915 316.666 202.774 316.89 203.003L317.072 205.722C314.353 205.904 311.817 205.993 310.181 205.993C309.275 206.128 309.233 207.04 309.233 207.946C309.233 208.305 309.275 208.576 309.41 208.894C309.546 209.212 309.822 209.441 310.364 209.441H312.358C311.723 210.482 311.317 211.753 311.452 213.337C311.452 215.378 312.223 216.42 313.535 216.92C314.806 217.462 316.666 217.42 318.884 217.238C320.655 217.238 322.556 216.873 323.916 215.967C325.28 215.061 326.093 213.654 326.051 211.659C326.051 210.394 325.733 209.305 324.962 208.576ZM314.129 212.701C314.129 210.529 315.942 209.712 318.525 209.529C321.108 209.347 323.239 209.712 323.239 211.659C322.921 213.701 321.608 214.201 319.567 214.425C318.567 214.561 317.301 214.607 316.166 214.425C315.035 214.243 314.129 213.79 314.129 212.701Z" fill="black"/>
<path d="M345.319 189.356C345.136 188.226 344.548 187.814 342.824 187.861C341.964 187.997 340.199 188.044 338.339 188.226C336.48 188.403 334.532 188.679 333.261 188.903C332.761 188.95 332.537 189.809 332.584 190.674C332.584 191.533 332.808 192.304 333.532 192.257L341.011 191.58L338.246 209.169C338.022 210.21 338.928 210.617 339.923 210.663C340.876 210.663 341.876 210.299 342.011 209.71L345.319 189.356ZM361.412 210.252C361.412 210.075 361.459 208.486 361.412 206.127C361.412 203.773 361.319 200.689 361.319 197.424C361.277 194.21 361.141 190.945 361.095 188.268C361.048 185.549 360.959 183.554 360.959 182.695C360.824 182.288 360.053 181.971 359.282 181.924C358.6 181.924 357.829 182.059 357.829 182.424C357.647 183.148 357.605 185.143 357.605 187.726C357.605 190.398 357.694 193.617 357.74 196.882C357.876 200.148 357.923 203.367 358.058 205.903C358.194 208.486 358.376 210.299 358.511 210.846C358.511 211.163 359.147 211.205 359.918 211.163C360.688 211.023 361.365 210.799 361.412 210.252ZM355.246 211.023C355.11 210.163 355.022 208.215 354.886 205.674L354.433 196.882C354.293 193.799 354.157 190.674 354.115 188.179C354.069 185.643 354.022 183.736 354.069 182.965C354.069 182.601 353.115 182.601 352.162 182.783C351.214 182.965 350.261 183.419 350.126 183.965L350.397 195.57L345.095 196.34C344.73 196.34 344.459 197.064 344.412 197.924C344.412 198.695 344.548 199.512 345.048 199.512C346.36 199.512 348.449 199.33 350.761 198.648C350.761 199.872 350.85 202.684 351.032 205.361C351.214 208.033 351.438 210.481 351.668 211.023C351.668 211.57 352.574 211.752 353.433 211.752C354.386 211.752 355.246 211.523 355.246 211.023Z" fill="black"/>
<path d="M378.227 185.367C378.268 186.638 378.362 188.721 378.362 190.31C376.273 190.445 374.461 190.539 373.148 190.581C372.378 190.627 372.148 191.445 372.148 192.305C372.148 193.164 372.419 193.935 373.055 193.935L378.497 193.617L378.586 202.278L373.055 204.862C372.831 205.268 372.966 206.221 373.284 206.992C373.602 207.716 374.008 208.305 374.326 208.122L380.763 205.633L387.065 207.669C387.383 208.034 387.971 207.445 388.466 206.674C388.878 205.903 389.284 204.95 388.878 204.591L382.352 201.914L382.258 193.346C382.805 193.346 383.753 193.211 384.841 193.164C385.93 193.028 387.065 192.987 388.013 192.805C388.424 192.758 388.648 191.94 388.513 191.081C388.466 190.31 388.154 189.539 387.607 189.539C385.977 189.721 384.117 189.857 382.122 190.039C382.169 188.226 382.122 186.956 381.716 185.096C381.398 184.19 380.445 183.872 379.31 184.055C378.404 184.237 378.086 185.143 378.227 185.367ZM395.539 198.377C395.721 199.284 395.904 202.143 396.039 205.044C396.221 207.81 396.221 210.664 396.174 211.388C396.174 211.935 397.128 212.112 398.081 212.07C399.029 211.935 399.935 211.617 399.935 210.711C399.935 209.846 399.846 207.81 399.799 205.268L399.305 196.43C399.122 193.299 398.94 190.221 398.758 187.815C398.576 185.325 398.393 183.555 398.258 182.966C398.122 182.242 397.263 182.013 396.492 182.148C395.674 182.195 394.727 182.601 394.68 183.148L395.451 194.935C393.997 195.43 392.414 195.841 390.872 196.112C389.331 196.341 388.154 196.476 387.424 196.518C387.065 196.565 386.971 197.383 387.018 198.107C387.018 198.877 387.201 199.601 387.424 199.419C389.466 199.919 392.456 199.419 395.539 198.377Z" fill="black"/>
<path d="M406.738 193.846C406.738 195.159 407.279 195.794 408.233 195.659C409.186 195.659 412.675 195.341 416.118 194.976L421.014 194.435C422.555 194.211 423.555 194.07 424.05 193.935C425.368 193.711 425.727 192.987 425.91 191.304C425.91 190.539 425.863 188.268 425.821 185.955C425.639 183.648 425.592 181.377 425.41 180.653C425.368 180.429 424.503 180.294 423.644 180.336C422.738 180.383 421.92 180.606 421.92 181.106V184.372L409.956 185.82L409.321 182.106C409.321 181.424 408.55 181.377 407.597 181.56C406.779 181.742 405.831 182.148 405.602 182.513C405.42 184.69 405.691 186.773 406.055 188.721C406.285 190.674 406.691 192.44 406.738 193.846ZM420.743 201.825C421.696 201.69 423.191 201.549 424.956 201.325C426.68 201.143 428.675 200.872 430.305 200.508C430.852 200.325 431.123 199.513 431.123 198.742C431.123 198.018 430.899 197.336 430.305 197.518C427.316 198.018 422.555 198.56 417.795 199.06C413.081 199.466 408.279 199.83 405.238 199.872C404.696 199.919 404.467 200.69 404.514 201.414C404.696 202.143 405.014 202.867 405.602 202.82C408.415 203.002 412.946 202.638 417.477 202.096C417.477 202.955 417.613 203.955 417.66 204.997C417.66 205.903 417.753 206.81 417.795 207.31C417.842 207.851 418.795 208.034 419.654 207.987C420.561 207.945 421.378 207.627 421.196 207.127L420.743 201.825ZM427.54 212.388C426.91 212.523 425.863 212.659 424.279 212.794L419.384 213.2C417.753 213.336 416.253 213.471 414.941 213.518C413.628 213.565 412.993 213.565 412.946 213.518C412.493 213.159 412.222 212.247 412.175 211.299C412.128 210.846 412.087 210.435 412.087 210.028V209.169C412.087 208.851 411.18 208.758 410.227 208.94C409.321 209.075 408.368 209.487 408.321 210.075C408.279 210.935 408.368 212.476 408.55 213.883C408.774 215.289 409.05 216.554 409.592 216.872C409.774 216.919 410.951 216.919 412.493 216.872C414.081 216.825 416.165 216.69 418.248 216.554C420.337 216.372 422.509 216.284 424.186 216.101C425.91 215.919 427.269 215.695 427.816 215.466C428.222 215.289 428.311 214.471 428.269 213.7C428.087 212.976 427.858 212.341 427.54 212.388ZM422.102 190.945L410.41 192.528L409.956 188.815L422.191 187.409L422.102 190.945Z" fill="black"/>
<path d="M462.806 206.175L462.629 197.519C462.447 194.3 462.353 191.082 462.311 188.404C462.265 185.821 462.129 183.785 462.129 183.056C462.129 182.332 461.176 182.061 460.27 182.061C459.317 182.014 458.364 182.243 458.364 182.602L458.64 195.389L454.103 196.342L454.015 183.42C454.015 183.056 453.108 182.92 452.155 183.102C451.249 183.285 450.254 183.738 450.254 184.462C450.207 184.738 450.16 185.326 450.16 186.186V189.358C450.207 191.852 450.343 194.977 450.478 198.196C450.66 201.462 450.884 204.592 451.114 207.264C451.296 209.847 451.478 211.936 451.791 212.66C451.791 213.16 452.744 213.384 453.697 213.337C454.603 213.337 455.556 213.019 455.556 212.477L454.332 199.285L458.822 198.378L459.317 210.712C459.317 211.024 460.088 211.165 460.994 211.118C461.811 211.071 462.765 210.847 462.806 210.347V206.175ZM440.416 195.024C437.561 195.207 436.02 196.431 435.114 198.108C434.249 199.873 434.067 202.186 434.249 204.681C434.431 209.941 436.791 211.389 441.91 211.024C446.218 210.847 447.895 207.628 447.848 202.915C447.713 197.608 446.035 194.665 440.416 195.024ZM445.9 188.816C445.176 188.951 444.541 188.998 443.858 189.04C443.134 189.175 442.546 189.222 441.822 189.269C441.864 187.092 441.864 186.003 441.457 183.873C441.233 182.92 440.186 182.602 439.056 182.785C438.285 182.92 437.968 183.92 437.968 184.144L438.103 185.415L438.285 186.686C438.332 187.592 438.285 188.405 438.103 189.451C437.468 189.493 436.879 189.54 436.244 189.54H434.431C433.343 189.675 433.119 190.54 433.254 191.306C433.254 192.076 433.207 193.03 434.343 193.076C435.973 193.123 438.421 193.03 440.733 192.847C443.046 192.67 445.223 192.441 446.218 192.076C447.213 191.899 447.624 190.899 447.442 189.811C447.442 189.04 446.353 188.769 445.9 188.816ZM437.561 204.316C437.379 200.556 438.015 198.832 440.504 198.649C441.91 198.561 442.91 198.79 443.452 199.332C444.041 199.873 444.358 201.144 444.452 203.092C444.27 206.175 443.905 207.535 441.822 207.764C440.869 207.988 439.874 208.035 439.009 207.493C438.192 206.993 437.561 206.087 437.561 204.316Z" fill="black"/>
<path d="M468.386 197.518C468.25 193.664 469.245 191.216 472.964 191.034C476.5 190.81 477.584 192.393 477.766 196.518C477.948 200.919 476.542 203.409 473.553 203.591C471.693 203.82 470.381 203.367 469.61 202.185C468.928 200.961 468.474 199.419 468.386 197.518ZM472.782 187.409C469.381 187.638 467.48 188.862 466.162 190.674C464.985 192.487 464.667 194.935 464.803 197.518C464.849 200.284 465.438 203.002 466.75 204.815C468.021 206.674 470.105 207.716 473.459 207.492C476.454 207.31 478.49 205.768 479.808 203.638C480.985 201.507 481.485 198.83 481.438 196.247C481.214 190.674 479.219 187.044 472.782 187.409ZM488.646 190.492L488.011 182.289C487.875 181.877 486.881 181.695 485.881 181.877C484.792 182.06 483.933 182.424 484.068 183.148C484.25 183.737 484.433 185.414 484.61 187.726C484.792 190.039 484.974 192.893 485.204 195.841C485.339 198.877 485.428 201.914 485.563 204.497C485.61 207.08 485.745 209.211 485.792 210.346C485.61 211.252 486.334 211.752 487.198 211.888C488.011 211.935 488.964 211.705 489.188 211.023L489.282 203.091L493.631 202.549C494.36 202.502 494.224 201.414 494.178 200.69C494.042 199.919 493.631 199.195 493.224 199.195L489.188 199.872L488.917 193.711L493.224 193.075C493.813 193.028 493.771 192.169 493.724 191.304C493.542 190.539 493 189.768 492.589 189.81L488.646 190.492Z" fill="black"/>
<path d="M516.88 184.462C516.109 184.597 515.25 184.644 514.344 184.644C514.385 183.056 514.344 182.108 513.979 180.431C513.661 179.477 512.755 179.16 511.62 179.342C510.714 179.477 510.49 180.337 510.49 180.566C510.531 181.337 510.625 182.014 510.76 182.743C510.807 183.467 510.849 184.191 510.849 184.915C509.036 185.05 507.135 185.097 505.458 185.097C504.37 185.233 504.234 186.186 504.234 186.957C504.234 187.681 504.37 188.587 505.635 188.634C507.453 188.681 510.354 188.545 513.026 188.363C515.703 188.134 518.286 187.91 519.552 187.592C520.458 187.363 520.776 186.368 520.734 185.28C520.505 184.509 519.599 184.28 519.328 184.326L516.88 184.462ZM513.073 189.451C507.042 189.811 505.5 193.618 505.635 197.655C505.729 199.873 506.547 201.28 508.042 201.915C509.536 202.503 511.667 202.733 514.432 202.55C518.74 202.503 520.734 199.785 520.505 195.977C520.37 193.8 520.052 192.123 518.922 190.899C517.786 189.769 516.063 189.269 513.073 189.451ZM508.948 197.248C508.766 194.389 510.307 193.076 513.255 192.894C516.245 192.67 516.969 193.123 517.151 195.977C517.016 197.29 516.833 198.108 516.516 198.514C516.245 198.925 515.521 199.196 514.432 199.378C513.344 199.514 511.984 199.696 510.849 199.378C509.719 199.149 508.948 198.514 508.948 197.248ZM527.443 181.29C527.078 180.748 526.219 180.608 525.354 180.79C524.542 180.972 523.724 181.519 523.906 182.378C524.089 183.42 524.406 186.639 524.724 190.222L525.354 199.873C525.13 200.738 525.854 201.056 526.672 201.056C527.443 201.056 528.302 200.738 528.62 200.056C528.891 198.472 528.755 195.977 528.714 194.483L532.521 193.847C532.927 193.712 533.063 192.806 533.063 192.076C532.745 191.352 532.339 190.717 531.927 190.764L528.438 191.399C528.255 189.993 528.167 187.681 527.984 185.644C527.802 183.602 527.625 181.696 527.443 181.29ZM510.49 216.873C511.031 218.191 511.849 218.368 512.979 218.368L519.917 217.873C523 217.644 526.036 217.326 526.99 217.144C527.531 216.826 527.802 216.061 527.802 215.332C527.76 214.608 527.49 214.066 526.99 214.066L514.432 215.561C513.344 215.014 512.573 213.837 513.891 213.519C514.068 213.472 514.839 213.337 516.198 213.201C517.557 213.066 519.01 212.884 520.688 212.66C522.276 212.477 523.724 212.248 525.083 211.936C526.443 211.618 527.26 211.3 527.443 210.936C527.849 210.165 527.802 208.623 527.531 207.352C527.349 206.04 526.896 204.905 526.536 204.592C526.307 204.545 525.401 204.498 524.042 204.545C522.729 204.545 521.005 204.634 519.24 204.769C517.422 204.951 515.656 204.998 514.203 205.134C512.844 205.316 511.714 205.405 511.349 205.451C510.531 205.498 510.26 206.269 510.26 207.04C510.26 207.811 510.625 208.576 511.031 208.576L523.635 207.311L523.724 207.582L523.906 208.217C523.953 208.717 523.995 209.212 523.635 209.441C523.589 209.576 522.865 209.623 521.547 209.759C520.281 209.941 518.693 210.076 516.969 210.3C515.292 210.483 513.573 210.665 512.167 210.889C510.849 211.118 509.807 211.436 509.49 211.66C508.901 212.071 508.948 213.066 509.307 214.155C509.625 215.196 510.125 216.332 510.49 216.873Z" fill="black"/>
<path d="M544.573 190.675C545.12 190.675 546.026 190.539 547.115 190.492C548.203 190.357 549.333 190.31 550.286 190.128C550.693 190.081 550.922 189.269 550.786 188.404C550.74 187.68 550.422 186.867 549.88 186.867C547.656 187.18 544.891 187.362 542.266 187.545C539.542 187.727 536.958 187.909 535.417 187.951C534.646 187.998 534.422 188.815 534.422 189.675C534.422 190.446 534.693 191.305 535.328 191.305L540.724 190.946L540.948 201.644L534.51 205.362C534.328 205.904 534.646 206.586 535.099 207.128C535.599 207.716 536.188 208.081 536.552 207.852L543.031 205.045L550.063 207.67C550.422 207.987 550.828 207.399 551.146 206.628C551.51 205.857 551.646 204.951 551.24 204.591L544.714 201.326L544.573 190.675ZM560.031 182.966C559.99 182.466 558.99 182.289 558.036 182.425C557.089 182.56 556.224 182.966 556.271 183.69C556.406 184.373 556.589 186.185 556.724 188.722C556.906 191.263 557.042 194.435 557.224 197.701C557.401 200.92 557.448 204.18 557.495 206.857C557.542 209.529 557.495 211.524 557.448 212.295C557.448 213.065 558.083 213.565 558.901 213.612C559.714 213.748 560.531 213.43 560.938 212.565C561.073 212.206 561.12 210.3 561.12 207.628C561.12 204.904 561.073 201.55 560.938 198.06L560.484 188.404C560.302 185.644 560.167 183.649 560.031 182.966Z" fill="black"/>
<path d="M598.069 186.003C597.933 184.872 597.251 184.508 595.574 184.555L592.496 184.779L587.235 185.143C585.287 185.279 583.517 185.414 581.751 185.596C580.074 185.732 578.897 185.867 578.261 186.003C577.714 186.138 577.49 186.956 577.579 187.815C577.579 188.586 577.85 189.404 578.532 189.357L593.72 188.18L592.808 197.836C592.631 198.878 593.537 199.284 594.532 199.331C595.485 199.331 596.48 198.966 596.621 198.378L598.069 186.003ZM575.949 210.846C575.36 210.888 575.084 211.753 575.267 212.612C575.402 213.383 575.767 214.201 576.308 214.154C578.756 214.154 583.517 213.925 588.371 213.43C593.22 213.018 598.157 212.477 601.017 211.935C601.558 211.888 601.829 210.935 601.829 210.029C601.787 209.122 601.558 208.305 601.017 208.487C600.11 208.716 597.933 208.94 595.303 209.169C592.631 209.487 589.595 209.8 587.147 210.164L586.829 203.503C586.782 202.914 585.923 202.773 584.97 202.82C584.017 202.956 583.157 203.32 583.157 203.685L583.334 210.617L575.949 210.846Z" fill="black"/>
<path d="M608.263 184.461C606.633 184.643 605.544 184.872 605.315 187.044C605.138 188.091 605.226 190.898 605.409 193.799C605.591 196.747 605.815 199.737 606.18 200.872C606.18 202.367 606.721 202.596 607.992 202.461C608.987 202.461 611.117 202.279 613.159 202.049C615.154 201.825 617.195 201.596 618.143 201.237C619.232 201.008 619.461 200.055 619.414 199.195V198.513C619.414 198.107 619.414 197.565 619.461 196.93C619.502 196.247 619.502 195.523 619.502 194.706V192.169C619.502 190.492 619.502 188.68 619.367 187.227C619.232 185.82 619.008 184.737 618.737 184.325C618.237 183.966 615.924 183.919 613.523 184.055C611.117 184.19 608.805 184.419 608.263 184.461ZM631.018 212.206C630.383 212.388 629.117 212.523 627.617 212.659L622.362 213.065C620.638 213.247 618.914 213.336 617.601 213.383C616.289 213.518 615.471 213.471 615.471 213.43C615.018 213.065 614.747 212.159 614.7 211.253C614.654 210.846 614.612 210.435 614.612 210.029V209.169C614.612 208.852 613.7 208.758 612.752 208.893C611.846 209.034 610.893 209.393 610.846 209.982C610.799 210.888 610.893 212.388 611.075 213.789C611.299 215.195 611.617 216.466 612.164 216.784C612.341 216.825 613.523 216.825 615.154 216.784C616.877 216.737 619.049 216.602 621.226 216.419C623.45 216.372 625.669 216.148 627.529 215.966C629.341 215.742 630.7 215.513 631.289 215.289C631.654 215.107 631.742 214.336 631.7 213.612C631.565 212.841 631.336 212.206 631.018 212.206ZM629.159 181.742C628.935 181.378 627.982 181.242 627.075 181.424C626.216 181.654 625.445 182.107 625.581 182.966C625.716 184.055 625.987 187.227 626.216 190.898C626.351 194.57 626.487 198.648 626.305 201.325C626.305 202.185 627.122 202.596 628.029 202.638C628.841 202.773 629.747 202.414 629.93 201.825C629.976 201.325 630.065 200.013 630.065 198.242C630.112 196.477 630.023 194.211 629.976 191.987C629.93 189.768 629.794 187.497 629.659 185.685C629.476 183.872 629.341 182.424 629.159 181.742ZM610.211 187.68C610.622 187.68 611.706 187.544 612.841 187.497C613.976 187.456 615.065 187.456 615.471 187.68C615.877 187.997 616.06 190.581 616.06 193.258C616.013 195.93 615.742 198.471 615.336 198.648L610.029 199.513L609.351 198.56L608.898 188.815C608.851 188.268 609.034 188.091 609.351 187.909C609.622 187.773 610.029 187.727 610.211 187.68Z" fill="black"/>
<path d="M638.995 197.518C638.86 193.664 639.855 191.216 643.573 191.034C647.11 190.81 648.193 192.393 648.375 196.518C648.558 200.919 647.152 203.409 644.162 203.591C642.303 203.82 640.99 203.367 640.219 202.185C639.537 200.961 639.084 199.419 638.995 197.518ZM643.391 187.409C639.99 187.638 638.089 188.862 636.771 190.675C635.594 192.487 635.277 194.935 635.412 197.518C635.459 200.284 636.047 203.003 637.36 204.815C638.631 206.675 640.714 207.716 644.068 207.492C647.063 207.31 649.099 205.768 650.417 203.638C651.594 201.508 652.094 198.831 652.047 196.247C651.823 190.675 649.829 187.044 643.391 187.409ZM659.98 182.784C659.662 182.242 658.756 182.06 657.808 182.242C656.943 182.425 656.172 182.878 656.219 183.784C656.402 184.372 656.625 186.05 656.808 188.362C657.037 190.675 657.125 193.617 657.261 196.565C657.396 199.513 657.443 202.55 657.443 205.044C657.443 207.534 657.349 209.44 657.214 210.346C657.172 211.07 657.808 211.524 658.62 211.659C659.344 211.706 660.256 211.524 660.662 210.846C660.844 210.435 660.933 208.534 660.98 205.992C660.98 203.456 660.933 200.237 660.886 196.971C660.75 193.753 660.662 190.539 660.48 187.951C660.297 185.367 660.115 183.466 659.98 182.784Z" fill="black"/>
<path d="M689.312 182.784C687.864 182.424 684.369 182.648 681.197 183.055C679.656 183.284 678.208 183.513 676.937 183.826C675.713 184.102 675.077 184.372 674.942 184.643C674.671 185.549 674.807 187.18 674.989 188.862C675.171 190.492 675.442 192.258 675.489 193.346C675.489 195.023 675.76 195.523 677.437 195.388C679.656 195.206 681.65 195.294 683.692 195.159C685.734 195.117 687.77 194.935 690.171 194.388C690.765 194.211 691.124 193.529 691.124 192.805C691.124 192.076 690.807 191.487 690.265 191.487C688.359 191.716 685.822 191.987 683.692 192.122C681.468 192.258 679.702 192.258 679.338 191.852C679.02 191.669 678.796 190.674 678.661 189.586C678.478 188.497 678.478 187.409 678.796 187.044C679.296 186.549 681.379 186.32 683.598 186.138C685.822 185.956 688.135 185.956 689.129 186.003C689.494 186.003 689.765 185.279 689.812 184.508C689.859 183.826 689.676 182.966 689.312 182.784ZM700.01 212.294C699.374 212.43 698.333 212.565 696.744 212.701L691.848 213.112C690.218 213.247 688.676 213.383 687.364 213.43C686.046 213.471 685.416 213.471 685.369 213.43C684.916 213.065 684.645 212.159 684.598 211.253C684.551 210.846 684.51 210.435 684.51 210.029V209.169C684.51 208.852 683.598 208.758 682.65 208.893C681.744 209.034 680.791 209.393 680.744 209.982C680.697 210.888 680.791 212.388 680.973 213.789C681.197 215.195 681.515 216.466 682.062 216.784C682.239 216.826 683.374 216.826 684.916 216.784C688.176 216.648 693.166 216.372 696.609 216.013C698.379 215.831 699.692 215.602 700.239 215.378C700.598 215.195 700.734 214.378 700.692 213.654C700.51 212.93 700.327 212.294 700.01 212.294ZM699.15 180.924C698.968 180.383 698.109 180.247 697.244 180.383C696.291 180.518 695.52 180.883 695.567 181.56C695.702 182.148 695.796 183.372 695.973 185.19C696.114 187.003 696.202 188.997 696.291 191.128C696.385 193.258 696.426 195.388 696.473 197.471C696.52 199.513 696.52 201.143 696.473 202.279C696.473 203.049 697.156 203.544 697.879 203.685C698.603 203.862 699.374 203.638 699.739 202.914C699.786 202.549 699.827 201.143 699.827 199.195C699.827 197.201 699.786 194.706 699.739 192.169C699.603 189.674 699.51 187.138 699.421 185.096L699.15 180.924ZM692.619 199.602C689.994 200.284 687.635 200.779 685.458 200.961C685.458 198.966 685.416 198.336 685.14 197.065C685.004 196.341 684.234 196.201 683.421 196.383C682.603 196.565 681.879 197.018 681.879 197.565L681.744 201.372L675.666 201.826C674.76 201.867 674.442 202.685 674.489 203.456C674.489 204.315 674.895 205.086 675.577 205.086C677.619 205.086 681.109 204.68 684.51 204.273C687.906 203.773 691.036 203.32 692.531 202.914C693.254 202.732 693.666 201.867 693.666 201.096C693.666 200.237 693.213 199.555 692.619 199.602Z" fill="black"/>
<path d="M718.454 187.321C717.141 187.139 714.194 187.139 711.381 187.457C708.615 187.681 706.032 188.092 705.673 188.634C705.397 188.998 705.355 190.222 705.397 191.806C705.444 193.394 705.673 195.478 705.855 197.472C706.35 201.55 706.761 205.722 706.897 206.811C707.074 208.488 707.532 209.035 709.115 208.853C711.339 208.717 712.923 208.759 714.464 208.576C715.959 208.441 717.548 208.217 719.86 207.493C720.537 207.311 720.902 206.446 720.949 205.675C720.949 204.905 720.584 204.181 720.042 204.228C718.136 204.634 715.917 204.998 714.194 205.181C712.423 205.363 711.022 205.405 710.657 205.045C710.475 204.998 710.339 204.181 710.115 202.915C709.933 201.644 709.751 200.056 709.615 198.472C709.433 196.884 709.345 195.254 709.298 193.983V192.488C709.298 192.076 709.345 191.853 709.433 191.764C709.839 191.264 711.563 191.035 713.376 190.993C715.282 190.853 717.183 190.899 718.454 190.853C719.225 190.853 719.542 190.082 719.542 189.222C719.542 188.363 719.225 187.498 718.454 187.321ZM728.428 182.603C728.11 182.061 727.157 181.925 726.251 182.108C725.298 182.29 724.527 182.696 724.662 183.42L725.027 188.269C725.209 190.675 725.345 193.8 725.527 196.931C725.709 200.149 725.845 203.274 725.886 205.993C725.933 208.717 725.98 210.889 725.933 212.024C725.933 212.884 726.657 213.248 727.563 213.248C728.381 213.248 729.287 212.842 729.605 212.113L729.516 197.925L733.73 197.155C734.095 197.155 734.23 196.931 734.277 196.613C734.319 196.478 734.319 196.295 734.319 196.113V195.571C734.183 194.8 733.73 194.071 733.365 194.118L729.24 194.754C728.97 193.076 728.834 190.358 728.699 187.863L728.428 182.603Z" fill="black"/>
<path d="M739.81 184.462C738.18 184.644 737.091 184.873 736.862 187.045C736.685 188.092 736.773 190.899 736.956 193.8C737.138 196.748 737.362 199.738 737.726 200.873C737.726 202.368 738.268 202.597 739.539 202.462C740.534 202.462 742.664 202.279 744.706 202.05C746.7 201.826 748.742 201.597 749.69 201.238C750.779 201.008 751.008 200.055 750.961 199.196V198.243L751.049 198.561C751.19 198.878 751.325 199.014 751.508 199.014C752.232 199.149 753.815 199.014 755.404 198.831C756.898 198.649 758.575 198.337 759.758 198.107L760.07 203.863C760.252 204.41 761.206 204.592 762.112 204.41C763.065 204.227 763.924 203.821 763.924 202.915C763.883 202.003 763.836 200.238 763.7 198.196C763.654 196.16 763.518 193.712 763.289 191.352C763.154 188.998 762.971 186.639 762.836 184.779C762.659 182.967 762.518 181.561 762.383 181.019C762.2 180.337 761.341 180.154 760.388 180.154C759.482 180.201 758.575 180.472 758.575 181.019L758.987 186.415C758.034 186.774 756.539 187.003 755.039 187.139C753.497 187.274 752.138 187.321 751.414 187.321C751.232 187.363 751.096 187.545 751.049 187.91L750.961 188.269C750.961 187.91 750.961 187.545 750.914 187.227C750.779 185.821 750.555 184.738 750.284 184.326C749.784 183.967 747.471 183.92 745.07 184.055C742.664 184.191 740.351 184.42 739.81 184.462ZM762.565 212.206C761.93 212.389 760.664 212.524 759.164 212.66L753.909 213.066C752.185 213.248 750.461 213.337 749.148 213.383C747.836 213.519 747.018 213.472 747.018 213.43C746.565 213.066 746.294 212.16 746.247 211.253C746.2 210.847 746.159 210.436 746.159 210.029V209.17C746.159 208.852 745.247 208.758 744.299 208.894C743.393 209.035 742.44 209.394 742.393 209.982C742.346 210.889 742.44 212.389 742.622 213.79C742.846 215.196 743.164 216.467 743.711 216.785C743.888 216.826 745.07 216.826 746.7 216.785C748.424 216.738 750.596 216.602 752.773 216.42C754.997 216.373 757.216 216.149 759.075 215.967C760.888 215.743 762.247 215.514 762.836 215.29C763.2 215.107 763.289 214.337 763.247 213.613C763.112 212.842 762.883 212.206 762.565 212.206ZM741.758 187.68C742.169 187.68 743.252 187.545 744.388 187.498C745.523 187.456 746.612 187.456 747.018 187.68C747.424 187.998 747.607 190.581 747.607 193.258C747.56 195.93 747.289 198.472 746.883 198.649L741.575 199.514L740.898 198.561L740.445 188.816C740.398 188.269 740.581 188.092 740.898 187.91C741.169 187.774 741.575 187.727 741.758 187.68ZM759.758 194.842C758.487 195.342 756.716 195.524 755.039 195.66C753.362 195.842 751.867 195.889 751.143 195.889L751.049 195.977V192.17C751.049 191.305 751.049 190.493 751.008 189.628V189.357L751.19 190.128C751.279 190.446 751.414 190.581 751.596 190.581C753.32 191.081 756.357 190.54 759.346 189.811L759.758 194.842Z" fill="black"/>
<path d="M102.76 270.763C102.806 271.487 103.624 272.529 104.301 272.529C105.207 272.529 107.067 272.394 108.973 272.17C110.921 271.987 112.78 271.716 113.775 271.487C115.228 271.123 115.728 270.31 115.905 268.633V267.409C115.905 266.821 115.905 266.091 115.864 265.232C115.817 263.555 115.77 261.425 115.635 259.295L115.452 256.211C115.411 255.17 115.275 254.263 115.228 253.446C115.093 251.769 114.911 250.545 114.864 250.138C114.822 249.821 113.822 249.685 112.827 249.821C111.921 249.867 110.968 250.18 111.015 250.591C111.015 251.498 111.15 252.904 111.286 254.17C111.421 255.487 111.556 256.935 111.556 258.024L106.161 258.795C105.978 255.394 105.978 253.081 106.343 250.951C106.343 250.409 105.39 250.18 104.442 250.321C103.489 250.456 102.536 250.815 102.489 251.362C102.082 253.539 101.994 257.571 102.129 261.513C102.171 263.466 102.218 265.321 102.306 267.091C102.489 268.815 102.624 270.039 102.76 270.763ZM126.332 245.966C126.291 245.466 125.291 245.289 124.338 245.425C123.39 245.56 122.525 245.966 122.572 246.69C122.707 247.373 122.89 249.185 123.025 251.722C123.207 254.263 123.343 257.435 123.525 260.701C123.702 263.92 123.749 267.18 123.796 269.857C123.843 272.529 123.796 274.524 123.749 275.295C123.749 276.065 124.385 276.565 125.202 276.612C126.015 276.748 126.832 276.43 127.239 275.565C127.374 275.206 127.421 273.3 127.421 270.628C127.421 267.904 127.374 264.55 127.239 261.06L126.786 251.404C126.603 248.644 126.468 246.649 126.332 245.966ZM111.963 268.539L106.525 269.357L106.254 262.284L111.874 261.107L111.963 268.539Z" fill="black"/>
<path d="M133.997 248.19C133.997 248.914 134.044 250.862 134.086 252.81C134.133 254.763 134.179 256.752 134.179 257.664L130.914 260.836C130.685 261.377 131.049 262.101 131.549 262.648C131.955 263.19 132.591 263.601 132.909 263.237L136.398 261.195L138.711 261.742L137.851 262.872C137.669 263.554 138.075 264.143 138.758 264.507C139.393 264.867 140.07 265.002 140.476 264.643L144.33 260.653L149.32 262.784C149.95 263.148 150.586 262.648 150.997 261.924C151.315 261.195 151.357 260.382 150.997 259.882L145.872 256.846C145.69 255.893 145.648 253.898 145.601 252.039C145.554 250.226 145.466 248.367 145.466 247.461C145.419 246.919 144.513 246.648 143.56 246.69C142.607 246.825 141.747 247.143 141.747 247.737C141.747 248.414 141.883 250.138 141.929 252.086C141.976 253.945 141.976 255.987 141.929 257.211L141.205 258.57L138.169 257.388C138.028 256.44 137.893 254.445 137.851 252.586C137.716 250.726 137.716 248.914 137.716 248.007C137.669 247.419 136.716 247.19 135.81 247.237C134.903 247.278 133.997 247.643 133.997 248.19ZM155.299 244.56C154.94 244.018 154.075 243.882 153.169 244.065C152.398 244.242 151.586 244.742 151.768 245.601C151.945 246.69 152.31 250.044 152.627 253.716L153.304 263.601C153.127 264.461 153.851 264.731 154.669 264.731C155.44 264.731 156.346 264.461 156.57 263.778C156.705 263.013 156.752 261.966 156.752 260.742C156.752 259.612 156.664 258.252 156.664 256.846L160.471 256.075C161.013 255.846 161.013 255.034 160.83 254.304C160.695 253.539 160.195 252.992 159.789 252.992L156.388 253.674C156.205 252.45 156.07 250.362 155.893 248.502C155.711 246.69 155.482 244.971 155.299 244.56ZM158.247 275.205C157.612 275.388 156.346 275.523 154.846 275.659L149.591 276.065C147.867 276.247 146.143 276.336 144.83 276.382C143.518 276.518 142.7 276.471 142.7 276.429C142.247 276.065 141.976 275.159 141.929 274.252C141.883 273.846 141.841 273.435 141.841 273.028V272.169C141.841 271.851 140.929 271.757 139.982 271.893C139.075 272.034 138.122 272.393 138.075 272.981C138.028 273.888 138.122 275.388 138.304 276.789C138.528 278.195 138.846 279.466 139.393 279.784C139.57 279.825 140.752 279.825 142.383 279.784C144.107 279.737 146.278 279.601 148.455 279.419C150.679 279.372 152.898 279.148 154.758 278.966C156.57 278.742 157.929 278.513 158.518 278.289C158.883 278.106 158.971 277.336 158.929 276.612C158.794 275.841 158.565 275.205 158.247 275.205Z" fill="black"/>
<path d="M170.943 250.951C170.578 251.451 170.531 252.769 170.531 254.581C170.531 256.394 170.625 258.659 170.807 260.878C170.984 263.102 171.214 265.367 171.443 267.138C171.62 268.904 171.755 270.216 171.896 270.581C172.255 271.852 172.938 272.8 174.797 272.8L183.5 271.123C184.813 270.581 185.766 269.946 185.901 268.269V264.779C185.854 262.966 185.807 260.742 185.672 258.524C185.536 256.211 185.401 254.034 185.177 252.357C184.995 250.68 184.766 249.456 184.542 249.232C183.771 248.644 180.734 248.685 177.651 249.05C176.156 249.232 174.75 249.503 173.391 249.867C172.073 250.227 171.302 250.591 170.943 250.951ZM196.234 245.966C196.193 245.466 195.193 245.289 194.24 245.425C193.292 245.56 192.427 245.966 192.474 246.69C192.609 247.373 192.792 249.185 192.927 251.722C193.109 254.263 193.245 257.435 193.427 260.701C193.604 263.92 193.651 267.18 193.698 269.857C193.745 272.529 193.698 274.524 193.651 275.295C193.651 276.065 194.286 276.565 195.104 276.612C195.917 276.748 196.734 276.43 197.141 275.565C197.276 275.206 197.323 273.3 197.323 270.628C197.323 267.904 197.276 264.55 197.141 261.06L196.688 251.404C196.505 248.644 196.37 246.649 196.234 245.966ZM174.385 253.399C174.974 253.081 176.563 252.769 178.01 252.539C179.51 252.357 180.917 252.269 181.094 252.451C181.229 252.628 181.37 253.628 181.505 255.034C181.682 256.482 181.823 258.295 181.958 260.112C182.094 261.878 182.141 263.737 182.141 265.05C182.182 266.503 182.094 267.451 182.047 267.498C181.37 267.904 176.927 269.175 176.698 269.175C176.198 269.175 175.568 268.586 175.568 268.269L175.292 265.279C175.156 263.779 174.974 262.242 174.797 260.607C174.385 257.388 174.161 254.263 174.385 253.399Z" fill="black"/>
<path d="M207.973 280.325C208.561 281.643 209.332 282.049 210.467 281.913C211.238 281.913 214.363 281.731 217.447 281.413C220.441 281.231 223.613 280.913 224.566 280.596C225.108 280.236 225.29 279.466 225.29 278.742C225.243 278.012 224.973 277.424 224.473 277.424L211.915 279.012C211.421 278.648 210.967 278.148 210.738 277.559C210.514 276.971 210.738 276.611 211.421 276.429C211.556 276.382 212.28 276.247 213.639 276.111C215.046 275.976 216.493 275.841 218.129 275.611C219.759 275.387 221.212 275.111 222.572 274.794C223.931 274.476 224.743 274.163 224.926 273.752C225.337 272.799 225.337 271.169 225.02 269.721C224.79 268.268 224.249 267.044 223.884 266.684C223.796 266.637 223.52 266.637 223.066 266.637H221.483L219.217 266.773L217.717 266.861C217.811 266.773 217.853 266.637 217.811 266.502L217.493 263.054C219.395 262.872 221.254 262.648 222.931 262.466C224.608 262.33 226.197 262.101 227.827 261.742C228.415 261.559 228.691 260.742 228.691 259.971C228.691 259.247 228.415 258.523 227.827 258.705C224.837 259.247 220.124 259.835 215.405 260.247C210.65 260.653 205.889 260.971 202.806 261.106C202.217 261.153 201.988 261.924 202.124 262.648C202.264 263.372 202.671 264.096 203.306 264.054C205.978 264.278 209.603 263.919 214.228 263.419V264.507C214.228 264.778 214.228 265.049 214.275 265.278C214.275 265.82 214.363 266.184 214.41 266.591C214.41 266.82 214.546 266.955 214.775 267.091C214.546 267.137 214.275 267.137 214.046 267.137C213.139 267.179 212.368 267.273 211.691 267.361L208.697 267.679C207.973 267.679 207.655 268.538 207.655 269.309C207.655 270.174 208.02 270.898 208.426 270.851L221.072 269.538L221.165 269.856C221.254 270.08 221.348 270.309 221.389 270.58C221.436 271.122 221.525 271.757 221.165 271.986C221.118 272.169 220.348 272.304 219.035 272.486L214.457 273.028C212.822 273.21 211.009 273.481 209.65 273.71C208.337 273.887 207.296 274.163 206.978 274.387C206.342 274.934 206.431 276.018 206.796 277.242C207.155 278.377 207.613 279.601 207.973 280.325ZM211.598 249.231L203.665 253.58C203.441 254.127 203.983 254.804 204.754 255.304C205.525 255.804 206.342 256.122 206.566 255.804L213.639 252.992L224.743 254.669C225.29 255.033 226.15 254.669 226.874 254.08C227.421 253.398 227.962 252.674 227.556 252.174L215.681 249.413L215.587 244.288C215.546 243.7 214.592 243.471 213.639 243.518C212.78 243.518 211.827 243.924 211.827 244.471L211.598 249.231Z" fill="black"/>
<path d="M243.829 252.268C243.876 255.122 245.188 256.664 247.094 257.434C248.995 258.294 251.49 258.294 253.938 258.117C256.928 257.934 259.287 257.523 260.917 256.44C262.641 255.351 263.501 253.716 263.459 250.95C263.277 248.278 261.917 246.736 259.923 245.877C257.881 245.106 255.209 244.924 252.579 245.106C249.902 245.289 247.636 245.648 246.141 246.736C244.464 247.778 243.693 249.502 243.829 252.268ZM245.777 277.424C245.824 279.466 247.094 280.554 248.818 281.096C250.673 281.596 252.985 281.643 255.251 281.46C258.016 281.278 260.423 280.96 261.964 280.101C263.548 279.33 264.412 278.059 264.412 276.065C264.365 274.205 262.959 272.94 261.1 272.075C259.152 271.351 256.657 271.033 254.256 271.216C249.131 271.575 245.553 273.481 245.777 277.424ZM260.74 263.96C260.693 262.695 260.693 261.966 260.74 261.242V259.247C260.558 258.57 259.74 258.387 258.881 258.387C258.11 258.387 257.246 258.658 257.246 259.065L256.792 264.46L250.495 264.914L249.631 261.018C249.589 260.247 248.678 260.065 247.772 260.247C246.865 260.382 246.094 260.789 246.141 261.018L246.73 264.914L241.516 265.367C240.745 265.502 240.522 266.226 240.568 267.091C240.61 267.861 240.975 268.585 241.699 268.539C244.464 268.361 249.678 268.179 254.891 267.768C257.475 267.591 260.058 267.361 262.459 267.137C264.865 266.861 266.766 266.544 268.173 266.184C268.673 266.137 268.943 265.184 268.943 264.325C268.943 263.554 268.714 262.695 268.173 262.872L260.74 263.96ZM254.074 254.986C252.308 255.122 250.719 255.122 249.542 254.716C248.407 254.351 247.594 253.492 247.594 251.997C247.548 250.455 247.865 249.455 248.636 249.049C249.449 248.643 250.813 248.367 252.714 248.278C257.204 247.914 259.693 248.19 259.829 251.044C259.923 253.945 257.975 254.762 254.074 254.986ZM255.433 278.466C253.756 278.601 252.397 278.648 251.266 278.559C250.131 278.512 249.589 278.012 249.542 277.153C249.407 275.476 250.631 274.523 254.344 274.205C258.428 273.981 260.693 274.752 260.829 276.158C260.876 277.971 259.199 278.242 255.433 278.466Z" fill="black"/>
<path d="M294.143 246.965C294.731 246.783 295.049 245.919 295.049 245.148C295.049 244.288 294.773 243.564 294.278 243.564C291.648 244.242 287.611 244.606 283.804 244.924C279.997 245.148 276.46 245.242 275.012 245.195C274.288 245.242 273.877 246.054 273.877 246.919C273.877 247.689 274.106 248.502 274.648 248.46L277.049 248.643L277.413 254.304H275.283C274.559 254.351 274.288 255.122 274.424 255.893C274.465 256.752 274.877 257.481 275.601 257.481C277.596 257.346 281.45 257.117 285.346 256.752C289.153 256.393 292.96 255.986 294.731 255.439C295.273 255.393 295.544 254.622 295.544 253.762C295.502 252.992 295.137 252.268 294.549 252.268L292.507 252.809L292.054 247.46L294.143 246.965ZM277.413 271.486C277.007 272.21 276.825 273.663 276.778 275.247C276.736 276.835 276.825 278.512 276.872 279.601C276.689 280.283 277.231 281.231 278.502 280.872C279.95 280.872 283.08 280.643 286.252 280.419C289.382 280.101 292.372 279.783 293.689 279.419C295.455 278.919 296.09 278.601 296.09 277.518C296.09 276.971 296.09 275.111 295.955 273.434C295.773 271.669 295.544 270.08 295.002 269.721C294.684 269.627 293.731 269.627 292.189 269.674C290.606 269.721 288.929 269.809 286.981 269.992C285.075 270.174 283.215 270.398 281.403 270.669C279.544 270.898 278.231 271.169 277.413 271.486ZM286.799 265.731C288.747 265.549 290.741 265.32 292.601 265.096C294.46 264.867 296.179 264.689 297.856 264.325C298.403 264.143 298.674 263.283 298.674 262.512C298.674 261.83 298.403 261.106 297.856 261.288C294.82 261.83 290.335 262.377 285.846 262.783C281.356 263.189 276.872 263.554 273.695 263.601C273.153 263.643 272.882 264.413 273.064 265.143C273.2 265.867 273.559 266.544 274.148 266.502C275.554 266.637 276.736 266.544 278.184 266.502L283.533 266.002V267.09C283.533 267.408 283.533 267.679 283.58 267.95C283.58 268.45 283.715 268.856 283.762 269.356C283.762 269.898 284.622 270.038 285.575 269.992C286.481 269.992 287.34 269.674 287.205 269.174L286.799 265.731ZM279.814 277.377V276.335C279.861 275.387 279.95 274.252 280.361 273.752L282.627 273.434L286.523 272.893C287.887 272.757 289.111 272.622 290.195 272.575C291.283 272.486 291.919 272.528 291.965 272.71C292.33 273.028 292.601 273.846 292.601 274.752C292.643 275.611 292.507 276.382 292.148 276.518C292.101 276.653 291.465 276.788 290.288 277.018C289.111 277.242 287.747 277.518 286.299 277.742C284.846 277.971 283.398 278.106 282.085 278.242C280.814 278.377 280.044 278.33 279.861 278.195L279.814 277.377ZM280.997 254.304L280.632 248.549L288.658 247.736L289.018 253.492L280.997 254.304Z" fill="black"/>
<path d="M306.337 250.773C306.472 253.628 307.738 255.122 309.597 255.893C311.503 256.753 313.951 256.711 316.399 256.529C319.389 256.346 321.837 255.987 323.467 254.898C325.144 253.852 326.055 252.174 325.915 249.414C325.779 246.737 324.42 245.195 322.384 244.336C320.389 243.43 317.712 243.336 315.128 243.518C312.456 243.654 310.144 244.107 308.644 245.195C307.061 246.237 306.154 248.008 306.337 250.773ZM308.785 280.596C309.373 281.867 310.144 282.138 311.274 282.003C312.045 282.003 315.128 281.732 318.212 281.508C321.248 281.279 324.42 280.961 325.373 280.779C325.915 280.461 326.144 279.69 326.144 278.966C326.097 278.242 325.873 277.654 325.373 277.654L312.727 279.284C312.227 278.966 311.821 278.602 311.592 278.107C311.368 277.607 311.545 277.289 312.227 277.154C312.363 277.107 313.087 276.971 314.493 276.836C315.852 276.7 317.305 276.518 318.936 276.294C320.566 276.065 322.019 275.841 323.378 275.565C324.738 275.341 325.555 275.023 325.738 274.659C326.144 273.753 326.144 272.305 325.915 271.034C325.597 269.628 325.191 268.539 324.785 268.18C324.691 268.133 324.42 268.133 324.014 268.133H322.384C321.066 268.18 319.342 268.268 317.623 268.404C315.811 268.586 313.951 268.674 312.592 268.857L309.597 269.174C308.873 269.174 308.602 269.945 308.602 270.716C308.602 271.487 308.92 272.211 309.326 272.169L321.972 270.945L322.066 271.216L322.201 271.852C322.243 272.258 322.384 272.846 322.066 273.075C322.019 273.211 321.248 273.253 319.936 273.393C318.665 273.57 317.076 273.664 315.357 273.888C313.68 274.07 311.863 274.299 310.503 274.523C309.191 274.753 308.102 275.07 307.785 275.294C307.149 275.7 307.243 276.7 307.602 277.789C307.967 278.878 308.42 280.008 308.785 280.596ZM329.134 259.7C328.045 260.018 326.368 260.289 324.102 260.565L316.941 261.242C314.404 261.471 311.956 261.607 309.644 261.742C307.331 261.831 305.607 261.878 304.43 261.831C304.066 261.878 303.795 262.06 303.748 262.419C303.613 262.784 303.613 263.19 303.706 263.602C303.889 264.461 304.384 265.232 305.201 265.185C306.378 265.185 308.238 265.143 310.462 264.961C312.727 264.825 315.264 264.643 317.759 264.414C320.248 264.237 322.743 263.961 324.738 263.737C326.779 263.508 328.41 263.19 329.316 262.966C329.904 262.784 330.04 261.924 329.998 261.154C329.951 260.383 329.545 259.7 329.134 259.7ZM316.581 253.398C314.857 253.581 313.316 253.581 312.139 253.174C310.821 252.857 310.144 251.997 310.097 250.497C310.05 248.956 310.368 247.961 311.139 247.555C311.91 247.143 313.316 246.825 315.217 246.69C319.618 246.331 322.154 246.555 322.29 249.414C322.337 252.357 320.524 253.174 316.581 253.398Z" fill="black"/>
<path d="M348.667 279.873C349.302 281.279 350.073 281.597 351.208 281.462C351.932 281.462 355.057 281.326 358.094 281.008C361.177 280.779 364.307 280.462 365.214 280.144C365.802 279.826 365.984 279.061 365.984 278.331C365.938 277.607 365.667 276.972 365.125 276.972L352.656 278.561C352.068 278.243 351.661 277.79 351.432 277.154C351.208 276.566 351.432 276.16 352.068 275.977C352.203 275.93 352.974 275.883 354.333 275.748C355.693 275.613 357.187 275.43 358.776 275.206C360.365 274.977 361.859 274.753 363.219 274.436C364.578 274.118 365.396 273.753 365.62 273.347C366.031 272.305 366.031 270.717 365.714 269.311C365.484 267.863 364.984 266.639 364.625 266.321C364.443 266.274 363.536 266.227 362.224 266.227C360.906 266.274 359.094 266.368 357.417 266.503L354.786 266.686C353.88 266.727 353.109 266.821 352.432 266.91L349.437 267.227C348.667 267.227 348.396 268.087 348.396 268.857C348.396 269.722 348.714 270.446 349.167 270.399L361.724 269.175L361.906 269.446L362.083 270.175C362.13 270.717 362.224 271.352 361.859 271.67C361.812 271.805 361.042 271.894 359.729 272.076C358.552 272.258 356.875 272.441 355.193 272.623C353.474 272.847 351.75 273.076 350.391 273.3C349.078 273.529 347.99 273.8 347.672 274.024C347.083 274.571 347.083 275.613 347.443 276.837C347.807 277.925 348.307 279.149 348.667 279.873ZM352.156 243.748C350.932 243.748 349.667 243.79 348.396 243.837C345.812 244.019 343.411 244.243 343 244.743C342.729 245.107 342.641 246.055 342.641 247.555C342.682 249.05 342.729 250.639 342.818 252.404C342.958 254.17 343.047 255.805 343.182 257.389L343.453 260.566C343.589 262.331 344.042 262.785 345.63 262.785C347.672 262.738 349.437 262.649 350.891 262.514C352.432 262.378 354.109 262.014 356.057 261.472C356.734 261.29 357.01 260.519 357.01 259.748C357.01 259.024 356.646 258.295 356.057 258.295C354.016 258.66 351.979 258.977 350.437 259.113C348.76 259.295 347.672 259.248 347.307 258.889C347.172 258.842 346.99 258.253 346.854 257.165C346.719 256.076 346.63 254.899 346.536 253.581C346.312 250.91 346.312 248.326 346.583 248.008C346.99 247.508 348.443 247.373 350.12 247.238C351.797 247.191 353.562 247.238 354.651 247.238C355.24 247.238 355.51 246.331 355.557 245.467C355.557 244.607 355.375 243.748 354.969 243.748H352.156ZM364.172 253.311C364.354 254.717 364.49 256.441 364.531 257.842C364.578 259.248 364.625 260.519 364.625 261.107C364.625 261.696 365.438 262.061 366.302 262.014C367.208 261.967 368.068 261.514 368.203 260.566C368.385 258.795 368.161 255.17 367.932 251.545C367.708 248.05 367.297 244.607 367.255 243.337C367.208 242.795 366.208 242.524 365.26 242.66C364.354 242.701 363.401 243.019 363.401 243.566C363.401 244.107 363.49 245.014 363.625 246.102C363.672 247.191 363.807 248.415 363.854 249.686L354.286 251.045C353.609 251.045 353.745 254.67 354.651 254.67L364.172 253.311Z" fill="black"/>
<path d="M395.265 255.352C395.265 256.664 395.4 258.659 395.447 260.289C395.583 261.966 395.629 263.419 395.629 263.779C395.765 264.279 396.624 264.461 397.577 264.279C398.348 264.096 399.301 263.602 399.301 262.695L399.072 258.706C398.984 256.846 398.848 254.898 398.708 252.857L398.254 247.19C398.119 245.466 397.984 244.336 397.848 243.836C397.666 243.154 396.76 242.93 395.947 242.93C395.176 242.977 394.265 243.294 394.223 243.836L394.765 252.086C392.093 252.945 389.416 253.445 387.697 253.492L387.468 253.628L387.556 252.768C387.786 251.268 387.968 249.867 388.01 248.549C387.786 247.419 387.103 246.966 385.385 247.143C384.52 247.19 382.301 247.326 379.989 247.508C377.676 247.69 375.275 247.961 374.004 248.19C373.416 248.326 373.234 249.138 373.28 250.003C373.327 250.862 373.598 251.586 374.322 251.544L384.114 250.591C383.978 252.357 383.749 253.992 383.39 255.622L377.676 256.258C375.911 256.44 374.64 256.529 374.275 256.529C373.78 256.576 373.504 257.346 373.64 258.117C373.687 258.888 374.004 259.701 374.687 259.701C376.588 259.836 379.353 259.43 382.254 258.888C381.484 260.654 380.53 262.419 379.218 263.872C379.036 264.279 379.489 264.867 380.124 265.367C380.666 265.773 381.484 266.049 382.03 265.638C384.202 263.237 385.655 260.289 386.562 257.253L387.103 255.393C387.15 255.711 387.239 255.987 387.379 256.258C387.556 256.576 387.786 256.753 388.103 256.711C389.598 256.664 392.364 256.211 395.265 255.352ZM378.265 274.477C378.536 274.477 379.718 274.341 381.077 274.164L386.109 273.664C387.015 273.57 387.833 273.482 388.739 273.435L391.051 273.299C392.411 273.253 393.452 273.346 393.676 273.529L393.588 278.56C393.588 279.102 394.312 279.195 395.218 279.06C395.989 279.013 396.853 278.602 396.895 278.195C397.03 277.471 397.171 275.565 397.171 273.753C397.171 271.893 397.03 270.216 396.624 269.992C396.218 269.857 394.994 269.81 393.27 269.857C391.593 269.898 389.416 269.992 387.333 270.128C385.202 270.31 382.978 270.534 381.301 270.716C379.536 270.945 378.176 271.122 377.765 271.305C377.359 271.487 377.223 272.305 377.405 273.029C377.541 273.799 377.859 274.477 378.265 274.477Z" fill="black"/>
<path d="M434.522 245.603C434.205 245.061 433.251 244.925 432.345 245.108C431.392 245.29 430.621 245.696 430.757 246.42L431.121 251.269C431.304 253.675 431.439 256.8 431.621 259.931C431.804 263.149 431.939 266.274 431.981 268.993C432.028 271.717 432.074 273.889 432.028 275.024C432.028 275.884 432.751 276.248 433.658 276.248C434.475 276.248 435.382 275.842 435.699 275.113L435.611 260.925L439.824 260.155C440.189 260.155 440.324 259.931 440.371 259.613C440.413 259.478 440.413 259.295 440.413 259.113V258.571C440.278 257.8 439.824 257.071 439.46 257.118L435.335 257.754C435.064 256.076 434.929 253.358 434.793 250.863L434.522 245.603ZM416.934 250.774C416.887 251.545 416.934 254.399 416.981 257.436C416.981 260.472 417.022 263.509 417.022 264.644L411.403 268.54C411.22 269.04 411.767 269.629 412.491 270.129C413.215 270.629 414.033 270.899 414.257 270.67L419.246 268.045L426.861 270.04C427.267 270.399 428.038 270.04 428.809 269.493C429.444 268.951 430.033 268.222 429.715 267.681L420.965 264.326C420.788 263.373 420.694 260.337 420.653 257.389C420.606 255.894 420.606 254.535 420.606 253.264V250.681C420.47 250.092 419.606 249.821 418.658 249.821C417.751 249.868 416.934 250.228 416.934 250.774Z" fill="black"/>
<path d="M454.281 251.633C454.099 250.498 453.422 250.091 451.698 250.138C450.839 250.274 449.068 250.362 447.208 250.545C445.354 250.727 443.401 250.951 442.135 251.18C441.635 251.227 441.5 252.133 441.5 252.992C441.547 253.763 441.771 254.623 442.495 254.581L450.385 253.675C450.203 258.206 450.156 261.607 449.615 264.326C449.068 266.998 448.161 269.086 446.531 270.946C446.349 271.352 446.849 271.987 447.484 272.487C448.073 272.894 448.844 273.211 449.385 272.711C451.609 270.31 452.786 267.409 453.51 263.92C454.099 260.425 454.281 256.347 454.281 251.633ZM467.563 245.966C467.521 245.466 466.521 245.289 465.568 245.425C464.62 245.56 463.755 245.966 463.802 246.69C463.938 247.373 464.12 249.185 464.255 251.722C464.438 254.263 464.573 257.435 464.755 260.701C464.932 263.92 464.979 267.18 465.026 269.857C465.073 272.529 465.026 274.524 464.979 275.295C464.979 276.065 465.615 276.565 466.432 276.612C467.245 276.748 468.063 276.43 468.469 275.565C468.604 275.206 468.651 273.3 468.651 270.628C468.651 267.904 468.604 264.55 468.469 261.06L468.016 251.404C467.833 248.644 467.698 246.649 467.563 245.966Z" fill="black"/>
<path d="M496.172 245.603C495.854 245.061 494.901 244.925 493.995 245.108C493.042 245.29 492.271 245.696 492.406 246.42L492.771 251.269C492.953 253.675 493.089 256.8 493.271 259.931C493.453 263.149 493.589 266.274 493.63 268.993C493.677 271.717 493.724 273.889 493.677 275.024C493.677 275.884 494.401 276.248 495.307 276.248C496.125 276.248 497.031 275.842 497.349 275.113L497.26 260.925L501.474 260.155C501.839 260.155 501.974 259.931 502.021 259.613C502.063 259.478 502.063 259.295 502.063 259.113V258.571C501.927 257.8 501.474 257.071 501.109 257.118L496.984 257.754C496.714 256.076 496.578 253.358 496.443 250.863L496.172 245.603ZM485.109 251.634C484.927 250.498 484.25 250.092 482.526 250.139C481.667 250.274 479.896 250.363 478.036 250.545C476.182 250.728 474.229 250.951 472.964 251.181C472.464 251.228 472.328 252.134 472.328 252.993C472.375 253.764 472.599 254.623 473.323 254.582L481.214 253.675C481.031 258.207 480.984 261.608 480.443 264.326C479.896 266.998 478.99 269.087 477.359 270.946C477.177 271.353 477.677 271.988 478.312 272.488C478.901 272.894 479.672 273.212 480.214 272.712C482.437 270.311 483.615 267.41 484.339 263.92C484.927 260.425 485.109 256.347 485.109 251.634Z" fill="black"/>
<path d="M516.793 260.153C516.834 261.471 517.334 262.059 518.287 261.924C519.235 261.965 522.73 261.695 526.173 261.335L531.069 260.788C532.61 260.564 533.605 260.382 534.105 260.247C535.465 260.018 535.741 259.247 535.965 257.663C535.782 256.122 535.782 247.778 535.423 246.236C535.376 245.919 534.517 245.83 533.652 245.877C532.746 245.919 531.886 246.195 531.886 246.689L531.84 249.867L520.053 251.268L519.376 246.601C519.376 245.919 518.605 245.919 517.699 246.101C516.746 246.283 515.928 246.736 515.704 247.054C515.522 249.184 515.746 251.721 516.11 254.127C516.334 256.481 516.746 258.747 516.793 260.153ZM538.23 271.304C538.819 271.262 539.095 270.398 539.095 269.538C539.095 268.674 538.819 267.903 538.23 268.085C535.282 268.403 530.845 268.814 526.308 269.174C521.866 269.538 517.381 269.856 514.386 270.038C513.709 270.174 513.392 270.945 513.433 271.804C513.48 272.528 513.886 273.299 514.48 273.252L525.084 272.71V276.471C525.084 277.335 525.131 277.877 525.267 278.465C525.449 279.195 526.308 279.465 527.261 279.419C528.168 279.419 529.074 279.012 529.074 278.288C528.709 277.242 528.621 275.023 528.756 272.169L538.23 271.304ZM532.069 257.299L520.553 258.794L520.053 254.304L532.157 252.809L532.069 257.299Z" fill="black"/>
<path d="M549.384 270.763C548.931 271.487 548.796 273.028 548.749 274.617C548.702 276.2 548.796 277.924 548.843 279.013C548.66 279.601 549.384 280.778 550.697 280.419C552.056 280.372 555.004 280.101 557.952 279.872C560.806 279.554 563.619 279.283 564.931 278.919C566.655 278.377 567.332 278.06 567.332 276.971C567.332 276.429 567.332 274.617 567.155 272.846C566.973 271.08 566.655 269.445 566.249 269.086C565.52 268.903 562.259 269.039 558.676 269.403C556.817 269.539 555.051 269.763 553.28 269.992C551.561 270.216 550.202 270.492 549.384 270.763ZM555.369 246.601C554.233 246.601 551.379 246.737 548.613 246.919C545.848 247.143 543.218 247.461 542.765 248.007C542.358 248.731 542.541 251.362 542.765 254.127C543.082 256.846 543.447 259.653 543.494 260.742C543.671 262.513 544.124 262.966 545.712 262.966C549.791 262.966 553.28 262.83 557.093 261.742C557.817 261.56 558.087 260.836 558.087 260.065C558.087 259.341 557.723 258.658 557.093 258.658C555.098 258.976 552.874 259.294 551.108 259.429C549.296 259.612 547.978 259.518 547.619 259.158C547.301 259.023 546.983 257.117 546.619 255.169C546.395 253.221 546.212 251.268 546.436 250.95C546.89 250.455 548.66 250.273 550.561 250.226C552.374 250.179 554.28 250.179 555.186 250.138C555.728 250.138 556.093 249.273 556.181 248.367C556.228 247.507 555.91 246.648 555.369 246.601ZM565.973 244.56C565.613 244.018 564.749 243.924 563.843 244.106C563.03 244.336 562.301 244.83 562.483 245.695C562.666 246.783 562.983 250.091 563.348 253.716C563.666 257.388 563.89 261.377 564.025 263.601C563.89 264.461 564.613 264.731 565.384 264.731C566.202 264.731 567.108 264.461 567.332 263.778C567.473 263.013 567.515 261.966 567.515 260.742C567.515 259.612 567.426 258.252 567.426 256.846L571.598 256.075C572.14 255.846 572.14 255.033 571.957 254.304C571.822 253.539 571.322 252.992 570.916 252.992L567.155 253.674C566.973 252.45 566.791 250.362 566.567 248.549C566.426 246.69 566.155 245.06 565.973 244.56ZM552.103 276.612V275.612C552.103 274.658 552.197 273.57 552.421 273.164C552.692 273.117 553.374 272.981 554.504 272.846C555.686 272.664 556.863 272.487 558.134 272.346C560.582 272.033 562.936 271.851 563.072 272.169C563.483 272.487 563.666 273.299 563.707 274.164C563.707 275.023 563.619 275.794 563.301 275.976C563.254 276.158 560.582 276.7 557.905 277.065C556.546 277.242 555.322 277.377 554.145 277.471C552.968 277.606 552.285 277.56 552.15 277.424L552.103 276.612Z" fill="black"/>
<path d="M583.964 247.143C583.922 247.872 583.875 249.413 583.875 250.997C583.875 252.585 583.828 254.304 583.787 255.439L575.037 259.882C574.719 260.424 575.354 261.059 576.078 261.559C576.849 262.101 577.667 262.419 577.979 262.101L586.005 259.158L597.974 260.835C598.469 261.242 599.287 260.835 600.011 260.247C600.599 259.564 601.146 258.794 600.74 258.294L588 255.622C587.818 254.58 587.771 252.768 587.771 251.132C587.771 249.455 587.729 247.872 587.729 246.965C587.682 246.372 586.729 246.101 585.823 246.148C584.917 246.195 583.964 246.601 583.964 247.143ZM601.234 270.58C600.104 270.945 598.245 271.262 596.021 271.486C593.755 271.804 591.172 271.986 588.542 272.21C585.917 272.439 583.24 272.575 580.974 272.71C578.75 272.846 576.802 272.893 575.625 272.893C574.854 272.939 574.672 273.846 574.854 274.752C574.99 275.658 575.531 276.471 576.302 276.335C577.484 276.382 579.479 276.335 581.792 276.158C584.193 276.018 586.823 275.84 589.448 275.611C592.078 275.429 594.62 275.158 596.75 274.84C598.88 274.617 600.464 274.34 601.37 274.023C602.505 273.663 602.052 270.58 601.234 270.58Z" fill="black"/>
<path d="M630.252 274.842C630.252 273.889 630.252 272.847 630.205 271.758C630.205 269.54 630.117 267.451 629.934 266.774C629.799 266.639 629.028 266.686 628.122 266.727C627.351 266.863 626.492 267.045 626.492 267.409L626.674 270.399L615.565 271.217L615.247 268.633C615.205 268.133 614.341 268.087 613.434 268.269C612.481 268.451 611.575 268.857 611.575 269.269L612.846 279.514C612.846 280.055 612.981 280.238 613.528 280.238C615.023 280.102 618.242 280.008 621.413 279.826C624.544 279.649 627.533 279.42 628.71 279.014C630.205 278.649 630.299 277.79 630.252 276.883V274.842ZM605.684 261.019C605.731 262.873 606.502 263.555 608.721 263.42C609.721 263.373 611.71 263.238 613.663 263.055C615.611 262.873 617.606 262.738 618.742 262.378C619.466 262.014 619.783 261.29 619.783 260.607C619.783 260.019 619.507 259.43 618.919 259.43C617.242 259.795 614.976 260.113 613.163 260.29C611.257 260.472 609.762 260.425 609.58 259.883C609.221 259.519 608.721 258.389 609.268 257.118C609.856 256.618 611.669 256.394 613.57 256.165C615.523 255.988 617.471 255.712 618.559 255.17C619.148 254.805 619.507 252.175 619.554 249.503C619.601 248.191 619.554 246.967 619.419 245.878C619.283 244.743 619.101 244.154 618.742 244.019C617.653 243.837 615.023 244.019 612.393 244.243C609.762 244.472 607.226 244.878 606.455 245.107C605.413 245.784 605.549 248.503 606.273 248.368C607.226 248.191 609.403 247.779 611.44 247.462C613.481 247.279 615.247 247.008 615.658 247.373C615.976 247.779 616.018 249.05 615.976 250.321C615.841 251.451 615.476 252.675 614.887 252.722C612.981 253.222 611.575 253.357 610.262 253.54C608.95 253.717 607.726 253.899 606.361 254.399C605.773 254.717 605.596 255.941 605.549 257.253C605.502 258.659 605.549 260.113 605.684 261.019ZM627.622 256.076C627.757 256.753 627.851 257.665 627.898 258.795C627.94 259.883 627.986 260.743 627.986 261.378C627.986 261.967 628.846 262.331 629.752 262.284C630.523 262.243 631.429 261.79 631.57 260.743C631.747 259.066 631.523 255.305 631.294 251.633C631.07 248.05 630.658 244.519 630.617 243.248C630.57 242.701 629.617 242.43 628.669 242.566C627.716 242.613 626.762 242.977 626.762 243.519C626.762 244.019 626.898 245.649 627.08 247.42L627.304 250.139L627.445 252.451L620.778 253.311C620.419 253.357 620.325 254.305 620.372 255.217C620.419 256.123 620.643 256.982 621.143 256.936L627.622 256.076ZM626.58 276.43L616.2 277.066L615.747 274.206L626.58 273.618V276.43Z" fill="black"/>
<path d="M648.563 250.321C647.251 250.139 644.303 250.139 641.49 250.457C638.725 250.681 636.141 251.092 635.782 251.634C635.506 251.998 635.464 253.222 635.506 254.806C635.553 256.394 635.782 258.478 635.964 260.472C636.459 264.55 636.871 268.722 637.006 269.811C637.183 271.488 637.641 272.035 639.225 271.853C641.449 271.717 643.032 271.759 644.574 271.576C646.069 271.441 647.657 271.217 649.97 270.493C650.647 270.311 651.011 269.446 651.058 268.675C651.058 267.905 650.694 267.181 650.152 267.228C648.246 267.634 646.027 267.998 644.303 268.181C642.532 268.363 641.131 268.405 640.766 268.045C640.584 267.998 640.449 267.181 640.225 265.915C640.042 264.644 639.86 263.056 639.725 261.472C639.542 259.884 639.454 258.254 639.407 256.983V255.488C639.407 255.076 639.454 254.853 639.542 254.764C639.949 254.264 641.673 254.035 643.485 253.993C645.391 253.853 647.292 253.899 648.563 253.853C649.334 253.853 649.652 253.082 649.652 252.222C649.652 251.363 649.334 250.498 648.563 250.321ZM658.537 245.603C658.22 245.061 657.266 244.925 656.36 245.108C655.407 245.29 654.636 245.696 654.772 246.42L655.136 251.269C655.319 253.675 655.454 256.8 655.636 259.931C655.819 263.149 655.954 266.274 655.996 268.993C656.042 271.717 656.089 273.889 656.042 275.024C656.042 275.884 656.766 276.248 657.673 276.248C658.49 276.248 659.397 275.842 659.714 275.113L659.626 260.925L663.839 260.155C664.204 260.155 664.339 259.931 664.386 259.613C664.428 259.478 664.428 259.295 664.428 259.113V258.571C664.292 257.8 663.839 257.071 663.475 257.118L659.35 257.754C659.079 256.076 658.944 253.358 658.808 250.863L658.537 245.603Z" fill="black"/>
<path d="M669.911 247.462C668.281 247.644 667.193 247.873 666.963 250.045C666.786 251.092 666.875 253.899 667.057 256.8C667.239 259.748 667.463 262.738 667.828 263.873C667.828 265.368 668.37 265.597 669.641 265.462C670.635 265.462 672.766 265.279 674.807 265.05C676.802 264.826 678.844 264.597 679.792 264.238C680.88 264.008 681.109 263.055 681.062 262.196V261.243L681.151 261.561C681.292 261.878 681.427 262.014 681.609 262.014C682.333 262.149 683.917 262.014 685.505 261.831C687 261.649 688.677 261.337 689.859 261.107L690.172 266.863C690.354 267.41 691.307 267.592 692.213 267.41C693.167 267.227 694.026 266.821 694.026 265.915C693.984 265.003 693.937 263.238 693.802 261.196C693.755 259.16 693.62 256.712 693.391 254.352C693.255 251.998 693.073 249.639 692.937 247.779C692.76 245.967 692.62 244.561 692.484 244.019C692.302 243.337 691.443 243.154 690.489 243.154C689.583 243.201 688.677 243.472 688.677 244.019L689.088 249.415C688.135 249.774 686.641 250.003 685.141 250.139C683.599 250.274 682.239 250.321 681.516 250.321C681.333 250.363 681.198 250.545 681.151 250.91L681.062 251.269C681.062 250.91 681.062 250.545 681.016 250.227C680.88 248.821 680.656 247.738 680.385 247.326C679.885 246.967 677.573 246.92 675.172 247.055C672.766 247.191 670.453 247.42 669.911 247.462ZM692.667 275.206C692.031 275.389 690.766 275.524 689.266 275.66L684.01 276.066C682.286 276.248 680.562 276.337 679.25 276.383C677.937 276.519 677.12 276.472 677.12 276.43C676.667 276.066 676.396 275.16 676.349 274.253C676.302 273.847 676.26 273.436 676.26 273.029V272.17C676.26 271.852 675.349 271.758 674.401 271.894C673.495 272.035 672.542 272.394 672.495 272.982C672.448 273.889 672.542 275.389 672.724 276.79C672.948 278.196 673.266 279.467 673.812 279.785C673.989 279.826 675.172 279.826 676.802 279.785C678.526 279.738 680.698 279.602 682.875 279.42C685.099 279.373 687.318 279.149 689.177 278.967C690.989 278.743 692.349 278.514 692.937 278.29C693.302 278.107 693.391 277.337 693.349 276.613C693.213 275.842 692.984 275.206 692.667 275.206ZM671.859 250.68C672.271 250.68 673.354 250.545 674.489 250.498C675.625 250.456 676.713 250.456 677.12 250.68C677.526 250.998 677.708 253.581 677.708 256.258C677.661 258.93 677.391 261.472 676.984 261.649L671.677 262.514L671 261.561L670.547 251.816C670.5 251.269 670.682 251.092 671 250.91C671.271 250.774 671.677 250.727 671.859 250.68ZM689.859 257.842C688.588 258.342 686.818 258.524 685.141 258.66C683.463 258.842 681.969 258.889 681.245 258.889L681.151 258.977V255.17C681.151 254.305 681.151 253.493 681.109 252.628V252.357L681.292 253.128C681.38 253.446 681.516 253.581 681.698 253.581C683.422 254.081 686.458 253.54 689.448 252.811L689.859 257.842Z" fill="black"/>
<path d="M66.2109 28.4688H127.669V37.3646H102.128V40.1979H109.44C111.576 40.1979 113.544 40.3542 115.336 40.6563C117.128 40.9479 118.654 41.5052 119.919 42.3229C121.195 43.1458 122.18 44.2917 122.878 45.7604C123.57 47.2188 123.919 49.1458 123.919 51.5313C123.919 53.9375 123.57 55.875 122.878 57.3646C122.18 58.8646 121.195 60.0208 119.919 60.8438C118.654 61.6615 117.128 62.2031 115.336 62.4688C113.544 62.7448 111.576 62.8854 109.44 62.8854H84.5026C82.3047 62.8854 80.3255 62.7448 78.5651 62.4688C76.7995 62.2031 75.2786 61.6615 74.0026 60.8438C72.737 60.0208 71.7578 58.8646 71.0651 57.3646C70.3672 55.875 70.0234 53.9375 70.0234 51.5313C70.0234 49.1458 70.3672 47.2188 71.0651 45.7604C71.7578 44.2917 72.737 43.1458 74.0026 42.3229C75.2786 41.5052 76.7995 40.9479 78.5651 40.6563C80.3255 40.3542 82.3047 40.1979 84.5026 40.1979H91.7526V37.3646H66.2109V28.4688ZM70.0234 1.59375H123.919V10.4688H102.128C102.221 11.7604 102.482 12.8229 102.898 13.6563C103.326 14.4792 103.94 15.125 104.732 15.5938C105.534 16.0677 106.508 16.3958 107.648 16.5729C108.784 16.7396 110.133 16.8229 111.69 16.8229H123.857V25.6979H110.044C107.003 25.6979 104.346 25.2917 102.086 24.4688C99.8203 23.651 98.0911 22.5208 96.8984 21.0729C95.7422 22.5208 94.0339 23.651 91.7734 24.4688C89.5078 25.2917 86.862 25.6979 83.8359 25.6979H70.0234V16.8229H82.1901C85.1745 16.8229 87.4609 16.4271 89.0443 15.6354C90.638 14.8333 91.513 13.1094 91.6693 10.4688H70.0234V1.59375ZM113.544 51.5313C113.544 50.3958 113.232 49.6979 112.607 49.4479C111.992 49.1979 111.034 49.0729 109.732 49.0729H84.2109C82.9036 49.0729 81.9401 49.1979 81.3151 49.4479C80.7005 49.6979 80.3984 50.3958 80.3984 51.5313C80.3984 52.6875 80.7005 53.3854 81.3151 53.6354C81.9401 53.8854 82.9036 54.0104 84.2109 54.0104H109.732C111.034 54.0104 111.992 53.8854 112.607 53.6354C113.232 53.3854 113.544 52.6875 113.544 51.5313Z" fill="black"/>
<path d="M182.966 45.1146V16.7396C182.966 15.5052 182.888 14.4792 182.737 13.6563C182.596 12.8229 182.299 12.1719 181.841 11.6979C181.393 11.2292 180.763 10.9063 179.945 10.7396C179.122 10.5625 178.039 10.4688 176.695 10.4688H140.924V1.59375H178.049C181.076 1.59375 183.576 1.88021 185.549 2.44792C187.518 3.02083 189.076 3.89583 190.216 5.07292C191.352 6.23958 192.159 7.70833 192.633 9.46875C193.102 11.2344 193.341 13.3385 193.341 15.7813V45.1146H182.966ZM136.383 54.0104H157.445V31.3021H167.82V54.0104H197.841V62.8854H136.383V54.0104Z" fill="black"/>
<path d="M234.419 62.9688V16.7396C234.419 15.5052 234.341 14.4792 234.19 13.6563C234.034 12.8229 233.737 12.1719 233.294 11.6979C232.846 11.2292 232.211 10.9063 231.378 10.7396C230.555 10.5625 229.482 10.4688 228.148 10.4688H207.086V1.59375H229.482C232.523 1.59375 235.023 1.88021 236.982 2.44792C238.951 3.02083 240.508 3.89583 241.648 5.07292C242.799 6.23958 243.612 7.70833 244.086 9.46875C244.555 11.2344 244.794 13.3385 244.794 15.7813V62.9688H234.419ZM247.482 25.8646H255.69V0.84375H266.065V62.9688H255.69V34.7396H247.482V25.8646Z" fill="black"/>
<path d="M326.091 34.7396H321.674V62.9688H311.529V0.84375H321.674V25.8646H326.091V0.84375H336.237V62.9688H326.091V34.7396ZM296.674 26.9688V10.4688H278.008V1.59375H307.049V35.8646H288.383V45.1979C288.383 46.9896 288.555 48.4635 288.904 49.6146C289.247 50.7552 289.805 51.6563 290.57 52.3229C291.346 52.9896 292.331 53.4479 293.529 53.6979C294.721 53.9479 296.164 54.0729 297.862 54.0729H307.799V62.9688H297.799C294.56 62.9688 291.706 62.7292 289.237 62.2604C286.779 61.7865 284.716 60.9531 283.049 59.7604C281.383 58.5625 280.122 56.9167 279.279 54.8229C278.43 52.7396 278.008 50.0521 278.008 46.7604V26.9688H296.674Z" fill="black"/>
</svg>
