<svg width="369" height="92" viewBox="0 0 369 92" fill="none" xmlns="http://www.w3.org/2000/svg">
<mask id="mask0_87_13584" style="mask-type:luminance" maskUnits="userSpaceOnUse" x="0" y="0" width="369" height="92">
<path d="M368.664 0H0.664062V92H368.664V0Z" fill="white"/>
</mask>
<g mask="url(#mask0_87_13584)">
<mask id="mask1_87_13584" style="mask-type:luminance" maskUnits="userSpaceOnUse" x="2" y="1" width="367" height="91">
<path d="M2.14062 1.33398H368.141V91.0736H2.14062V1.33398Z" fill="white"/>
</mask>
<g mask="url(#mask1_87_13584)">
<path d="M361.896 70.8766C346.443 71.2516 331.068 71.3974 315.615 71.4755C301.662 70.9495 287.709 70.5745 273.682 70.1995C269.182 70.0485 264.755 69.9755 260.255 69.8245C271.057 70.0485 281.86 70.1995 292.662 70.3505C310.287 70.5745 327.844 70.6474 345.469 70.5016C347.193 70.5016 348.844 70.4235 350.568 70.4235C353.495 70.3505 356.344 67.8714 356.198 64.7985C356.047 61.7203 353.719 59.2464 350.568 59.1735C339.245 58.9495 327.917 58.7985 316.589 58.7203C316.589 58.5745 316.589 58.3453 316.589 58.1995C316.516 56.5485 315.917 55.1943 314.865 54.2203C318.391 53.9964 321.839 53.7724 325.365 53.5485C326.568 53.4703 327.766 53.3974 328.891 53.3193C332.417 53.3193 335.943 53.3974 339.469 53.3974C341.271 53.3974 343.068 53.3974 344.87 53.3974C347.797 53.3974 350.646 50.7724 350.495 47.7724C350.344 44.6214 348.021 42.2932 344.87 42.1422C344.646 42.1422 344.417 42.1422 344.193 42.1422C346.594 41.6214 348.693 39.0693 348.547 36.5953C348.396 33.2932 346.068 31.2672 342.917 30.9703C340.745 30.8193 338.568 30.5901 336.391 30.4443C336.693 29.8401 336.844 29.1682 336.844 28.4182C339.995 28.5693 343.146 28.6422 346.297 28.7932C348.172 28.8662 350.047 28.9443 351.922 29.0901C354.698 29.2412 357.094 26.8401 357.469 24.2151C357.844 21.4391 356.12 18.8141 353.422 18.0641C351.094 17.3922 348.844 16.788 346.521 16.2672C346.594 13.8662 345.021 11.012 342.469 10.637C326.115 8.24116 309.537 6.81408 293.037 5.68908C272.255 4.26199 251.479 3.36095 230.703 2.68908C208.349 2.01199 185.917 1.63699 163.563 1.48595C142.412 1.41304 121.182 1.56408 100.031 2.09012C83.0783 2.53804 66.1252 3.13699 49.245 4.48595C47.5939 4.63699 45.9481 4.78804 44.297 4.93908C41.745 5.16304 39.1929 6.81408 38.745 9.43908C38.5939 9.43908 38.37 9.43908 38.2189 9.51199C35.2918 9.74116 32.4429 11.913 32.5939 15.1422C32.6668 16.5641 33.1929 17.8401 34.021 18.8141C32.37 18.8922 30.6408 19.0432 28.995 19.1162C26.0679 19.3401 23.2189 21.5901 23.3647 24.7412C23.5158 27.8193 25.8439 30.2932 28.995 30.3662C36.1929 30.5172 43.396 30.7412 50.5939 30.8922C45.7189 31.1943 40.8439 31.5693 35.9689 31.9443C34.1668 32.0953 32.4429 32.2412 30.6408 32.3922C27.7189 32.6943 24.8647 34.7932 25.0158 38.0172C25.0939 39.5953 25.6929 40.8714 26.5939 41.8453C25.4689 42.8922 24.7918 44.3193 24.8647 45.8974C25.0158 49.1214 27.3439 51.2985 30.495 51.5224C32.8179 51.6735 35.146 51.8193 37.5418 51.9703C37.5418 52.1943 37.5418 52.3453 37.5418 52.5693C37.62 54.2203 38.2189 55.4964 39.12 56.3974C35.9689 56.6214 32.745 56.7724 29.5939 56.9964C27.87 57.1474 26.2189 57.2203 24.4897 57.3714C21.6408 57.5953 19.3908 59.3245 18.9429 62.2464C18.6408 64.2724 19.5418 66.3714 21.1929 67.5745C21.4897 67.9495 21.8647 68.3245 22.3179 68.6214C19.3908 68.5485 16.5418 68.5485 13.6147 68.4755C11.7397 68.4755 9.86474 68.3974 7.91683 68.3974C4.98974 68.3245 2.14079 71.0224 2.28662 74.0224C2.43766 77.1735 4.76579 79.5745 7.91683 79.6526C25.3179 80.1735 42.7189 80.6266 60.1252 81.0745C82.0262 81.6735 103.932 82.2776 125.906 82.8766C149.464 83.5537 173.016 84.3037 196.568 85.0537C218.922 85.8037 241.276 86.6266 263.63 87.6005C281.636 88.4287 299.714 89.3297 317.714 90.5276C319.516 90.6787 321.318 90.7516 323.115 90.9026C326.042 91.1266 328.891 88.1266 328.74 85.2776C328.74 84.5276 328.594 83.8505 328.292 83.2516C329.792 83.2516 331.365 83.3245 332.865 83.3245C333.917 83.3245 334.891 83.0276 335.792 82.5016C342.693 82.4235 349.594 82.3505 356.573 82.1995C358.37 82.1266 360.172 82.1266 361.974 82.0485C364.896 81.9755 367.75 79.5016 367.599 76.4235C367.375 73.5016 365.047 70.7255 361.896 70.8766ZM292.959 40.4964C271.13 40.0432 249.302 39.7464 227.474 39.5172C213.521 39.3714 199.495 39.2932 185.542 39.2203C184.641 39.2203 183.667 39.1422 182.766 39.1422C191.844 38.8453 200.844 38.5432 209.922 38.3193C212.547 38.3193 215.25 38.3193 217.875 38.3193C240 38.3922 262.13 38.6943 284.182 39.2932C302.037 39.8193 319.964 40.4182 337.818 41.6943C338.193 41.6943 338.568 41.7672 338.943 41.7672C323.568 41.2464 308.266 40.8714 292.959 40.4964Z" fill="#FCFBF8" fill-opacity="0.73"/>
</g>
</g>
<path d="M45.0119 56.5573C45.0119 58.1875 45.9077 58.9896 47.215 59.4688C48.4337 59.8854 50.0952 59.9479 51.6994 59.8177C53.6473 59.6927 55.3452 59.4688 56.465 58.8281C57.5535 58.2188 58.2254 57.2604 58.2254 55.6927C58.1316 54.1875 57.1681 53.1979 55.8244 52.5573C55.1212 52.2656 54.3191 52.0417 53.4598 51.9479C53.1369 51.9167 52.7879 51.8854 52.465 51.8854L52.6577 51.7865C52.8816 51.6927 53.0119 51.5313 52.9754 51.3698L52.6889 48.9375C54.0639 48.8125 55.4754 48.651 56.7879 48.4896C58.0952 48.3333 59.3139 48.2031 60.4962 47.9479C60.8816 47.8177 61.0744 47.2135 61.0744 46.6667C61.0744 46.1875 60.8816 45.6771 60.4962 45.8021C58.3556 46.1875 55.1837 46.5729 52.0171 46.8594C48.8504 47.1458 45.6837 47.4062 43.4441 47.4375C43.0587 47.4687 42.866 48.0104 42.991 48.526C43.09 49.0365 43.3452 49.5156 43.7619 49.4844C44.7514 49.5781 45.5848 49.5156 46.6108 49.4844L50.3869 49.1302V49.901C50.3869 50.125 50.3869 50.3177 50.4181 50.5104C50.4181 50.8594 50.5119 51.1458 50.5431 51.5C50.5431 51.6927 50.6733 51.8177 50.9285 51.8854C47.3452 52.0417 44.8816 53.4531 45.0119 56.5573ZM45.1369 36.6823C45.7775 36.6823 46.4806 36.651 47.2827 36.5573C48.0483 36.526 48.9129 36.4583 49.84 36.3646C49.8087 36.7813 49.7462 37.1615 49.7462 37.6458C49.715 38.125 49.6473 38.6354 49.6473 39.3073L43.3764 41.8021C43.2827 41.9948 43.3139 42.2188 43.4441 42.5104C43.5379 42.7969 43.6681 43.0521 43.8556 43.276C44.2098 43.7552 44.6577 44.1094 44.8191 43.8854L50.991 41.6146L58.2879 42.4427C58.6733 42.6979 59.1212 42.349 59.4077 41.8021C59.6994 41.2604 59.8556 40.5885 59.5691 40.3021L52.5639 39.4375C52.4337 38.7969 52.4337 38.2187 52.4337 37.7083C52.4337 37.1615 52.4962 36.6823 52.4962 36.1719C54.3191 36.0417 55.9858 35.9479 57.3608 35.8177C57.6473 35.7865 57.8087 35.1823 57.7775 34.5729C57.7775 33.9635 57.616 33.4219 57.2671 33.4219C56.5639 33.5156 54.1941 33.6458 51.6994 33.8698C49.1994 34.026 46.5796 34.2187 45.3921 34.3177C44.7879 34.349 44.5275 34.9583 44.4962 35.5C44.4962 36.1094 44.7202 36.6823 45.1369 36.6823ZM51.7619 57.6146C50.6108 57.6771 49.6473 57.6771 48.8504 57.5781C48.0796 57.4844 47.6681 57.099 47.6681 56.3646C47.5691 54.9896 48.3712 54.25 50.991 54.125C53.9077 53.8698 55.6004 54.6042 55.6994 55.7552C55.6994 57.1979 54.4181 57.4531 51.7619 57.6146Z" fill="black"/>
<path d="M80.884 37.1308C80.7902 36.3339 80.3059 36.0787 79.1236 36.1099L76.9465 36.2662L73.2381 36.5266C71.8579 36.6204 70.6131 36.7141 69.3631 36.8443C68.1809 36.9381 67.3475 37.037 66.8996 37.1308C66.5142 37.2297 66.3579 37.8026 66.4204 38.412C66.4204 38.9589 66.6131 39.5318 67.0923 39.5006L77.8111 38.6672L77.1704 45.4849C77.0454 46.2193 77.6861 46.511 78.3892 46.5422C79.0611 46.5422 79.7642 46.287 79.8579 45.8704L80.884 37.1308ZM65.2694 54.6672C64.8527 54.6985 64.66 55.3079 64.7902 55.9172C64.884 56.4589 65.1392 57.037 65.5246 57.0058C67.2538 57.0058 70.6131 56.8443 74.035 56.4901C77.4621 56.2037 80.9465 55.8183 82.9621 55.4381C83.3475 55.4068 83.5402 54.7349 83.5402 54.0943C83.509 53.4537 83.3475 52.8756 82.9621 53.0058C82.3267 53.162 80.7902 53.3235 78.9309 53.4849C77.0454 53.7089 74.8996 53.9329 73.1704 54.1881L72.9465 49.4849C72.9152 49.0683 72.3059 48.9745 71.634 49.0058C70.9621 49.0995 70.3579 49.3547 70.3579 49.6151L70.4829 54.511L65.2694 54.6672Z" fill="black"/>
<path d="M101.62 44.9368C101.719 45.0357 101.781 45.7076 101.88 46.6034C101.974 47.4993 101.974 48.7128 102.068 49.9003L102.167 53.2909C102.167 54.2857 102.198 54.9576 102.328 55.1138C102.328 55.2753 102.932 55.3066 103.573 55.1816C104.245 55.0513 104.885 54.7649 104.885 54.2493C104.724 53.7076 104.599 52.3326 104.5 50.5097C104.406 48.6816 104.313 46.4732 104.276 44.2024C104.245 42.0253 104.214 39.7857 104.214 38.0253C104.182 36.2649 104.182 34.9888 104.276 34.5097C104.313 34.1555 103.766 34.093 103.094 34.1243C102.484 34.218 101.844 34.4732 101.75 34.8586C101.719 35.0201 101.688 35.468 101.688 36.1399V38.3795C101.719 40.0409 101.781 41.8013 101.813 42.5722L98.4531 43.3378C97.4323 43.4993 96.6615 43.6295 96.276 43.6295C95.8958 43.6607 95.7656 44.2024 95.7969 44.7493C95.8281 45.2909 96.0521 45.8013 96.3438 45.8013C97.1406 45.8013 99.3802 45.5461 101.62 44.9368ZM94.0052 38.9888C93.8802 38.1868 93.3958 37.9003 92.1823 37.9316C91.5729 38.0253 90.3281 38.093 89.0156 38.218C87.7031 38.3482 86.3281 38.5097 85.4323 38.6659C85.0781 38.6972 84.9844 39.3378 84.9844 39.9472C85.0156 40.4888 85.1719 41.0982 85.6875 41.067L91.2552 40.4263C91.125 43.6295 91.0938 46.0253 90.7083 47.9472C90.3281 49.8378 89.6875 51.3066 88.5365 52.6191C88.4062 52.9055 88.7604 53.3534 89.2083 53.7076C89.6198 53.9941 90.1667 54.218 90.5521 53.8691C92.1198 52.1711 92.9479 50.1243 93.4635 47.6607C93.8802 45.1972 94.0052 42.317 94.0052 38.9888Z" fill="black"/>
<path d="M127.477 51.3705L127.316 45.2611C127.222 42.9903 127.154 40.7142 127.123 38.8288C127.092 37.0059 126.998 35.5632 126.998 35.0528C126.998 34.5424 126.326 34.3497 125.654 34.3497C125.045 34.3184 124.342 34.4747 124.342 34.7351L124.535 43.1153L121.331 43.8184L121.269 35.308C121.269 35.0528 120.597 34.959 119.956 35.084C119.316 35.2142 118.613 35.5319 118.613 36.0424C118.581 36.2351 118.55 36.6517 118.55 37.2611V39.5007C118.581 41.2611 118.675 43.5007 118.774 45.7715C118.899 48.0424 119.029 50.2872 119.222 52.1726C119.347 53.9955 119.508 55.4382 119.732 55.9486C119.732 56.3028 120.373 56.459 121.045 56.4278C121.686 56.4278 122.326 56.2038 122.326 55.8184L121.462 45.933L124.66 45.2611L125.014 54.5736C125.014 54.7976 125.555 54.9226 126.196 54.8913C126.837 54.8601 127.446 54.7351 127.477 54.3809V51.3705ZM107.764 52.683C107.795 53.9955 108.436 54.3809 110.003 54.2507C111.415 54.2194 113.686 54.0944 115.253 53.6153C115.764 53.3549 115.956 52.8757 115.956 52.3965C115.956 51.9799 115.701 51.5632 115.316 51.5632C114.644 51.6934 113.524 51.8549 112.566 51.9486C111.477 52.0788 110.581 52.1101 110.42 51.8184L110.357 49.2924C110.706 48.9382 111.701 48.8132 112.758 48.5892C113.779 48.4278 114.868 48.2663 115.67 47.8861C115.863 47.7559 116.05 47.0528 116.149 46.0267C116.274 45.0372 116.311 43.7247 116.311 42.4434C116.311 41.1309 116.243 39.8549 116.118 38.8601C116.019 37.933 115.863 37.2299 115.602 37.1309C114.837 37.0059 113.175 37.0059 111.54 37.1309C109.972 37.2611 108.373 37.4538 107.826 37.6153C107.446 37.8705 107.253 38.4747 107.285 39.0215C107.285 39.6309 107.508 40.0788 107.764 40.0424L110.967 39.5632C112.118 39.4382 113.107 39.3392 113.363 39.5632C113.587 39.8549 113.686 41.4226 113.654 42.959C113.623 44.4903 113.43 45.9642 113.014 46.0632C112.311 46.2195 111.347 46.3809 110.42 46.6049C109.524 46.7351 108.727 46.959 108.212 47.1153C107.826 47.2767 107.67 48.3965 107.639 49.5476C107.602 50.7976 107.67 52.0424 107.764 52.683Z" fill="black"/>
<path d="M145.284 34.1254C145.409 35.0213 145.44 36.49 145.409 37.615C143.971 37.7088 142.721 37.7713 141.794 37.8025C141.247 37.839 141.023 38.4431 141.023 39.0525C140.992 39.6931 141.216 40.2348 141.633 40.2348L145.471 39.9483V43.5004L141.57 45.2608C141.44 45.5473 141.539 46.1879 141.794 46.7348C142.018 47.2765 142.273 47.6931 142.56 47.5629L147.044 45.8025L151.456 47.2452C151.716 47.5004 152.096 47.0838 152.451 46.5421C152.836 45.9952 153.06 45.3233 152.836 45.0681L148.128 43.2452V39.8181C148.544 39.8181 149.216 39.7244 149.956 39.6931C150.659 39.5942 151.492 39.5004 152.164 39.3702C152.544 39.3702 152.643 38.766 152.612 38.2192C152.576 37.615 152.32 37.0681 151.971 37.0681C150.784 37.2921 149.409 37.391 148.065 37.4223C148.096 36.1723 148.003 35.3077 147.747 33.9952C147.617 33.3233 146.945 33.1306 146.148 33.2608C145.508 33.2921 145.284 33.964 145.284 34.1254ZM158.497 35.6306C158.466 35.214 157.763 35.0213 157.091 35.115C156.419 35.214 155.779 35.4692 155.904 35.9796C156.003 36.4588 156.065 37.5473 156.164 39.0525C156.258 40.5577 156.32 42.4119 156.352 44.3338C156.388 45.2921 156.388 46.2504 156.388 47.214V49.9015C156.388 51.5629 156.352 52.9744 156.32 53.74C156.32 54.3806 156.898 54.7348 157.539 54.8285C158.18 54.9223 158.784 54.7973 158.914 54.3181C159.008 54.0265 159.076 52.7817 159.076 51.0838C159.076 49.4223 159.008 47.2765 158.977 45.0994C158.883 42.9223 158.82 40.7817 158.721 39.0213C158.69 38.1567 158.628 37.4535 158.596 36.8442L158.497 35.6306ZM148.867 52.2348L148.93 49.6775C148.93 49.2921 148.388 49.1983 147.81 49.2296C147.268 49.2608 146.596 49.5473 146.435 50.0629L146.273 52.49L141.44 52.8129C141.091 52.8442 140.93 53.391 140.93 53.9327C140.93 54.4744 141.154 54.9588 141.57 54.9223C142.883 55.0213 145.539 54.8285 148.195 54.5733C150.852 54.3181 153.346 53.9327 154.273 53.6775C154.56 53.6463 154.659 53.0681 154.628 52.4588C154.596 51.9171 154.435 51.4067 154.049 51.4379L148.867 52.2348Z" fill="black"/>
<path d="M165.602 36.2344C165.571 36.75 165.633 38.3802 165.732 40.1406C165.763 41.901 165.857 43.6927 165.857 44.4896L162.529 47.5625C162.435 47.9167 162.852 48.3333 163.362 48.6823C163.873 49.0364 164.451 49.2292 164.581 49.0677L167.3 46.9896L173.732 48.5573C174.081 48.7135 174.466 48.3646 174.722 47.8542C174.977 47.3385 175.107 46.7344 174.852 46.3802L168.675 44.2344C168.545 43.5625 168.513 41.7708 168.482 40.0781C168.451 38.3802 168.388 36.7135 168.388 36.1094C168.357 35.724 167.68 35.5312 166.977 35.5625C166.305 35.5937 165.602 35.8542 165.602 36.2344ZM181.091 55.6302C180.643 55.7552 179.748 55.8542 178.69 55.9479L174.977 56.2344C173.763 56.3646 172.545 56.4271 171.617 56.4583C170.69 56.5573 170.112 56.526 170.112 56.4896C169.795 56.2344 169.602 55.5937 169.571 54.9583C169.539 54.6667 169.508 54.3802 169.508 54.0937V53.4844C169.508 53.2604 168.867 53.1979 168.196 53.2917C167.555 53.3906 166.883 53.6458 166.852 54.0625C166.821 54.6979 166.883 55.7552 167.008 56.75C167.17 57.7396 167.393 58.6354 167.779 58.8594C167.909 58.8906 168.737 58.8906 169.888 58.8594C171.107 58.8281 172.643 58.7344 174.18 58.6042C175.748 58.5729 177.315 58.4114 178.628 58.2864C179.909 58.125 180.867 57.9635 181.284 57.8021C181.539 57.6771 181.602 57.1302 181.571 56.6198C181.477 56.0781 181.315 55.6302 181.091 55.6302ZM179.779 34.125C179.617 33.8698 178.946 33.7708 178.305 33.901C177.701 34.0625 177.154 34.3802 177.253 34.9896C177.347 35.7552 177.539 37.9948 177.701 40.5885C177.795 43.1823 177.888 46.0625 177.763 47.9479C177.763 48.5573 178.336 48.8437 178.977 48.875C179.555 48.974 180.196 48.7135 180.321 48.3021C180.357 47.9479 180.42 47.0208 180.42 45.7708C180.451 44.526 180.388 42.9219 180.357 41.3542C180.321 39.7864 180.227 38.1875 180.133 36.9062C180.003 35.6302 179.909 34.6042 179.779 34.125Z" fill="black"/>
<path d="M188.612 59.2443C189.028 60.1714 189.57 60.4579 190.372 60.3641C190.914 60.3641 193.122 60.2339 195.299 60.01C197.409 59.885 199.648 59.661 200.32 59.437C200.706 59.1818 200.836 58.635 200.836 58.1245C200.804 57.6141 200.612 57.1975 200.258 57.1975L191.393 58.3173C191.044 58.062 190.721 57.7079 190.565 57.2912C190.403 56.8745 190.565 56.6193 191.044 56.4891C191.138 56.4579 191.648 56.3641 192.612 56.2652C193.601 56.1714 194.627 56.0777 195.778 55.9162C196.929 55.7548 197.956 55.562 198.914 55.3381C199.872 55.1141 200.45 54.8902 200.581 54.6037C200.867 53.9318 200.867 52.7808 200.643 51.7548C200.482 50.7339 200.096 49.8693 199.841 49.6141C199.778 49.5777 199.586 49.5777 199.268 49.5777H198.148C197.216 49.6141 195.971 49.6766 194.789 49.7704C193.57 49.9006 192.195 49.9631 191.237 50.0933L189.122 50.3173C188.612 50.3173 188.388 50.9214 188.388 51.4683C188.388 52.0777 188.643 52.5881 188.929 52.5568L197.857 51.6298L197.924 51.8537C197.987 52.01 198.049 52.1714 198.081 52.3641C198.117 52.7495 198.179 53.1975 197.924 53.3537C197.893 53.4839 197.346 53.5777 196.419 53.7079L193.185 54.0933C192.034 54.2183 190.752 54.411 189.794 54.5725C188.867 54.6975 188.133 54.8902 187.909 55.0516C187.461 55.437 187.523 56.2027 187.778 57.0673C188.034 57.8693 188.357 58.7339 188.612 59.2443ZM200.45 34.7339C200.32 33.9318 199.81 33.7079 198.627 33.7391L196.544 33.8693L193.028 34.1245L189.44 34.411C188.258 34.51 187.461 34.5725 187.044 34.6662C186.659 34.7652 186.528 35.3068 186.565 35.9162C186.596 36.4266 186.789 36.9735 187.299 36.937L197.633 36.1714L197.252 41.1298C197.122 41.7704 197.763 42.0933 198.435 42.0933C199.138 42.0933 199.841 41.8381 199.971 41.4214L200.45 34.7339ZM201.893 43.7548C200.289 44.1402 196.929 44.5568 193.601 44.937L188.768 45.4527L185.252 45.7391C184.674 45.7704 184.45 46.3485 184.544 46.8902C184.581 47.437 184.961 47.9787 185.508 47.9475C186.341 47.9475 187.554 47.885 189.122 47.7548C190.721 47.5933 192.388 47.437 194.081 47.2131C195.778 46.9891 197.377 46.7964 198.883 46.5725C200.388 46.3485 201.409 46.1558 202.018 45.9943C202.372 45.9006 202.596 45.2912 202.596 44.7495C202.596 44.1402 202.403 43.661 201.893 43.7548Z" fill="black"/>
<path d="M228.289 37.1292C228.196 36.3323 227.716 35.9782 226.529 36.1084L224.482 36.2334L220.93 36.4886L217.315 36.7803C216.196 36.874 215.393 36.973 214.946 37.0667C214.56 37.1605 214.404 37.7386 214.466 38.348C214.466 38.8896 214.659 39.4678 215.138 39.4365L225.216 38.6657L224.576 45.3532C224.451 46.0251 225.024 46.348 225.701 46.3792C226.404 46.3792 227.107 46.1553 227.232 45.6761L228.289 37.1292ZM230.821 51.8167C231.232 51.7855 231.362 51.1813 231.362 50.5719C231.331 49.9626 231.17 49.4209 230.753 49.5459C228.768 50.0251 225.44 50.3792 222.112 50.7334C218.784 51.0823 215.425 51.3063 213.315 51.4365C212.836 51.5303 212.612 52.0407 212.643 52.6501C212.675 53.1969 212.961 53.7073 213.378 53.6761L221.633 53.2907C221.539 55.7542 221.602 56.8428 221.701 57.7386C221.826 58.249 222.435 58.4417 223.076 58.4105C223.716 58.3792 224.258 58.0615 224.258 57.5459C224.128 56.8115 224.034 54.8896 224.128 52.874L230.821 51.8167Z" fill="black"/>
<path d="M243.265 36.8743C243.135 36.0774 242.656 35.8535 241.473 35.8847C240.833 35.916 239.614 35.9785 238.27 36.1087C236.958 36.2337 235.614 36.3951 234.718 36.5566C234.301 36.6503 234.176 37.2285 234.208 37.8378C234.239 38.442 234.432 38.9576 234.942 38.9212L240.223 38.442L239.01 48.4264C238.88 49.0983 239.489 49.3899 240.192 49.3899C240.833 49.3899 241.567 49.1608 241.661 48.7493L243.265 36.8743ZM249.661 43.3066C248.734 43.593 247.458 43.7858 246.301 43.8847C245.088 43.9785 244.031 44.041 243.52 44.041C243.265 44.1399 243.265 44.6191 243.296 45.1295C243.39 45.6139 243.52 46.1243 243.807 46.1243C244.895 46.317 247.999 45.7389 249.661 45.4837L249.854 48.4264C249.984 48.7805 250.624 48.9055 251.296 48.7805C251.838 48.6816 252.51 48.3951 252.51 47.7545C252.479 47.1139 252.447 45.9941 252.354 44.6816C252.317 43.3691 252.223 41.8014 252.093 40.3014C251.968 38.7649 251.869 37.291 251.744 36.1087C251.645 34.9212 251.583 33.9941 251.489 33.6139C251.39 33.1295 250.749 33.0045 250.077 33.0358C249.406 33.067 248.833 33.291 248.833 33.6764L249.057 37.3535C248.416 37.6139 247.296 37.7389 246.27 37.8378C245.182 37.9316 244.161 37.9941 243.645 37.9941C243.39 37.9941 243.359 38.5722 243.39 39.1139C243.421 39.7233 243.583 40.2337 243.869 40.2337C245.057 40.4889 247.234 40.2024 249.312 39.692L249.661 43.3066ZM245.15 56.6191C243.999 56.7128 243.01 56.7493 242.239 56.5253C241.536 56.3014 240.989 55.8847 240.989 54.9889C240.895 53.3222 241.76 52.4889 244.385 52.3639C247.296 52.1087 248.895 52.8743 248.989 54.3795C249.025 56.0774 247.807 56.4576 245.15 56.6191ZM238.333 55.1816C238.369 56.9368 239.265 57.8691 240.51 58.3795C241.791 58.7962 243.421 58.8587 245.025 58.7337C246.973 58.6035 248.64 58.3795 249.822 57.7076C250.911 57.067 251.583 56.0097 251.551 54.317C251.458 52.6816 250.463 51.593 249.119 50.9212C247.744 50.317 245.952 50.0618 244.255 50.1868C240.671 50.4108 238.208 51.817 238.333 55.1816Z" fill="black"/>
<path d="M266.144 38.9218C265.629 39.0207 265.056 39.0832 264.477 39.1145C263.936 39.2134 263.358 39.2759 262.816 39.3072C262.847 37.9322 262.748 36.7499 262.493 35.4999C262.368 34.828 261.629 34.6041 260.832 34.7343C260.285 34.828 260.03 35.4686 260.03 35.6301C260.129 36.1718 260.254 36.8124 260.285 37.4843C260.384 38.1561 260.384 38.7968 260.285 39.4374C258.941 39.5624 257.629 39.6301 256.352 39.6301C255.582 39.6301 255.358 40.3332 255.488 40.8749C255.488 41.4218 255.519 41.9947 256.415 42.1249C257.696 42.1249 259.743 42.0259 261.696 41.9009C263.582 41.7395 265.373 41.5468 266.207 41.2916C266.879 41.1614 267.196 40.4582 267.04 39.6926C266.941 39.1457 266.337 38.9218 266.144 38.9218ZM261.535 43.3697C259.165 43.5311 257.852 44.3645 257.087 45.6145C256.415 46.8905 256.222 48.4895 256.352 50.2499C256.477 53.9634 258.3 55.0207 262.686 54.6666C265.983 54.5728 267.295 52.203 267.264 48.8749C267.165 46.9895 266.847 45.5155 266.014 44.6197C265.118 43.6926 263.743 43.2447 261.535 43.3697ZM258.655 49.9947C258.524 47.3384 259.165 46.1561 261.535 45.9322C262.717 45.9009 263.519 45.9947 264.061 46.4114C264.54 46.828 264.769 47.6926 264.863 49.0676C264.733 51.2447 264.415 52.1405 262.561 52.427C261.665 52.5572 260.733 52.5884 259.967 52.2343C259.264 51.8853 258.655 51.2447 258.655 49.9947ZM271.743 34.7968C271.519 34.4114 270.847 34.3176 270.207 34.4426C269.535 34.5728 268.993 34.8593 269.087 35.3697L269.342 38.6666L269.696 44.5259C269.79 46.6978 269.889 48.8436 269.92 50.6666C269.951 52.5572 269.983 54.0259 269.983 54.7968C269.983 55.4374 270.524 55.7239 271.134 55.7239C271.712 55.7239 272.352 55.4374 272.509 54.9218V46.1249L275.519 45.6145C275.936 45.578 275.967 45.0051 275.967 44.4895C275.837 43.9478 275.519 43.4374 275.233 43.4374L272.316 43.9478C272.191 42.6978 272.061 40.6509 271.967 38.7655L271.743 34.7968Z" fill="black"/>
<path d="M285.568 38.9897C285.443 38.1876 284.958 37.9011 283.745 37.9324C283.135 38.0261 281.891 38.0938 280.578 38.2188C279.266 38.349 277.891 38.5105 276.995 38.6668C276.641 38.698 276.547 39.3386 276.547 39.948C276.578 40.4897 276.734 41.099 277.25 41.0678L282.818 40.4272C282.687 43.6303 282.656 46.0261 282.271 47.948C281.891 49.8386 281.25 51.3074 280.099 52.6199C279.969 52.9063 280.323 53.3543 280.771 53.7084C281.182 53.9949 281.729 54.2188 282.115 53.8699C283.682 52.172 284.51 50.1251 285.026 47.6615C285.443 45.198 285.568 42.3178 285.568 38.9897ZM294.943 34.9897C294.911 34.6355 294.208 34.5105 293.536 34.6043C292.865 34.698 292.255 34.9897 292.286 35.5001C292.385 35.9793 292.51 37.2605 292.609 39.0522C292.734 40.8438 292.833 43.0834 292.958 45.3907C293.089 47.6615 293.12 49.9636 293.151 51.8543C293.182 53.7397 293.151 55.1459 293.12 55.6928C293.12 56.2345 293.568 56.5886 294.146 56.6199C294.719 56.7136 295.297 56.4897 295.583 55.8855C295.682 55.6303 295.714 54.2865 295.714 52.3959C295.714 50.474 295.682 48.1095 295.583 45.6459L295.266 38.8282C295.135 36.8751 295.042 35.4688 294.943 34.9897Z" fill="black"/>
<path d="M324.643 37.3543C319.362 37.7398 312.992 38.3179 307.107 38.8595C305.956 38.9585 305.347 40.0418 306.117 41.0679C307.425 42.8595 308.706 44.9741 310.274 47.3075C311.873 49.646 313.602 52.1408 315.649 54.7345C316.581 55.9793 317.253 55.8543 318.18 54.6668C319.461 52.1095 320.836 49.4845 322.117 46.8908L324.065 43.1148C324.675 41.87 325.315 40.62 325.956 39.4377C326.498 38.1877 325.857 37.3231 324.643 37.3543Z" fill="black"/>
</svg>
