<svg width="369" height="92" viewBox="0 0 369 92" fill="none" xmlns="http://www.w3.org/2000/svg">
<mask id="mask0_87_13585" style="mask-type:luminance" maskUnits="userSpaceOnUse" x="0" y="0" width="369" height="92">
<path d="M368.664 0H0.664062V92H368.664V0Z" fill="white"/>
</mask>
<g mask="url(#mask0_87_13585)">
<mask id="mask1_87_13585" style="mask-type:luminance" maskUnits="userSpaceOnUse" x="2" y="0" width="367" height="91">
<path d="M2.14062 0.958984H368.141V90.9277H2.14062V0.958984Z" fill="white"/>
</mask>
<g mask="url(#mask1_87_13585)">
<path d="M361.896 70.7249C346.443 71.0999 331.068 71.2509 315.615 71.3291C301.662 70.803 287.709 70.428 273.682 70.053C269.182 69.902 264.755 69.8291 260.255 69.678C271.057 69.902 281.86 70.053 292.662 70.2041C310.287 70.428 327.844 70.5009 345.469 70.3499C347.193 70.3499 348.844 70.277 350.568 70.277C353.495 70.2041 356.344 67.7249 356.198 64.652C356.047 61.5738 353.719 59.0999 350.568 59.027C339.245 58.7978 327.917 58.652 316.589 58.5738C316.589 58.4228 316.589 58.1988 316.589 58.0478C316.516 56.402 315.917 55.0478 314.865 54.0738C318.391 53.8499 321.839 53.6259 325.365 53.402C326.568 53.3238 327.766 53.2509 328.891 53.1728C332.417 53.1728 335.943 53.2509 339.469 53.2509C341.271 53.2509 343.068 53.2509 344.87 53.2509C347.797 53.2509 350.646 50.6259 350.495 47.6259C350.344 44.4749 348.021 42.1468 344.87 41.9957C344.646 41.9957 344.417 41.9957 344.193 41.9957C346.594 41.4749 348.693 38.9228 348.547 36.4488C348.396 33.1468 346.068 31.1207 342.917 30.8186C340.745 30.6728 338.568 30.4436 336.391 30.2978C336.693 29.6936 336.844 29.0218 336.844 28.2718C339.995 28.4228 343.146 28.4957 346.297 28.6468C348.172 28.7197 350.047 28.7978 351.922 28.9436C354.698 29.0947 357.094 26.6936 357.469 24.0686C357.844 21.2926 356.12 18.6676 353.422 17.9176C351.094 17.2457 348.844 16.6416 346.521 16.1207C346.594 13.7197 345.021 10.8655 342.469 10.4905C326.115 8.09468 309.537 6.66759 293.037 5.54259C272.255 4.11551 251.479 3.21447 230.703 2.54259C208.349 1.86551 185.917 1.49051 163.563 1.33947C142.412 1.26655 121.182 1.41759 100.031 1.94363C83.0783 2.39155 66.1252 2.99051 49.245 4.33947C47.5939 4.49051 45.9481 4.64155 44.297 4.79259C41.745 5.01655 39.1929 6.66759 38.745 9.29259C38.5939 9.29259 38.37 9.29259 38.2189 9.36551C35.2918 9.59468 32.4429 11.7666 32.5939 14.9957C32.6668 16.4176 33.1929 17.6936 34.021 18.6676C32.37 18.7457 30.6408 18.8916 28.995 18.9697C26.0679 19.1936 23.2189 21.4436 23.3647 24.5947C23.5158 27.6728 25.8439 30.1468 28.995 30.2197C36.1929 30.3707 43.396 30.5947 50.5939 30.7457C45.7189 31.0478 40.8439 31.4228 35.9689 31.7978C34.1668 31.9436 32.4429 32.0947 30.6408 32.2457C27.7189 32.5478 24.8647 34.6468 25.0158 37.8707C25.0939 39.4488 25.6929 40.7249 26.5939 41.6988C25.4689 42.7457 24.7918 44.1728 24.8647 45.7457C25.0158 48.9749 27.3439 51.1468 30.495 51.3759C32.8179 51.5218 35.146 51.6728 37.5418 51.8238C37.5418 52.0478 37.5418 52.1988 37.5418 52.4228C37.62 54.0738 38.2189 55.3499 39.12 56.2509C35.9689 56.4749 32.745 56.6259 29.5939 56.8499C27.87 57.0009 26.2189 57.0738 24.4897 57.2249C21.6408 57.4488 19.3908 59.178 18.9429 62.0999C18.6408 64.1259 19.5418 66.2249 21.1929 67.428C21.4897 67.803 21.8647 68.178 22.3179 68.4749C19.3908 68.402 16.5418 68.402 13.6147 68.3291C11.7397 68.3291 9.86474 68.2509 7.91683 68.2509C4.98974 68.178 2.14079 70.8759 2.28662 73.8759C2.43766 77.027 4.76579 79.428 7.91683 79.5061C25.3179 80.027 42.7189 80.4801 60.1252 80.928C82.0262 81.527 103.932 82.1311 125.906 82.7301C149.464 83.402 173.016 84.152 196.568 84.9072C218.922 85.6572 241.276 86.4801 263.63 87.4541C281.636 88.2822 299.714 89.178 317.714 90.3811C319.516 90.5322 321.318 90.6051 323.115 90.7561C326.042 90.9801 328.891 87.9801 328.74 85.1311C328.74 84.3811 328.594 83.7041 328.292 83.1051C329.792 83.1051 331.365 83.178 332.865 83.178C333.917 83.178 334.891 82.8811 335.792 82.3551C342.693 82.277 349.594 82.2041 356.573 82.053C358.37 81.9801 360.172 81.9801 361.974 81.902C364.896 81.8291 367.75 79.3551 367.599 76.277C367.375 73.3551 365.047 70.5791 361.896 70.7249ZM292.959 40.3499C271.13 39.8968 249.302 39.5947 227.474 39.3707C213.521 39.2197 199.495 39.1468 185.542 39.0738C184.641 39.0738 183.667 38.9957 182.766 38.9957C191.844 38.6988 200.844 38.3968 209.922 38.1728C212.547 38.1728 215.25 38.1728 217.875 38.1728C240 38.2457 262.13 38.5478 284.182 39.1468C302.037 39.6728 319.964 40.2718 337.818 41.5478C338.193 41.5478 338.568 41.6207 338.943 41.6207C323.568 41.0999 308.266 40.7249 292.959 40.3499Z" fill="#FFFEFA" fill-opacity="0.7"/>
</g>
</g>
<path d="M55.1036 38.7141C54.9734 37.9172 54.463 37.5943 53.2442 37.7245L49.7598 38.011C48.2859 38.1412 46.7807 38.2974 45.8536 38.4589C45.5046 38.4901 45.3744 39.0995 45.4057 39.7089C45.4057 40.2506 45.6296 40.8287 46.14 40.7922L52.3484 40.1568C52.2546 42.1047 52.2234 43.7089 52.0932 44.9849C50.7807 45.1464 49.3119 45.2454 48.0932 45.3391C46.9109 45.4693 45.9838 45.5318 45.7286 45.5318C45.4369 45.5631 45.3119 46.1047 45.4057 46.6516C45.4369 47.261 45.7286 47.8026 46.2703 47.8026C47.713 47.8339 49.6921 47.6099 51.8692 47.2245C51.4525 49.0526 50.7807 50.3652 49.6296 51.7402C49.5046 51.9954 49.8223 52.4745 50.2703 52.8287C50.6869 53.1152 51.265 53.3391 51.6453 52.9849C53.213 51.2922 54.0463 49.3704 54.5567 47.0683C54.9421 44.7297 55.1036 42.0422 55.1036 38.7141ZM61.0203 44.7922C61.1192 44.8912 61.1817 45.5631 61.2807 46.4589C61.3744 47.3547 61.3744 48.5683 61.4682 49.7558L61.5671 53.1464C61.5671 54.1412 61.5984 54.8131 61.7286 54.9693C61.7286 55.1308 62.3328 55.162 62.9734 55.037C63.6453 54.9068 64.2859 54.6204 64.2859 54.1047C64.1244 53.5631 63.9994 52.1881 63.9005 50.3652C63.8067 48.537 63.713 46.3287 63.6765 44.0579C63.6453 41.8808 63.614 39.6412 63.614 37.8808C63.5828 36.1204 63.5828 34.8443 63.6765 34.3652C63.713 34.011 63.1661 33.9485 62.4942 33.9797C61.8848 34.0735 61.2442 34.3287 61.1505 34.7141C61.1192 34.8756 61.088 35.3235 61.088 35.9954V38.2349C61.1192 39.8964 61.1817 41.6568 61.213 42.4277L57.8536 43.1933C56.8328 43.3547 56.0619 43.4849 55.6765 43.4849C55.2963 43.5162 55.1661 44.0579 55.1973 44.6047C55.2286 45.1464 55.4525 45.6568 55.7442 45.6568C56.5411 45.6568 58.7807 45.4016 61.0203 44.7922Z" fill="black"/>
<path d="M72.2526 38.8431C72.4141 38.7754 72.9245 38.6816 73.7578 38.5514L76.4766 38.1712C77.4349 38.041 78.3307 37.9473 79.1641 37.8796C79.9974 37.7858 80.4766 37.7858 80.5755 37.8483C80.6693 38.1035 80.862 39.291 80.987 40.4733C81.0859 41.6243 81.0859 42.7754 80.9245 42.9056C80.7995 42.9993 80.3151 43.1296 79.487 43.2598C78.6536 43.3848 77.7266 43.515 76.7318 43.6087L73.9818 43.8639C73.1484 43.9316 72.7318 43.9629 72.6068 43.9629C72.2214 44.0566 72.0286 43.7077 71.9974 43.4837C71.9974 42.6816 71.9661 41.8171 71.9974 40.9525C71.9974 40.0879 72.0911 39.3535 72.2526 38.8431ZM69.8203 36.9837C69.2786 37.6243 69.1484 39.3848 69.1484 41.1764C69.1484 42.9368 69.2109 44.6973 69.1797 45.2077C69.2109 45.9785 69.8828 46.5514 71.1953 46.5879L81.9818 45.4004C83.0391 45.0514 83.6745 44.7285 83.6745 43.5462C83.7109 42.9368 83.7422 41.1139 83.6432 39.3535C83.5182 37.5618 83.2943 35.8952 82.9089 35.5462C82.6849 35.416 81.8203 35.3848 80.6068 35.3848C78.2995 35.4837 74.4922 35.8014 72.1276 36.2181C70.8776 36.4733 69.9818 36.7285 69.8203 36.9837ZM86.1068 49.916C85.4349 50.0723 84.3516 50.265 82.7786 50.4577L77.8203 50.9993C76.0599 51.1921 74.2682 51.3535 72.5755 51.515L68.4453 51.8014C67.9349 51.8014 67.7734 52.4108 67.7734 52.9525C67.8047 53.4681 67.9974 54.0098 68.3828 53.9785L72.3516 53.916V57.9785C72.3516 58.3275 72.9245 58.4264 73.5651 58.3952C74.0755 58.2962 74.7474 58.0723 74.7786 57.6556L74.8464 53.7233L79.1328 53.1139C79.0391 54.7441 79.1953 55.9629 79.5807 57.7233C79.5807 58.14 80.2214 58.2962 80.8307 58.2025C81.5026 58.1712 82.1068 57.916 82.1068 57.5306C81.7266 55.8952 81.6276 54.8118 81.5964 52.9837L86.0443 52.3431C86.4297 52.3431 86.6536 51.7389 86.6536 51.0983C86.6536 50.4577 86.4922 49.916 86.1068 49.916Z" fill="black"/>
<path d="M92.3177 54.1036C92.9583 54.1401 93.7917 54.2338 94.8177 54.2338C95.8385 54.2338 97.0573 54.1401 98.2708 53.7859C99.0417 53.5619 99.1042 52.9213 98.8802 52.2807C98.6562 51.6401 98.2083 51.1296 97.8542 51.1609C97.2813 51.3224 96.0312 51.4838 94.9427 51.4838C93.8542 51.5151 92.8646 51.4838 92.8333 51.2234C92.6406 50.8432 92.5417 49.9161 92.4479 48.7286C92.3542 47.4838 92.2552 46.0411 92.224 44.6036C92.1302 43.1609 92.1302 41.6557 92.1302 40.4734C92.0938 39.2911 92.0938 38.364 92.1927 37.9786C92.1927 37.7234 91.5833 37.5932 90.9115 37.6921C90.2708 37.7234 89.599 37.9161 89.474 38.1713C89.3437 38.4265 89.3438 39.3223 89.3438 40.6036C89.375 41.8484 89.4375 43.4838 89.5365 45.1453C89.6302 46.8432 89.6979 48.5359 89.8229 49.9474C89.8542 50.6192 89.9219 51.2234 90.0156 51.739C90.1146 52.2807 90.1771 52.6348 90.3021 52.8588C90.5938 53.7859 91.2969 54.0724 92.3177 54.1036ZM106.302 34.8432C106.271 34.489 105.568 34.364 104.896 34.4578C104.224 34.5515 103.615 34.8432 103.646 35.3536C103.745 35.8328 103.87 37.114 103.969 38.9057C104.094 40.6974 104.193 42.9369 104.318 45.2442C104.448 47.5151 104.479 49.8171 104.51 51.7078C104.542 53.5932 104.51 54.9994 104.479 55.5463C104.479 56.088 104.927 56.4421 105.505 56.4734C106.078 56.5671 106.656 56.3432 106.943 55.739C107.042 55.4838 107.073 54.1401 107.073 52.2494C107.073 50.3276 107.042 47.963 106.943 45.4994L106.625 38.6817C106.495 36.7286 106.401 35.3224 106.302 34.8432Z" fill="black"/>
<path d="M113.407 40.2182C115.167 39.9942 116.511 39.864 117.407 39.8328C118.302 39.7703 119.042 39.739 119.615 39.739C119.969 39.739 120.099 39.1609 120.193 38.5515C120.224 38.0411 120.131 37.3692 119.875 37.2078C118.912 37.114 116.834 37.2078 114.881 37.3692C112.927 37.5932 111.042 37.8796 110.433 38.1036C110.115 38.3276 110.016 38.9057 110.115 39.5151C110.209 40.0567 110.433 40.6036 110.688 40.6036C110.688 41.7859 110.912 44.088 111.073 46.364C111.328 48.5671 111.521 50.713 111.651 51.6088C111.808 52.7911 112.323 53.3692 113.407 53.2755C115.011 53.1453 115.808 53.1765 116.641 53.1453C117.443 53.1453 118.302 53.0515 120.032 52.6661C120.547 52.5359 120.735 51.9942 120.703 51.3849C120.703 50.8432 120.417 50.2963 119.969 50.2963C118.75 50.4578 117.443 50.6192 116.479 50.6505C115.521 50.7442 114.75 50.6817 114.526 50.4265C114.339 50.4265 113.891 48.5671 113.891 47.0984C113.922 46.8432 115.011 46.588 116.256 46.4578C117.443 46.3276 118.849 46.2338 119.615 46.2338C119.839 46.2338 119.907 45.6921 119.907 45.0828C119.907 44.5359 119.776 43.9317 119.391 43.8953C118.974 43.8953 118.495 43.9317 117.599 43.963L113.698 44.4109L113.407 40.2182ZM128.063 34.8432C128.032 34.489 127.328 34.364 126.657 34.4578C125.985 34.5515 125.375 34.8432 125.407 35.3536C125.506 35.8328 125.631 37.114 125.729 38.9057C125.854 40.6974 125.953 42.9369 126.078 45.2442C126.209 47.5151 126.24 49.8171 126.271 51.7078C126.302 53.5932 126.271 54.9994 126.24 55.5463C126.24 56.088 126.688 56.4421 127.266 56.4734C127.839 56.5671 128.417 56.3432 128.703 55.739C128.802 55.4838 128.834 54.1401 128.834 52.2494C128.834 50.3276 128.802 47.963 128.703 45.4994L128.386 38.6817C128.256 36.7286 128.162 35.3224 128.063 34.8432Z" fill="black"/>
<path d="M143.458 36.2178C141.057 36.3793 139.776 36.9835 139.005 37.9158C138.208 38.8428 138.078 40.2803 138.208 42.1033C138.239 44.1189 138.656 45.8168 139.614 46.9366C140.578 48.0876 142.015 48.697 144.385 48.5356C148.64 48.2803 149.63 44.921 149.437 41.2751C149.343 39.322 149.026 38.0408 148.093 37.1762C147.197 36.4106 145.697 36.0876 143.458 36.2178ZM155.359 33.9783C155.197 33.7231 154.526 33.5928 153.921 33.7231C153.281 33.8481 152.734 34.171 152.833 34.7751C152.958 35.546 153.119 38.0408 153.25 40.7283C153.375 43.447 153.505 46.4574 153.406 48.3428C153.406 48.9835 153.984 49.2751 154.526 49.3064C155.166 49.4001 155.744 49.2074 155.869 48.7908C155.906 48.4418 155.968 47.447 155.968 46.171C156 44.7908 155.937 43.1918 155.906 41.5303C155.869 39.8637 155.807 38.2335 155.713 36.8585C155.614 35.447 155.52 34.4574 155.359 33.9783ZM155.776 55.546C155.328 55.6397 154.593 55.7387 153.474 55.8324L150.015 56.1189C148.864 56.2178 147.776 56.3116 146.849 56.3428C145.921 56.3793 145.474 56.3793 145.437 56.3428C145.119 56.0876 144.927 55.447 144.895 54.8116C144.864 54.5199 144.833 54.2335 144.833 53.947V53.3376C144.833 53.1137 144.192 53.0512 143.52 53.1449C142.88 53.2439 142.208 53.4991 142.177 53.9158C142.145 54.5512 142.208 55.6085 142.333 56.6033C142.494 57.5928 142.718 58.4887 143.104 58.7126C143.234 58.7439 144.031 58.7439 145.119 58.7126C147.421 58.6189 150.942 58.4262 153.375 58.171C154.625 58.0408 155.552 57.8793 155.937 57.7231C156.192 57.5928 156.286 57.0147 156.255 56.5043C156.13 55.9939 156 55.546 155.776 55.546ZM140.734 42.171C140.64 40.7908 140.734 40.0251 141.119 39.546C141.536 39.0356 142.302 38.9053 143.583 38.7751C144.833 38.7439 145.63 38.6501 146.109 38.9991C146.625 39.2908 146.817 40.0251 146.849 41.4678C146.974 44.5668 146.593 45.6918 144.447 45.8481C141.822 46.2022 140.765 44.8585 140.734 42.171Z" fill="black"/>
<path d="M168.029 38.8432C167.904 38.0411 167.419 37.7546 166.206 37.7859C165.596 37.8796 164.352 37.9474 163.039 38.0724C161.727 38.2026 160.352 38.364 159.456 38.5203C159.102 38.5515 159.008 39.1921 159.008 39.8015C159.039 40.3432 159.195 40.9526 159.711 40.9213L165.279 40.2807C165.148 43.4838 165.117 45.8796 164.732 47.8015C164.352 49.6921 163.711 51.1609 162.56 52.4734C162.43 52.7599 162.784 53.2078 163.232 53.5619C163.643 53.8484 164.19 54.0724 164.576 53.7234C166.143 52.0255 166.971 49.9786 167.487 47.5151C167.904 45.0515 168.029 42.1713 168.029 38.8432ZM177.404 34.8432C177.372 34.489 176.669 34.364 175.997 34.4578C175.326 34.5515 174.716 34.8432 174.747 35.3536C174.846 35.8328 174.971 37.114 175.07 38.9057C175.195 40.6974 175.294 42.9369 175.419 45.2442C175.549 47.5151 175.581 49.8171 175.612 51.7078C175.643 53.5932 175.612 54.9994 175.581 55.5463C175.581 56.088 176.029 56.4421 176.607 56.4734C177.18 56.5671 177.758 56.3432 178.044 55.739C178.143 55.4838 178.174 54.1401 178.174 52.2494C178.174 50.3276 178.143 47.963 178.044 45.4994L177.727 38.6817C177.596 36.7286 177.503 35.3224 177.404 34.8432Z" fill="black"/>
<path d="M185.698 59.0979C186.114 60.0249 186.656 60.3114 187.458 60.2176C188 60.2176 190.208 60.0874 192.385 59.8635C194.495 59.7385 196.734 59.5145 197.406 59.2906C197.791 59.0354 197.922 58.4885 197.922 57.9781C197.89 57.4676 197.698 57.051 197.344 57.051L188.479 58.1708C188.13 57.9156 187.807 57.5614 187.651 57.1447C187.489 56.7281 187.651 56.4729 188.13 56.3426C188.224 56.3114 188.734 56.2176 189.698 56.1187C190.687 56.0249 191.713 55.9312 192.864 55.7697C194.015 55.6083 195.041 55.4156 196 55.1916C196.958 54.9676 197.536 54.7437 197.666 54.4572C197.953 53.7854 197.953 52.6343 197.729 51.6083C197.568 50.5874 197.182 49.7229 196.927 49.4676C196.864 49.4312 196.672 49.4312 196.354 49.4312H195.234C194.302 49.4676 193.057 49.5301 191.875 49.6239C190.656 49.7541 189.281 49.8166 188.323 49.9468L186.208 50.1708C185.698 50.1708 185.474 50.7749 185.474 51.3218C185.474 51.9312 185.729 52.4416 186.015 52.4104L194.943 51.4833L195.01 51.7072C195.073 51.8635 195.135 52.0249 195.166 52.2176C195.203 52.6031 195.265 53.051 195.01 53.2072C194.979 53.3374 194.432 53.4312 193.505 53.5614L190.271 53.9468C189.12 54.0718 187.838 54.2645 186.88 54.426C185.953 54.551 185.219 54.7437 184.995 54.9051C184.547 55.2906 184.609 56.0562 184.864 56.9208C185.12 57.7229 185.443 58.5874 185.698 59.0979ZM197.536 34.5874C197.406 33.7854 196.896 33.5614 195.713 33.5926L193.63 33.7229L190.114 33.9781L186.526 34.2645C185.344 34.3635 184.547 34.426 184.13 34.5197C183.745 34.6187 183.614 35.1604 183.651 35.7697C183.682 36.2801 183.875 36.827 184.385 36.7906L194.719 36.0249L194.338 40.9833C194.208 41.6239 194.849 41.9468 195.521 41.9468C196.224 41.9468 196.927 41.6916 197.057 41.2749L197.536 34.5874ZM198.979 43.6083C197.375 43.9937 194.015 44.4104 190.687 44.7906L185.854 45.3062L182.338 45.5926C181.76 45.6239 181.536 46.202 181.63 46.7437C181.666 47.2906 182.047 47.8322 182.594 47.801C183.427 47.801 184.64 47.7385 186.208 47.6083C187.807 47.4468 189.474 47.2906 191.166 47.0666C192.864 46.8426 194.463 46.6499 195.969 46.426C197.474 46.202 198.495 46.0093 199.104 45.8479C199.458 45.7541 199.682 45.1447 199.682 44.6031C199.682 43.9937 199.489 43.5145 198.979 43.6083Z" fill="black"/>
<path d="M225.375 36.9847C225.282 36.1878 224.802 35.8336 223.615 35.9639L221.568 36.0889L218.016 36.3441L214.401 36.6357C213.282 36.7295 212.479 36.8284 212.032 36.9222C211.646 37.0159 211.49 37.5941 211.552 38.2034C211.552 38.7451 211.745 39.3232 212.224 39.292L222.302 38.5211L221.662 45.2086C221.537 45.8805 222.11 46.2034 222.787 46.2347C223.49 46.2347 224.193 46.0107 224.318 45.5316L225.375 36.9847ZM227.907 51.6722C228.318 51.6409 228.448 51.0368 228.448 50.4274C228.417 49.818 228.255 49.2764 227.839 49.4014C225.854 49.8805 222.526 50.2347 219.198 50.5889C215.87 50.9378 212.511 51.1618 210.401 51.292C209.922 51.3857 209.698 51.8961 209.729 52.5055C209.761 53.0524 210.047 53.5628 210.464 53.5316L218.719 53.1461C218.625 55.6097 218.688 56.6982 218.787 57.5941C218.912 58.1045 219.521 58.2972 220.162 58.2659C220.802 58.2347 221.344 57.917 221.344 57.4014C221.214 56.667 221.12 54.7451 221.214 52.7295L227.907 51.6722Z" fill="black"/>
<path d="M240.351 36.7298C240.221 35.9329 239.742 35.7089 238.559 35.7402C237.919 35.7714 236.7 35.8339 235.356 35.9641C234.044 36.0891 232.7 36.2506 231.804 36.4121C231.387 36.5058 231.262 37.0839 231.294 37.6933C231.325 38.2975 231.518 38.8131 232.028 38.7766L237.309 38.2975L236.096 48.2818C235.965 48.9537 236.575 49.2454 237.278 49.2454C237.919 49.2454 238.653 49.0162 238.747 48.6048L240.351 36.7298ZM246.747 43.1621C245.82 43.4485 244.544 43.6412 243.387 43.7402C242.174 43.8339 241.117 43.8964 240.606 43.8964C240.351 43.9954 240.351 44.4746 240.382 44.985C240.476 45.4693 240.606 45.9798 240.893 45.9798C241.981 46.1725 245.085 45.5943 246.747 45.3391L246.939 48.2818C247.07 48.636 247.71 48.761 248.382 48.636C248.924 48.5371 249.596 48.2506 249.596 47.61C249.564 46.9693 249.533 45.8496 249.439 44.5371C249.403 43.2246 249.309 41.6568 249.179 40.1568C249.054 38.6204 248.955 37.1464 248.83 35.9641C248.731 34.7766 248.669 33.8496 248.575 33.4693C248.476 32.985 247.835 32.86 247.163 32.8912C246.492 32.9225 245.919 33.1464 245.919 33.5318L246.143 37.2089C245.502 37.4693 244.382 37.5943 243.356 37.6933C242.268 37.7871 241.247 37.8496 240.731 37.8496C240.476 37.8496 240.445 38.4277 240.476 38.9693C240.507 39.5787 240.669 40.0891 240.955 40.0891C242.143 40.3443 244.32 40.0579 246.398 39.5475L246.747 43.1621ZM242.236 56.4746C241.085 56.5683 240.096 56.6048 239.325 56.3808C238.622 56.1568 238.075 55.7402 238.075 54.8443C237.981 53.1777 238.846 52.3443 241.471 52.2193C244.382 51.9641 245.981 52.7298 246.075 54.235C246.111 55.9329 244.893 56.3131 242.236 56.4746ZM235.419 55.0371C235.455 56.7923 236.351 57.7246 237.596 58.235C238.877 58.6516 240.507 58.7141 242.111 58.5891C244.059 58.4589 245.726 58.235 246.908 57.5631C247.997 56.9225 248.669 55.8652 248.637 54.1725C248.544 52.5371 247.549 51.4485 246.205 50.7766C244.83 50.1725 243.038 49.9173 241.34 50.0423C237.757 50.2662 235.294 51.6725 235.419 55.0371Z" fill="black"/>
<path d="M263.23 38.7753C262.714 38.8742 262.142 38.9367 261.563 38.968C261.022 39.067 260.444 39.1295 259.902 39.1607C259.933 37.7857 259.834 36.6034 259.579 35.3534C259.454 34.6815 258.714 34.4576 257.918 34.5878C257.371 34.6815 257.116 35.3222 257.116 35.4836C257.214 36.0253 257.339 36.6659 257.371 37.3378C257.47 38.0097 257.47 38.6503 257.371 39.2909C256.027 39.4159 254.714 39.4836 253.438 39.4836C252.668 39.4836 252.444 40.1867 252.574 40.7284C252.574 41.2753 252.605 41.8482 253.501 41.9784C254.782 41.9784 256.829 41.8795 258.782 41.7545C260.668 41.593 262.459 41.4003 263.293 41.1451C263.964 41.0149 264.282 40.3117 264.126 39.5461C264.027 38.9992 263.423 38.7753 263.23 38.7753ZM258.621 43.2232C256.251 43.3847 254.938 44.218 254.173 45.468C253.501 46.744 253.308 48.343 253.438 50.1034C253.563 53.817 255.386 54.8742 259.772 54.5201C263.069 54.4263 264.381 52.0565 264.35 48.7284C264.251 46.843 263.933 45.369 263.1 44.4732C262.204 43.5461 260.829 43.0982 258.621 43.2232ZM255.741 49.8482C255.61 47.192 256.251 46.0097 258.621 45.7857C259.803 45.7545 260.605 45.8482 261.147 46.2649C261.626 46.6815 261.855 47.5461 261.949 48.9211C261.819 51.0982 261.501 51.994 259.647 52.2805C258.751 52.4107 257.819 52.442 257.053 52.0878C256.35 51.7388 255.741 51.0982 255.741 49.8482ZM268.829 34.6503C268.605 34.2649 267.933 34.1711 267.293 34.2961C266.621 34.4263 266.079 34.7128 266.173 35.2232L266.428 38.5201L266.782 44.3795C266.876 46.5513 266.975 48.6972 267.006 50.5201C267.037 52.4107 267.069 53.8795 267.069 54.6503C267.069 55.2909 267.61 55.5774 268.22 55.5774C268.798 55.5774 269.438 55.2909 269.595 54.7753V45.9784L272.605 45.468C273.022 45.4315 273.053 44.8586 273.053 44.343C272.923 43.8013 272.605 43.2909 272.319 43.2909L269.402 43.8013C269.277 42.5513 269.147 40.5045 269.053 38.619L268.829 34.6503Z" fill="black"/>
<path d="M282.654 38.8432C282.529 38.0411 282.044 37.7546 280.831 37.7859C280.221 37.8796 278.977 37.9474 277.664 38.0724C276.352 38.2026 274.977 38.364 274.081 38.5203C273.727 38.5515 273.633 39.1921 273.633 39.8015C273.664 40.3432 273.82 40.9526 274.336 40.9213L279.904 40.2807C279.773 43.4838 279.742 45.8796 279.357 47.8015C278.977 49.6921 278.336 51.1609 277.185 52.4734C277.055 52.7599 277.409 53.2078 277.857 53.5619C278.268 53.8484 278.815 54.0724 279.201 53.7234C280.768 52.0255 281.596 49.9786 282.112 47.5151C282.529 45.0515 282.654 42.1713 282.654 38.8432ZM292.029 34.8432C291.997 34.489 291.294 34.364 290.622 34.4578C289.951 34.5515 289.341 34.8432 289.372 35.3536C289.471 35.8328 289.596 37.114 289.695 38.9057C289.82 40.6974 289.919 42.9369 290.044 45.2442C290.174 47.5151 290.206 49.8171 290.237 51.7078C290.268 53.5932 290.237 54.9994 290.206 55.5463C290.206 56.088 290.654 56.4421 291.232 56.4734C291.805 56.5671 292.383 56.3432 292.669 55.739C292.768 55.4838 292.799 54.1401 292.799 52.2494C292.799 50.3276 292.768 47.963 292.669 45.4994L292.352 38.6817C292.221 36.7286 292.128 35.3224 292.029 34.8432Z" fill="black"/>
<path d="M321.729 37.2079C316.448 37.5933 310.078 38.1714 304.193 38.7131C303.042 38.812 302.432 39.8954 303.203 40.9214C304.511 42.7131 305.792 44.8276 307.36 47.161C308.959 49.4995 310.688 51.9943 312.735 54.5881C313.667 55.8329 314.339 55.7079 315.266 54.5204C316.547 51.9631 317.922 49.3381 319.203 46.7443L321.151 42.9683C321.761 41.7235 322.401 40.4735 323.042 39.2912C323.584 38.0412 322.943 37.1766 321.729 37.2079Z" fill="black"/>
</svg>
