<svg width="920" height="284" viewBox="0 0 920 284" fill="none" xmlns="http://www.w3.org/2000/svg">
<mask id="mask0_87_13582" style="mask-type:luminance" maskUnits="userSpaceOnUse" x="0" y="18" width="320" height="65">
<path d="M320 18.334H0V82.334H320V18.334Z" fill="white"/>
</mask>
<g mask="url(#mask0_87_13582)">
<mask id="mask1_87_13582" style="mask-type:luminance" maskUnits="userSpaceOnUse" x="0" y="18" width="320" height="65">
<path d="M0.320312 18.7617H319.362V82.1211H0.320312V18.7617Z" fill="white"/>
</mask>
<g mask="url(#mask1_87_13582)">
<path d="M32.3594 50.3965H287.359" stroke="#ADCEEB" stroke-width="63"/>
</g>
</g>
<path d="M55.7344 28.873H83.0677V16.7689C83.0677 15.5345 82.9896 14.5085 82.8385 13.6855C82.6823 12.8522 82.3854 12.2012 81.9427 11.7272C81.4948 11.2585 80.8594 10.9355 80.026 10.7689C79.2031 10.5918 78.1302 10.498 76.7969 10.498H55.7344V1.62305H78.1302C81.1719 1.62305 83.6719 1.90951 85.6302 2.47721C87.599 3.05013 89.1563 3.92513 90.2969 5.10221C91.4479 6.26888 92.2604 7.73763 92.7344 9.49805C93.2031 11.2637 93.4427 13.3678 93.4427 15.8105V62.998H83.0677V37.748H55.7344V28.873ZM96.1302 25.8939H104.339V0.873047H114.714V62.998H104.339V34.7689H96.1302V25.8939Z" fill="black"/>
<path d="M129.932 1.62305H182.349V33.873H149.724C147.333 33.873 144.958 33.7428 142.599 33.4772C140.234 33.2012 138.12 32.5293 136.245 31.4564C134.38 30.3887 132.859 28.7689 131.682 26.6022C130.516 24.4355 129.932 21.4355 129.932 17.6022V1.62305ZM163.62 48.2064H148.599V62.998H138.224V48.2064H125.391V39.3314H186.849V48.2064H173.995V62.998H163.62V48.2064ZM140.328 10.498V16.1855C140.328 17.8835 140.484 19.3001 140.807 20.4355C141.125 21.5762 141.661 22.4876 142.411 23.1647C143.161 23.8314 144.141 24.3053 145.349 24.5814C146.568 24.8626 148.078 24.998 149.87 24.998H171.974V10.498H140.328Z" fill="black"/>
<path d="M244.698 0.873047H255.073V62.998H244.698V0.873047ZM207.219 1.62305V45.2272C207.219 47.0189 207.391 48.4928 207.74 49.6439C208.083 50.7845 208.641 51.6855 209.406 52.3522C210.182 53.0189 211.167 53.4772 212.365 53.7272C213.557 53.9772 215 54.1022 216.698 54.1022H236.031V62.998H216.635C213.396 62.998 210.542 62.7585 208.073 62.2897C205.615 61.8158 203.552 60.9824 201.885 59.7897C200.219 58.5918 198.958 56.946 198.115 54.8522C197.266 52.7689 196.844 50.0814 196.844 46.7897V1.62305H207.219Z" fill="black"/>
<path d="M314.87 0.873047H325.245V62.998H314.87V0.873047ZM305.474 16.5605V25.4355H277.391V45.2272C277.391 47.0189 277.562 48.4928 277.911 49.6439C278.255 50.7845 278.813 51.6855 279.578 52.3522C280.354 53.0189 281.339 53.4772 282.536 53.7272C283.729 53.9772 285.172 54.1022 286.87 54.1022H306.203V62.998H286.807C283.568 62.998 280.714 62.7585 278.245 62.2897C275.786 61.8158 273.724 60.9824 272.057 59.7897C270.391 58.5918 269.13 56.946 268.286 54.8522C267.437 52.7689 267.016 50.0814 267.016 46.7897V16.5605H305.474ZM267.078 1.62305H305.474V10.498H267.078V1.62305Z" fill="black"/>
<mask id="mask2_87_13582" style="mask-type:luminance" maskUnits="userSpaceOnUse" x="572" y="181" width="243" height="38">
<path d="M814.667 181H572V218.333H814.667V181Z" fill="white"/>
</mask>
<g mask="url(#mask2_87_13582)">
<mask id="mask3_87_13582" style="mask-type:luminance" maskUnits="userSpaceOnUse" x="572" y="181" width="242" height="37">
<path d="M572.164 181.318H813.336V217.48H572.164V181.318Z" fill="white"/>
</mask>
<g mask="url(#mask3_87_13582)">
<path d="M590.375 199.328H794.677" stroke="#FAECCB" stroke-width="36"/>
</g>
</g>
<mask id="mask4_87_13582" style="mask-type:luminance" maskUnits="userSpaceOnUse" x="221" y="245" width="419" height="39">
<path d="M640.003 245H221.336V283.667H640.003V245Z" fill="white"/>
</mask>
<g mask="url(#mask4_87_13582)">
<mask id="mask5_87_13582" style="mask-type:luminance" maskUnits="userSpaceOnUse" x="222" y="246" width="417" height="37">
<path d="M222.406 246.334H638.672V282.334H222.406V246.334Z" fill="white"/>
</mask>
<g mask="url(#mask5_87_13582)">
<path d="M240.641 264.334H619.724" stroke="#FAECCB" stroke-width="36"/>
</g>
</g>
<path d="M125.295 177.659C125.16 176.529 124.477 176.164 122.8 176.211L119.722 176.435L114.462 176.8C112.514 176.935 110.743 177.07 108.977 177.253C107.3 177.388 106.123 177.523 105.488 177.659C104.941 177.794 104.717 178.612 104.806 179.471C104.806 180.242 105.076 181.06 105.759 181.013L120.946 179.836L120.035 189.492C119.858 190.534 120.764 190.94 121.759 190.987C122.712 190.987 123.707 190.622 123.847 190.034L125.295 177.659ZM103.175 202.503C102.587 202.544 102.311 203.409 102.493 204.268C102.628 205.039 102.993 205.857 103.535 205.81C105.983 205.81 110.743 205.581 115.597 205.086C120.446 204.675 125.384 204.133 128.243 203.591C128.785 203.544 129.056 202.591 129.056 201.685C129.014 200.779 128.785 199.961 128.243 200.143C127.337 200.372 125.16 200.596 122.53 200.826C119.858 201.143 116.821 201.456 114.373 201.82L114.056 195.159C114.009 194.57 113.149 194.43 112.196 194.477C111.243 194.612 110.384 194.977 110.384 195.341L110.561 202.273L103.175 202.503Z" fill="black"/>
<path d="M135.489 176.117C133.859 176.299 132.771 176.529 132.542 178.7C132.364 179.747 132.453 182.555 132.635 185.456C132.818 188.404 133.042 191.393 133.406 192.529C133.406 194.023 133.948 194.253 135.219 194.117C136.213 194.117 138.344 193.935 140.385 193.706C142.38 193.482 144.422 193.253 145.37 192.893C146.458 192.664 146.687 191.711 146.641 190.852V190.169C146.641 189.763 146.641 189.221 146.687 188.586C146.729 187.904 146.729 187.18 146.729 186.362V183.825C146.729 182.148 146.729 180.336 146.594 178.883C146.458 177.477 146.234 176.393 145.963 175.982C145.463 175.622 143.151 175.575 140.75 175.711C138.344 175.846 136.031 176.075 135.489 176.117ZM158.245 203.862C157.609 204.044 156.344 204.18 154.844 204.315L149.588 204.721C147.864 204.904 146.141 204.992 144.828 205.039C143.516 205.174 142.698 205.128 142.698 205.086C142.245 204.721 141.974 203.815 141.927 202.909C141.88 202.503 141.838 202.091 141.838 201.685V200.825C141.838 200.508 140.927 200.414 139.979 200.549C139.073 200.69 138.12 201.049 138.073 201.638C138.026 202.544 138.12 204.044 138.302 205.445C138.526 206.852 138.844 208.122 139.391 208.44C139.568 208.482 140.75 208.482 142.38 208.44C144.104 208.393 146.276 208.258 148.453 208.075C150.677 208.029 152.896 207.805 154.755 207.622C156.568 207.398 157.927 207.169 158.516 206.945C158.88 206.763 158.969 205.992 158.927 205.268C158.792 204.497 158.562 203.862 158.245 203.862ZM156.385 173.398C156.161 173.034 155.208 172.898 154.302 173.081C153.443 173.31 152.672 173.763 152.807 174.622C152.943 175.711 153.213 178.883 153.443 182.555C153.578 186.227 153.713 190.305 153.531 192.982C153.531 193.841 154.349 194.253 155.255 194.294C156.068 194.43 156.974 194.07 157.156 193.482C157.203 192.982 157.292 191.669 157.292 189.898C157.338 188.133 157.25 185.867 157.203 183.643C157.156 181.424 157.021 179.154 156.885 177.341C156.703 175.529 156.568 174.081 156.385 173.398ZM137.437 179.336C137.849 179.336 138.932 179.2 140.068 179.154C141.203 179.112 142.292 179.112 142.698 179.336C143.104 179.654 143.286 182.237 143.286 184.914C143.239 187.586 142.969 190.128 142.562 190.305L137.255 191.169L136.578 190.216L136.125 180.471C136.078 179.924 136.26 179.747 136.578 179.565C136.849 179.43 137.255 179.383 137.437 179.336Z" fill="black"/>
<path d="M175.381 176.393C175.335 177.117 175.423 179.429 175.564 181.919C175.605 184.414 175.741 186.95 175.741 188.086L171.027 192.435C170.892 192.935 171.48 193.523 172.204 194.023C172.934 194.523 173.746 194.794 173.928 194.57L177.783 191.622L186.892 193.841C187.392 194.07 187.939 193.57 188.298 192.846C188.663 192.122 188.845 191.257 188.48 190.757L179.73 187.721C179.548 186.773 179.506 184.231 179.46 181.83C179.413 179.429 179.324 177.07 179.324 176.211C179.277 175.664 178.324 175.393 177.329 175.44C176.376 175.481 175.381 175.846 175.381 176.393ZM193.918 173.216C193.559 172.674 192.694 172.58 191.788 172.763C190.975 172.992 190.246 173.487 190.428 174.351C190.611 175.44 190.928 178.747 191.293 182.372C191.611 186.044 191.835 190.033 191.97 192.257C191.835 193.117 192.559 193.388 193.329 193.388C194.147 193.388 195.053 193.117 195.277 192.435C195.418 191.669 195.46 190.622 195.46 189.398C195.46 188.268 195.371 186.908 195.371 185.502L199.543 184.731C200.085 184.502 200.085 183.69 199.902 182.961C199.767 182.195 199.267 181.648 198.861 181.648L195.1 182.33C194.918 181.106 194.736 179.018 194.512 177.205C194.371 175.346 194.1 173.716 193.918 173.216ZM186.574 205.721C184.897 205.898 183.496 205.898 182.408 205.674C181.319 205.356 180.684 204.768 180.684 203.497C180.501 201.143 181.678 200.007 185.444 199.69C189.569 199.466 191.835 200.372 191.97 202.502C192.017 204.903 190.34 205.539 186.574 205.721ZM176.829 203.768C176.876 206.263 178.236 207.533 179.96 208.257C181.678 208.94 184.126 208.981 186.35 208.799C189.163 208.622 191.47 208.257 193.105 207.304C194.783 206.398 195.595 204.903 195.553 202.502C195.418 200.19 194.053 198.737 192.152 197.695C190.158 196.742 187.663 196.424 185.215 196.606C180.142 196.924 176.647 199.007 176.829 203.768Z" fill="black"/>
<path d="M208.15 199.419C207.697 200.143 207.561 201.685 207.515 203.273C207.468 204.856 207.561 206.58 207.608 207.669C207.426 208.257 208.15 209.435 209.462 209.075C210.822 209.028 213.77 208.757 216.718 208.528C219.572 208.211 222.384 207.94 223.697 207.575C225.421 207.033 226.098 206.716 226.098 205.627C226.098 205.086 226.098 203.273 225.921 201.502C225.738 199.737 225.421 198.101 225.015 197.742C224.285 197.56 221.025 197.695 217.442 198.06C215.582 198.195 213.817 198.419 212.046 198.648C210.327 198.872 208.968 199.148 208.15 199.419ZM214.134 175.257C212.999 175.257 210.145 175.393 207.379 175.575C204.613 175.799 201.983 176.117 201.53 176.664C201.124 177.388 201.306 180.018 201.53 182.783C201.848 185.502 202.212 188.31 202.259 189.398C202.436 191.169 202.89 191.622 204.478 191.622C208.556 191.622 212.046 191.487 215.858 190.398C216.582 190.216 216.853 189.492 216.853 188.721C216.853 187.997 216.488 187.315 215.858 187.315C213.863 187.632 211.64 187.95 209.874 188.086C208.061 188.268 206.744 188.174 206.384 187.815C206.067 187.679 205.749 185.773 205.384 183.825C205.16 181.877 204.978 179.924 205.202 179.606C205.655 179.112 207.426 178.929 209.327 178.882C211.14 178.836 213.046 178.836 213.952 178.794C214.494 178.794 214.858 177.929 214.947 177.023C214.994 176.164 214.676 175.304 214.134 175.257ZM224.738 173.216C224.379 172.674 223.515 172.58 222.608 172.763C221.796 172.992 221.067 173.487 221.249 174.351C221.431 175.44 221.749 178.747 222.113 182.372C222.431 186.044 222.655 190.033 222.791 192.257C222.655 193.117 223.379 193.388 224.15 193.388C224.968 193.388 225.874 193.117 226.098 192.435C226.238 191.669 226.28 190.622 226.28 189.398C226.28 188.268 226.192 186.908 226.192 185.502L230.363 184.731C230.905 184.502 230.905 183.69 230.723 182.961C230.587 182.195 230.087 181.648 229.681 181.648L225.921 182.33C225.738 181.106 225.556 179.018 225.332 177.205C225.192 175.346 224.921 173.716 224.738 173.216ZM210.869 205.268V204.268C210.869 203.315 210.962 202.226 211.186 201.82C211.457 201.773 212.14 201.638 213.27 201.502C214.452 201.32 215.629 201.143 216.9 201.002C219.348 200.69 221.702 200.507 221.837 200.825C222.249 201.143 222.431 201.955 222.473 202.82C222.473 203.679 222.384 204.45 222.067 204.632C222.02 204.815 219.348 205.356 216.671 205.721C215.311 205.898 214.087 206.033 212.91 206.127C211.733 206.263 211.051 206.216 210.916 206.08L210.869 205.268Z" fill="black"/>
<path d="M247.045 208.982C247.633 210.3 248.404 210.706 249.54 210.571C250.311 210.571 253.436 210.389 256.519 210.071C259.514 209.889 262.686 209.571 263.639 209.253C264.18 208.894 264.363 208.123 264.363 207.399C264.316 206.67 264.045 206.081 263.545 206.081L250.988 207.67C250.493 207.305 250.04 206.805 249.811 206.217C249.587 205.628 249.811 205.269 250.493 205.087C250.628 205.04 251.352 204.904 252.712 204.769C254.118 204.633 255.566 204.498 257.201 204.269C258.831 204.045 260.285 203.769 261.644 203.451C263.003 203.133 263.816 202.821 263.998 202.41C264.41 201.456 264.41 199.826 264.092 198.378C263.863 196.925 263.321 195.701 262.956 195.342C262.868 195.295 262.592 195.295 262.139 195.295H260.555C259.238 195.342 257.472 195.43 255.795 195.566C254.071 195.748 252.123 195.837 250.764 196.019L247.769 196.337C247.045 196.337 246.727 197.196 246.727 197.967C246.727 198.831 247.092 199.555 247.498 199.508L260.144 198.196L260.238 198.514C260.326 198.738 260.42 198.967 260.462 199.238C260.508 199.779 260.597 200.415 260.238 200.644C260.191 200.826 259.42 200.962 258.107 201.144L253.529 201.686C251.894 201.868 250.081 202.139 248.722 202.368C247.41 202.545 246.368 202.821 246.05 203.045C245.415 203.592 245.503 204.675 245.868 205.899C246.227 207.035 246.686 208.258 247.045 208.982ZM260.915 175.982L260.779 179.607C260.644 180.696 260.597 181.92 260.238 183.326C260.055 184.008 260.779 184.415 261.597 184.462C262.503 184.503 263.321 184.279 263.727 183.555C264.316 182.238 264.545 180.019 264.633 178.024C264.68 176.076 264.498 174.399 264.498 173.852C264.269 172.764 263.68 172.493 262.139 172.311L251.758 172.675H250.081L242.149 173.399C241.649 173.628 241.472 174.441 241.514 175.305C241.561 176.076 241.967 176.8 242.738 176.665L248.722 176.029C248.722 178.883 248.722 181.378 247.951 184.097C247.769 184.821 248.498 185.274 249.404 185.321C250.175 185.368 251.123 185.139 251.441 184.462C252.394 182.102 252.394 179.154 252.394 176.118L260.915 175.982ZM256.472 190.852C258.378 190.67 260.238 190.446 261.962 190.264C263.68 190.081 265.269 189.852 266.899 189.493C267.488 189.311 267.764 188.493 267.764 187.722C267.764 187.045 267.488 186.321 266.899 186.498C263.91 187.045 259.42 187.587 254.889 187.998C250.399 188.404 245.868 188.769 242.785 188.811C242.467 188.857 242.285 188.993 242.243 189.311C242.061 189.628 242.014 189.993 242.061 190.352C242.243 191.076 242.555 191.758 243.149 191.712C244.508 191.847 245.956 191.758 247.498 191.712L253.212 191.17C253.212 192.029 253.253 192.529 253.3 193.029C253.3 193.571 253.347 193.977 253.482 194.389C253.482 194.93 254.389 195.113 255.342 195.066C256.201 195.024 257.019 194.795 256.883 194.295L256.472 190.852Z" fill="black"/>
<path d="M297.271 203.499C297.271 202.546 297.271 201.504 297.225 200.415C297.225 198.197 297.136 196.108 296.954 195.431C296.818 195.296 296.047 195.342 295.141 195.384C294.37 195.52 293.511 195.702 293.511 196.066L293.693 199.056L282.584 199.874L282.266 197.29C282.225 196.79 281.36 196.743 280.454 196.926C279.501 197.108 278.594 197.514 278.594 197.926L279.865 208.171C279.865 208.712 280.001 208.895 280.547 208.895C282.042 208.759 285.261 208.665 288.433 208.483C291.563 208.306 294.553 208.077 295.73 207.671C297.225 207.306 297.318 206.447 297.271 205.54V203.499ZM275.922 176.936C278.506 176.618 280.412 176.436 281.678 176.348C282.949 176.254 283.99 176.212 284.761 176.212C285.303 176.212 285.485 175.441 285.62 174.577C285.667 173.853 285.532 172.9 285.167 172.676C283.808 172.493 280.907 172.676 278.141 172.9C275.334 173.217 272.751 173.629 271.886 173.947C271.433 174.171 271.297 175.077 271.433 175.936C271.568 176.707 271.886 177.478 272.251 177.478C272.251 179.155 272.475 181.514 272.704 183.827C272.928 186.046 273.292 188.176 273.475 189.4C273.657 191.212 274.292 192.03 275.829 191.895C278.141 191.712 279.277 191.759 280.454 191.712C281.636 191.712 282.86 191.577 285.261 191.035C285.85 190.853 286.214 190.082 286.214 189.223C286.214 188.858 286.12 188.493 285.938 188.134C285.803 187.816 285.579 187.634 285.261 187.634C283.355 187.858 281.589 188.134 280.23 188.176C278.824 188.311 277.782 188.176 277.511 187.816C277.193 187.816 276.693 187.046 276.693 185.004C276.693 184.645 278.459 184.28 280.412 184.051C282.313 183.874 284.49 183.691 285.579 183.645C285.896 183.645 286.074 182.921 286.074 182.056C286.074 181.332 285.85 180.426 285.35 180.379C284.079 180.337 281.636 180.608 276.287 181.197L275.922 176.936ZM296.771 172.176C296.636 171.634 295.688 171.358 294.735 171.54C293.782 171.723 292.876 172.223 293.1 173.129C293.282 174.353 293.464 177.389 293.6 180.832C293.735 184.28 293.735 187.905 293.693 190.217C293.693 190.988 294.506 191.395 295.37 191.441C296.183 191.488 297.047 191.259 297.183 190.671L297.454 189.4L297.589 187.316C297.725 184.009 297.589 179.113 297.225 175.801C297.183 174.035 296.954 172.764 296.771 172.176ZM293.6 205.087L283.219 205.723L282.766 202.863L293.6 202.275V205.087Z" fill="black"/>
<path d="M333.709 174.259C333.532 173.129 332.803 172.811 331.125 172.858L328.183 173.035L323.193 173.4L318.115 173.806C316.438 173.946 315.308 174.035 314.719 174.17C314.172 174.306 313.99 175.077 314.037 175.936C314.084 176.665 314.355 177.436 315.079 177.389L329.719 176.301L329.178 183.327C328.995 184.233 329.902 184.686 330.855 184.686C331.855 184.686 332.849 184.327 333.032 183.733L333.709 174.259ZM312.542 191.894C311.818 191.941 311.589 192.712 311.724 193.436C311.771 194.16 312.178 194.884 312.86 194.842C315.667 194.66 320.386 194.389 324.917 194.025C329.584 193.618 334.209 193.165 337.021 192.436C337.563 192.394 337.792 191.577 337.792 190.717C337.745 189.946 337.474 189.176 336.928 189.176C335.433 189.4 333.167 189.764 330.584 190.129C328.089 190.488 325.235 190.759 322.605 190.941L322.74 185.275C322.516 184.686 321.652 184.504 320.839 184.551C320.021 184.686 319.25 185.004 319.25 185.368L318.662 191.259L312.542 191.894ZM324.553 206.67C322.922 206.764 321.563 206.764 320.428 206.629C319.339 206.493 318.75 205.946 318.75 204.905C318.615 202.957 319.75 201.91 323.464 201.733C327.589 201.368 329.995 202.41 330.131 204.045C330.131 206.082 328.318 206.446 324.553 206.67ZM314.99 205.176C314.99 207.488 316.261 208.624 318.115 209.301C319.839 209.889 322.198 209.983 324.464 209.801C327.23 209.618 329.631 209.301 331.219 208.394C332.761 207.535 333.709 206.176 333.709 203.952C333.573 201.821 332.214 200.415 330.313 199.509C328.271 198.65 325.777 198.379 323.375 198.556C318.297 198.785 314.808 200.78 314.99 205.176Z" fill="black"/>
<path d="M356.328 187.816C354.38 187.999 352.385 187.858 350.891 187.181C349.349 186.499 348.26 185.321 348.214 183.556C348.078 180.155 350.526 179.295 354.651 178.978C359.458 178.613 362.177 179.519 362.313 182.603C362.359 186.092 360.406 187.452 356.328 187.816ZM344.453 183.827C344.589 187.045 346.177 188.905 348.396 189.993C350.615 191.077 353.474 191.259 356.146 191.077C359.141 190.941 361.813 190.264 363.536 188.946C365.438 187.634 366.391 185.551 366.255 182.42C366.12 179.519 364.625 177.754 362.401 176.665C360.182 175.712 357.37 175.441 354.563 175.624C351.75 175.801 349.167 176.348 347.307 177.613C345.448 178.837 344.318 180.79 344.453 183.827ZM369.068 195.973C368.115 196.202 366.573 196.473 364.354 196.743L357.328 197.514C354.833 197.785 352.292 198.014 349.891 198.243L344.042 198.65C343.318 198.65 343.094 199.509 343.094 200.28C343.135 201.004 343.411 201.775 343.953 201.733L349.573 201.639V207.4C349.573 207.894 350.391 208.03 351.297 207.988C352.021 207.853 352.974 207.535 353.021 206.946L353.109 201.368L359.182 200.509C359.047 202.821 359.276 204.54 359.818 207.035C359.818 207.624 360.724 207.853 361.589 207.717C362.536 207.67 363.401 207.306 363.401 206.764C362.854 204.452 362.719 202.91 362.677 200.327L368.974 199.42C369.521 199.42 369.839 198.556 369.839 197.65C369.839 196.743 369.609 195.973 369.068 195.973Z" fill="black"/>
<path d="M375.098 205.086C375.098 205.446 374.733 205.81 374.374 206.175L373.332 207.123C372.832 207.534 372.968 208.347 373.374 208.941C373.785 209.618 374.462 209.982 375.369 209.435C377.457 208.029 378.405 204.498 377.77 201.909C377.634 200.279 375.957 199.373 374.78 199.42C373.238 199.555 372.197 200.691 372.332 202.862C372.332 204.269 373.603 205.628 375.098 205.086Z" fill="black"/>
<path d="M393.816 196.519L393.18 182.602L397.212 182.055L397.847 195.972L393.816 196.519ZM402.472 181.378C403.014 181.196 403.331 180.378 403.331 179.519C403.331 178.748 403.061 177.888 402.561 177.888C399.977 178.565 397.123 178.883 394.493 179.065C391.91 179.248 389.55 179.201 388.055 179.154C387.378 179.295 387.061 180.107 387.061 180.972C387.014 181.831 387.243 182.555 387.738 182.508L389.597 182.69L390.186 196.519H388.644C387.873 196.56 387.649 197.331 387.785 198.06C387.831 198.831 388.238 199.602 388.92 199.602C390.956 199.466 393.634 199.326 396.259 199.008C398.936 198.784 401.566 198.466 403.29 197.925C403.831 197.925 404.102 197.107 404.102 196.336C404.055 195.565 403.743 194.841 403.108 194.841L401.384 195.248L400.613 181.784L402.472 181.378ZM413.259 174.623C413.217 174.123 412.217 173.946 411.264 174.081C410.316 174.216 409.451 174.623 409.498 175.347C409.634 176.029 409.816 177.841 409.951 180.378C410.134 182.92 410.269 186.091 410.451 189.357C410.628 192.576 410.675 195.836 410.722 198.513C410.769 201.185 410.722 203.18 410.675 203.951C410.675 204.722 411.311 205.222 412.128 205.269C412.941 205.404 413.759 205.086 414.165 204.222C414.3 203.862 414.347 201.956 414.347 199.284C414.347 196.56 414.3 193.206 414.165 189.716L413.712 180.06C413.529 177.3 413.394 175.305 413.259 174.623Z" fill="black"/>
<path d="M441.28 175.346C440.598 175.305 439.15 175.258 437.29 175.305C435.431 175.346 433.254 175.482 431.17 175.664C429.04 175.846 426.91 176.029 425.41 176.346C423.874 176.57 422.785 176.888 422.738 177.206C422.332 178.07 422.42 180.518 422.65 183.19C422.785 185.773 423.144 188.451 423.327 189.674C423.509 191.44 424.186 192.122 425.728 191.982C427.999 191.805 431.077 191.711 434.118 191.529C437.196 191.352 440.28 191.122 442.681 190.581C443.363 190.398 443.634 189.628 443.634 188.857C443.634 188.133 443.275 187.362 442.681 187.362C440.827 187.586 437.243 187.997 433.889 188.221C430.535 188.451 427.634 188.539 427.316 188.174C426.952 188.039 426.634 186.18 426.457 184.232C426.228 182.284 426.092 180.336 426.41 180.018C426.592 179.789 427.363 179.607 428.723 179.471C430.082 179.294 431.624 179.154 433.301 179.018C434.931 178.93 436.519 178.836 438.061 178.794C439.603 178.747 440.644 178.701 441.186 178.701C441.733 178.701 441.957 178.023 441.957 177.253C441.957 176.482 441.686 175.711 441.28 175.346ZM445.446 199.872C444.358 200.19 442.681 200.461 440.374 200.732L433.071 201.414C430.535 201.638 428.087 201.773 425.775 201.909C423.462 202.049 421.696 202.091 420.514 202.091C419.749 202.138 419.608 203.044 419.79 203.951C419.972 204.815 420.514 205.674 421.285 205.539C422.467 205.581 424.415 205.539 426.681 205.357C427.816 205.31 428.993 205.221 430.217 205.128C431.488 205.039 432.754 204.951 434.025 204.815C436.519 204.586 439.056 204.315 441.051 204.086C443.134 203.862 444.723 203.544 445.629 203.315C446.217 203.133 446.353 202.273 446.311 201.414C446.264 200.549 445.858 199.872 445.446 199.872Z" fill="black"/>
<path d="M450.115 193.118C450.115 193.801 450.656 194.884 451.245 194.884C452.104 194.884 454.057 194.796 455.958 194.572C457.818 194.389 459.724 194.072 460.719 193.842C462.172 193.483 462.307 192.577 462.443 191.077C462.443 190.717 462.443 189.764 462.396 188.27L462.307 183.327L462.125 178.384C462.078 176.889 461.99 175.936 461.896 175.53C461.854 175.212 460.948 175.077 460.042 175.212C459.13 175.259 458.318 175.577 458.318 175.983L458.677 181.785L453.057 182.962L453.151 175.895C453.151 175.306 452.286 175.03 451.333 175.171C450.385 175.212 449.479 175.577 449.479 176.118C449.297 178.296 449.344 181.738 449.479 185.139C449.615 188.452 449.75 191.671 450.115 193.118ZM477.807 190.535C477.807 189.947 477.807 189.311 477.854 188.54V182.962C477.854 180.973 477.807 178.837 477.807 177.072C477.766 175.306 477.719 173.9 477.719 173.035C477.672 172.493 476.719 172.223 475.812 172.176C474.906 172.176 474 172.311 474.047 172.676L474.411 181.467L470.828 182.691L470.557 173.488C470.51 172.947 469.516 172.629 468.562 172.764C467.656 172.811 466.75 173.264 466.792 174.171C466.792 174.712 466.839 176.077 466.885 177.754C467.021 179.384 467.021 181.514 467.156 183.556C467.292 185.728 467.339 187.858 467.521 189.676C467.656 191.53 467.792 192.983 467.974 193.754C467.974 194.254 468.833 194.389 469.693 194.342C470.599 194.296 471.37 193.936 471.37 193.389L470.828 185.868L474.318 184.733L474.635 192.077C474.411 192.436 475.177 192.53 476.089 192.395C476.854 192.348 477.766 192.03 477.807 191.624V190.535ZM456.37 203.046C456.594 203.046 457.771 202.91 459.13 202.728L464.208 202.228C465.932 202.051 467.839 201.91 469.151 201.868C470.51 201.822 471.505 201.91 471.734 202.092L471.646 207.217C471.646 207.759 472.37 207.853 473.229 207.671C474.047 207.535 474.953 207.171 475 206.764C475.135 206.082 475.224 204.181 475.224 202.368C475.224 200.509 475.135 198.785 474.724 198.556C474.271 198.421 473.005 198.379 471.328 198.421C469.604 198.467 467.427 198.556 465.391 198.697C463.255 198.874 461.083 199.103 459.406 199.285C457.547 199.509 456.229 199.691 455.823 199.874C455.417 200.056 455.323 200.868 455.464 201.639C455.505 202.41 455.958 203.092 456.37 203.046ZM458.859 190.941L453.604 191.806L453.151 185.775L458.859 184.645V190.941Z" fill="black"/>
<path d="M491.772 184.731C491.814 187.768 493.356 189.492 495.444 190.533C497.528 191.486 500.111 191.71 502.512 191.528C505.142 191.351 507.543 190.757 509.22 189.492C510.856 188.268 511.804 186.361 511.762 183.507C511.397 178.158 506.048 176.752 501.246 177.117C496.168 177.476 491.408 179.153 491.772 184.731ZM509.361 200.825C509.314 199.601 509.314 198.648 509.361 197.783V195.518C509.179 194.929 508.361 194.705 507.455 194.705C506.684 194.747 505.866 195.023 505.866 195.429L505.413 201.367L499.022 201.731L498.205 197.377C498.163 196.518 497.298 196.424 496.392 196.606C495.486 196.742 494.627 197.153 494.673 197.377L495.35 201.82L489.278 202.273C488.507 202.32 488.236 203.132 488.278 203.997C488.418 204.768 488.731 205.58 489.46 205.539C492.225 205.356 497.345 205.085 502.377 204.721C507.455 204.356 512.486 203.95 515.252 203.226C515.793 203.179 516.111 202.273 516.111 201.367C516.111 200.46 515.793 199.69 515.252 199.872L509.361 200.825ZM502.694 188.085C500.97 188.268 499.158 188.085 497.845 187.544C496.486 187.044 495.533 186.091 495.533 184.643C495.35 181.736 497.439 180.971 501.335 180.653C505.46 180.424 507.543 181.012 507.679 183.554C507.955 186.591 506.231 187.903 502.694 188.085Z" fill="black"/>
<path d="M525.177 173.488C525.359 174.758 525.401 176.847 525.359 178.43C523.318 178.566 521.505 178.659 520.187 178.701C519.417 178.748 519.146 179.566 519.146 180.425C519.099 181.284 519.375 182.055 520.01 182.055L525.401 181.696L525.495 187.545L520.01 190.128C519.781 190.623 519.917 191.488 520.234 192.258C520.463 193.029 520.958 193.571 521.323 193.389L527.625 190.941L533.922 192.982C534.239 193.3 534.786 192.712 535.328 191.941C535.828 191.17 536.146 190.217 535.828 189.852L529.344 187.227L529.255 181.467C529.755 181.467 530.708 181.331 531.792 181.284C532.88 181.149 534.016 181.107 534.922 180.925C535.375 180.878 535.557 180.061 535.51 179.201C535.463 178.43 535.193 177.659 534.651 177.659C532.974 177.842 531.021 177.977 529.167 178.159C529.208 176.347 529.026 175.076 528.667 173.217C528.484 172.311 527.489 171.993 526.354 172.175C525.448 172.311 525.177 173.264 525.177 173.488ZM542.766 185.368C542.766 186.68 542.901 188.451 542.943 189.899C543.083 191.488 543.083 192.665 543.083 193.029C543.307 193.524 544.167 193.659 545.073 193.482C546.026 193.3 546.844 192.8 546.844 191.894C546.75 191.123 546.661 189.628 546.614 187.857C546.479 186.045 546.391 183.873 546.255 181.831C546.12 179.79 545.984 177.706 545.802 176.118C545.667 174.488 545.437 173.264 545.302 172.764C545.12 172.04 544.26 171.811 543.489 171.857C542.672 171.857 541.766 172.222 541.719 172.764L542.401 181.696C541.13 182.055 539.818 182.331 538.458 182.555C537.141 182.784 536.052 182.962 535.375 183.144C534.833 183.191 534.604 184.05 534.651 184.956C534.693 185.821 534.969 186.68 535.557 186.68C536.463 186.545 537.505 186.409 538.776 186.18C539.953 186.003 541.401 185.727 542.766 185.368ZM535.917 205.269C534.286 205.404 532.88 205.446 531.792 205.128C530.797 204.816 530.026 204.222 530.026 202.956C529.891 200.597 531.114 199.42 534.833 199.238C538.958 198.873 541.224 199.962 541.359 202.092C541.401 204.498 539.682 205.04 535.917 205.269ZM526.266 203.227C526.307 205.722 527.578 207.034 529.344 207.758C531.161 208.347 533.469 208.441 535.739 208.258C538.5 208.076 540.859 207.758 542.536 206.805C544.078 205.899 545.031 204.404 544.984 202.003C544.849 199.691 543.443 198.149 541.542 197.196C539.588 196.337 537.052 195.972 534.651 196.154C529.573 196.472 526.083 198.467 526.266 203.227Z" fill="black"/>
<path d="M562.845 205.174C562.845 207.486 564.116 208.622 565.97 209.299C567.694 209.888 570.054 209.981 572.319 209.799C575.085 209.617 577.486 209.299 579.075 208.393C580.616 207.533 581.564 206.174 581.564 203.95C581.429 201.82 580.069 200.414 578.168 199.507C576.127 198.648 573.632 198.377 571.231 198.554C566.153 198.783 562.663 200.778 562.845 205.174ZM580.976 173.216C577.215 172.856 564.887 173.804 562.663 175.71C562.075 176.299 562.028 178.023 562.21 179.835C562.392 181.695 562.663 183.554 562.663 184.643C562.71 186.32 563.028 186.726 564.705 186.591C566.923 186.455 570.007 186.32 573.226 186.002C576.351 185.773 579.569 185.367 582.017 184.82C582.653 184.643 583.017 183.96 583.017 183.278C583.017 182.554 582.7 181.966 582.111 181.966L578.21 182.466C576.58 182.69 574.903 182.872 573.272 183.054C569.871 183.419 566.923 183.596 566.606 183.236C566.382 183.054 566.017 181.966 565.793 180.83C565.611 179.7 565.517 178.565 565.929 178.247C566.335 177.841 569.101 177.341 572.272 176.981C575.356 176.617 578.892 176.346 580.887 176.481C581.293 176.481 581.522 175.71 581.522 174.94C581.522 174.169 581.387 173.398 580.976 173.216ZM584.647 189.674C583.559 189.992 581.84 190.263 579.569 190.58C577.351 190.898 574.991 191.169 572.502 191.44C567.559 191.981 562.616 192.434 560.304 192.617C559.491 192.664 559.127 193.481 559.262 194.252C559.309 195.023 559.762 195.747 560.533 195.7C561.075 195.7 561.845 195.7 562.798 195.653C563.752 195.611 564.793 195.518 565.882 195.429C568.101 195.2 570.731 195.023 573.226 194.705C575.72 194.388 578.21 194.07 580.252 193.752C582.382 193.434 583.97 193.205 584.877 192.893C586.007 192.664 586.189 189.445 584.647 189.674ZM572.408 206.669C570.778 206.763 569.418 206.763 568.283 206.627C567.194 206.492 566.606 205.945 566.606 204.903C566.47 202.955 567.606 201.908 571.319 201.731C575.444 201.367 577.851 202.408 577.986 204.044C577.986 206.08 576.173 206.445 572.408 206.669Z" fill="black"/>
<path d="M610.759 178.978C609.446 178.795 606.498 178.795 603.686 179.113C600.92 179.337 598.337 179.748 597.977 180.29C597.701 180.655 597.66 181.879 597.701 183.462C597.748 185.05 597.977 187.134 598.16 189.129C598.654 193.207 599.066 197.379 599.201 198.467C599.378 200.144 599.837 200.691 601.42 200.509C603.644 200.373 605.227 200.415 606.769 200.233C608.264 200.097 609.852 199.873 612.165 199.149C612.842 198.967 613.207 198.103 613.253 197.332C613.253 196.561 612.889 195.837 612.347 195.884C610.441 196.29 608.222 196.655 606.498 196.837C604.727 197.019 603.326 197.061 602.962 196.701C602.779 196.655 602.644 195.837 602.42 194.571C602.238 193.3 602.055 191.712 601.92 190.129C601.738 188.54 601.649 186.91 601.602 185.639V184.144C601.602 183.733 601.649 183.509 601.738 183.42C602.144 182.92 603.868 182.691 605.68 182.649C607.587 182.509 609.488 182.556 610.759 182.509C611.529 182.509 611.847 181.738 611.847 180.879C611.847 180.019 611.529 179.155 610.759 178.978ZM620.733 174.259C620.415 173.717 619.462 173.582 618.555 173.764C617.602 173.946 616.832 174.353 616.967 175.076L617.332 179.925C617.514 182.332 617.649 185.457 617.832 188.587C618.014 191.806 618.149 194.931 618.191 197.649C618.238 200.373 618.285 202.545 618.238 203.681C618.238 204.54 618.962 204.905 619.868 204.905C620.686 204.905 621.592 204.498 621.91 203.769L621.821 189.582L626.035 188.811C626.399 188.811 626.535 188.587 626.582 188.269C626.623 188.134 626.623 187.951 626.623 187.769V187.228C626.488 186.457 626.035 185.728 625.67 185.774L621.545 186.41C621.274 184.733 621.139 182.014 621.003 179.519L620.733 174.259Z" fill="black"/>
<path d="M636.501 176.57C633.105 176.799 631.288 177.658 630.199 178.976C629.069 180.289 628.887 182.33 629.069 184.914C629.116 187.768 629.704 190.169 631.064 191.757C632.423 193.388 634.465 194.252 637.819 194.023C643.845 193.658 645.251 188.903 644.98 183.731C644.845 180.971 644.392 179.153 643.074 177.929C641.809 176.846 639.678 176.393 636.501 176.57ZM635.824 204.45C635.866 206.763 637.137 207.893 638.861 208.575C640.72 209.164 643.033 209.252 645.298 209.075C650.871 208.664 653.772 206.763 653.59 202.367C653.454 200.19 652.324 199.054 650.647 198.33C648.97 197.648 646.658 197.56 644.257 197.742C639.132 198.101 635.642 200.054 635.824 204.45ZM651.283 173.216C651.1 172.674 650.147 172.58 649.241 172.763C648.335 172.992 647.611 173.533 647.788 174.44C647.928 174.94 648.017 176.075 648.105 177.794C648.241 179.518 648.335 181.424 648.423 183.554C648.517 185.685 648.605 187.815 648.652 189.851C648.741 191.893 648.788 193.523 648.788 194.658C648.788 195.429 649.423 195.794 650.194 195.747C650.918 195.747 651.736 195.429 651.913 194.747L652.053 189.492L657.085 189.08C657.626 189.039 657.673 188.174 657.626 187.315C657.491 186.544 657.22 185.773 656.767 185.773L652.142 185.955L652.007 182.054L656.491 181.56C656.673 181.513 656.809 181.242 656.809 180.877C656.855 180.695 656.855 180.518 656.855 180.336V179.7C656.673 178.929 656.314 178.294 655.902 178.341L651.913 178.882L651.283 173.216ZM632.647 185.002C632.512 183.054 632.647 181.966 633.194 181.283C633.783 180.56 634.871 180.377 636.684 180.2C638.454 180.153 639.585 180.018 640.267 180.518C640.991 180.924 641.262 181.966 641.309 184.007C641.491 188.403 640.944 189.992 637.908 190.216C634.189 190.716 632.694 188.81 632.647 185.002ZM645.48 205.898C643.803 206.033 642.439 206.08 641.309 205.945C640.173 205.81 639.632 205.268 639.585 204.221C639.585 202.226 640.626 201.231 644.345 200.914C648.47 200.69 649.829 200.778 650.012 202.408C650.059 204.539 649.241 205.721 645.48 205.898Z" fill="black"/>
<path d="M668.279 181.878C665.242 182.055 663.383 183.237 662.206 184.867C661.07 186.498 660.711 188.675 660.846 190.852C661.023 195.565 664.107 196.607 669.638 196.248C673.992 196.065 675.758 193.206 675.711 188.992C675.576 186.633 675.258 184.779 674.128 183.508C672.992 182.237 671.227 181.696 668.279 181.878ZM682.648 173.31C682.284 172.763 681.336 172.675 680.43 172.857C679.659 173.034 678.841 173.581 679.023 174.352C679.112 174.893 679.247 176.029 679.43 177.753L680.018 183.373C680.201 185.409 680.336 187.451 680.471 189.446C680.607 191.44 680.789 192.982 680.836 194.117C680.607 194.977 681.336 195.248 682.148 195.248C682.919 195.248 683.784 194.977 684.102 194.295C684.372 192.711 684.19 188.904 684.19 186.138L687.909 185.503C688.315 185.367 688.451 184.461 688.451 183.732C688.133 183.008 687.727 182.373 687.315 182.42L683.826 183.055C683.643 181.649 683.466 179.472 683.237 177.477C683.013 175.482 682.831 173.716 682.648 173.31ZM684.779 203.951C684.143 204.086 683.102 204.222 681.513 204.357L676.617 204.768C674.987 204.904 673.445 205.039 672.133 205.086C670.815 205.128 670.185 205.128 670.138 205.086C669.685 204.722 669.414 203.815 669.367 202.909C669.32 202.503 669.279 202.091 669.279 201.685V200.826C669.279 200.508 668.367 200.414 667.419 200.55C666.513 200.69 665.56 201.05 665.513 201.638C665.466 202.545 665.56 204.045 665.742 205.446C665.966 206.852 666.284 208.123 666.831 208.44C667.008 208.482 668.143 208.482 669.685 208.44C672.945 208.305 677.935 208.029 681.378 207.67C683.148 207.487 684.461 207.258 685.008 207.034C685.367 206.852 685.503 206.034 685.461 205.31C685.279 204.586 685.096 203.951 684.779 203.951ZM669.732 176.664C669.773 174.711 669.732 173.67 669.367 171.81C669.049 170.862 668.143 170.545 667.008 170.727C666.102 170.862 665.742 171.768 665.878 171.992C665.919 172.857 666.102 173.534 666.148 174.399C666.284 175.17 666.284 175.935 666.148 176.847C664.336 177.024 662.388 177.117 660.529 177.117C659.44 177.117 659.305 178.112 659.305 178.883C659.305 179.748 659.44 180.472 660.753 180.654C662.565 180.654 665.466 180.518 668.143 180.336C670.815 180.107 673.357 179.883 674.628 179.518C675.576 179.295 675.846 178.295 675.805 177.206C675.669 176.435 674.669 176.117 674.445 176.117L669.732 176.664ZM664.107 190.305C663.93 187.086 665.424 185.591 668.367 185.409C669.82 185.367 670.862 185.55 671.409 186.003C671.904 186.409 672.221 187.498 672.315 189.175C672.221 190.581 672.039 191.487 671.721 191.982C671.451 192.482 670.727 192.8 669.638 193.029C668.549 193.206 667.19 193.347 666.06 192.982C664.924 192.664 664.107 191.893 664.107 190.305Z" fill="black"/>
<path d="M708.527 175.801C708.485 176.53 708.438 178.072 708.438 179.655C708.438 181.243 708.391 182.962 708.35 184.098L699.6 188.54C699.282 189.082 699.917 189.717 700.641 190.217C701.412 190.759 702.23 191.077 702.542 190.759L710.568 187.816L722.537 189.493C723.032 189.9 723.85 189.493 724.574 188.905C725.162 188.223 725.709 187.452 725.303 186.952L712.563 184.28C712.381 183.238 712.334 181.426 712.334 179.79C712.334 178.113 712.292 176.53 712.292 175.624C712.245 175.03 711.292 174.759 710.386 174.806C709.48 174.853 708.527 175.259 708.527 175.801ZM700.506 202.504C699.917 202.546 699.641 203.41 699.824 204.27C699.959 205.04 700.324 205.858 700.865 205.811C703.313 205.811 708.074 205.582 712.928 205.087C717.777 204.676 722.714 204.134 725.574 203.592C726.115 203.546 726.386 202.592 726.386 201.686C726.344 200.78 726.115 199.962 725.574 200.145C724.667 200.374 722.896 200.551 720.766 200.78C718.683 201.098 716.053 201.368 713.605 201.733L713.423 197.743C713.381 197.061 712.475 196.926 711.563 196.973C710.615 197.108 709.751 197.473 709.751 197.832L709.844 202.186L700.506 202.504Z" fill="black"/>
<path d="M736.23 176.299C738.86 176.076 742.168 175.799 745.204 175.622L751.506 175.169C752.048 175.169 752.277 174.44 752.412 173.716C752.459 172.945 752.277 172.174 751.912 171.992C751.188 171.951 749.735 171.951 747.881 171.992L741.621 172.445C739.402 172.628 737.225 172.898 735.548 173.081C733.782 173.31 732.511 173.534 732.105 173.581C731.558 173.898 731.517 174.669 731.558 175.44C731.694 176.164 732.011 176.846 732.376 176.846C732.423 178.247 732.647 180.107 732.876 181.737C733.147 183.508 733.371 185.049 733.553 186.138C733.782 187.721 734.506 188.404 736.048 188.268C738.313 188.086 741.032 188.039 743.845 187.857C746.61 187.721 749.464 187.497 751.912 186.951C752.595 186.815 752.819 186.091 752.819 185.367C752.819 184.596 752.501 183.872 751.912 183.732C750.053 184.049 746.657 184.367 743.662 184.549C740.579 184.732 737.954 184.779 737.725 184.549C737.36 184.549 736.907 184.185 736.907 182.602C736.907 182.237 740.355 182.013 743.933 181.648C745.657 181.466 747.563 181.378 749.058 181.242C750.642 181.107 751.824 181.06 752.366 181.013C752.683 181.013 752.819 180.336 752.777 179.607C752.73 178.883 752.501 178.112 752.006 178.07C751.371 177.93 748.829 178.112 745.746 178.341C742.756 178.659 739.178 178.977 736.548 179.154L736.23 176.299ZM734.142 206.081C734.188 208.122 735.459 209.211 737.183 209.753C739.037 210.253 741.35 210.299 743.616 210.117C746.381 209.935 748.787 209.617 750.329 208.758C751.912 207.987 752.777 206.716 752.777 204.721C752.73 202.862 751.324 201.596 749.464 200.732C747.517 200.008 745.022 199.69 742.621 199.872C737.496 200.232 733.918 202.138 734.142 206.081ZM740.761 193.935C738.178 194.294 736.136 194.388 734.642 194.523C733.011 194.57 731.97 194.659 731.241 194.659C730.517 194.794 730.293 195.518 730.428 196.247C730.61 196.924 731.017 197.607 731.605 197.56C732.558 197.695 734.324 197.56 736.366 197.378C738.496 197.195 740.944 196.971 743.392 196.654L747.11 196.201C748.334 196.065 749.464 195.883 750.464 195.747C752.548 195.43 754.225 195.247 755.178 195.065C755.949 194.883 756.267 194.023 756.267 193.164C756.267 192.393 755.902 191.576 755.178 191.622L744.345 193.117L744.527 190.398C744.527 190.034 743.662 189.898 742.845 189.945C741.938 189.992 741.079 190.263 741.079 190.487L740.761 193.935ZM743.798 207.122C742.121 207.258 740.761 207.305 739.631 207.216C738.496 207.169 737.954 206.669 737.907 205.81C737.772 204.133 738.996 203.18 742.709 202.862C746.793 202.638 749.058 203.409 749.194 204.815C749.241 206.628 747.563 206.898 743.798 207.122Z" fill="black"/>
<path d="M763.876 179.43C764.011 182.284 765.277 183.779 767.136 184.549C769.042 185.409 771.49 185.367 773.938 185.185C776.928 185.003 779.376 184.643 781.006 183.555C782.683 182.508 783.594 180.831 783.454 178.07C783.318 175.393 781.959 173.852 779.923 172.992C777.928 172.086 775.251 171.992 772.667 172.174C769.996 172.31 767.683 172.763 766.183 173.852C764.6 174.893 763.693 176.664 763.876 179.43ZM766.324 209.253C766.912 210.523 767.683 210.794 768.813 210.659C769.584 210.659 772.667 210.388 775.751 210.164C778.787 209.935 781.959 209.617 782.912 209.435C783.454 209.117 783.683 208.346 783.683 207.622C783.636 206.898 783.412 206.31 782.912 206.31L770.266 207.94C769.766 207.622 769.36 207.258 769.131 206.763C768.907 206.263 769.084 205.945 769.766 205.81C769.902 205.763 770.626 205.628 772.032 205.492C773.391 205.357 774.844 205.174 776.475 204.95C778.105 204.721 779.558 204.497 780.917 204.221C782.277 203.997 783.094 203.68 783.277 203.315C783.683 202.409 783.683 200.961 783.454 199.69C783.136 198.284 782.73 197.195 782.324 196.836C782.23 196.789 781.959 196.789 781.553 196.789H779.923C778.605 196.836 776.881 196.924 775.162 197.06C773.35 197.242 771.49 197.331 770.131 197.513L767.136 197.831C766.412 197.831 766.141 198.602 766.141 199.372C766.141 200.143 766.459 200.867 766.865 200.825L779.511 199.602L779.605 199.872L779.74 200.508C779.782 200.914 779.923 201.503 779.605 201.732C779.558 201.867 778.787 201.909 777.475 202.049C776.204 202.227 774.615 202.32 772.897 202.544C771.219 202.727 769.402 202.956 768.042 203.18C766.73 203.409 765.641 203.727 765.324 203.95C764.688 204.357 764.782 205.357 765.141 206.445C765.506 207.534 765.959 208.664 766.324 209.253ZM786.673 188.357C785.584 188.674 783.907 188.945 781.641 189.221L774.48 189.898C771.943 190.128 769.496 190.263 767.183 190.398C764.871 190.487 763.147 190.534 761.969 190.487C761.605 190.534 761.334 190.716 761.287 191.075C761.152 191.44 761.152 191.846 761.246 192.258C761.428 193.117 761.923 193.888 762.74 193.841C763.917 193.841 765.777 193.799 768.001 193.617C770.266 193.482 772.803 193.299 775.298 193.07C777.787 192.893 780.282 192.617 782.277 192.393C784.318 192.164 785.949 191.846 786.855 191.622C787.443 191.44 787.579 190.581 787.537 189.81C787.49 189.039 787.084 188.357 786.673 188.357ZM774.121 182.055C772.397 182.237 770.855 182.237 769.678 181.831C768.36 181.513 767.683 180.654 767.636 179.154C767.589 177.612 767.907 176.617 768.678 176.211C769.449 175.799 770.855 175.482 772.756 175.346C777.157 174.987 779.693 175.211 779.829 178.07C779.876 181.013 778.063 181.831 774.121 182.055Z" fill="black"/>
<path d="M807.302 172.581C804.354 172.811 802.588 173.717 801.5 175.123C800.546 176.529 800.187 178.43 800.323 180.654C800.546 185.41 803.448 187.951 808.932 187.451C811.562 187.269 813.239 186.41 814.239 185.003C815.187 183.555 815.463 181.696 815.416 179.519C815.234 174.67 812.562 172.222 807.302 172.581ZM822.625 185.41C821.76 185.727 820.677 185.956 819.494 186.003C818.317 186.045 817.411 186.003 816.776 185.956C816.276 186.003 816.005 186.816 816.005 187.587C816.005 188.451 816.234 189.222 816.776 189.222C818.546 189.535 820.677 189.493 822.895 188.811C822.942 191.576 823.031 193.753 823.166 194.477C823.349 194.795 824.255 194.842 825.026 194.66C825.932 194.477 826.656 194.071 826.656 193.206L826.432 189.222L826.203 183.373L826.067 177.753C826.026 176.029 826.067 174.941 826.114 174.441C826.161 173.764 825.432 173.488 824.619 173.535C823.713 173.581 822.807 173.899 822.76 174.441L822.625 185.41ZM824.573 203.951C823.937 204.087 822.895 204.222 821.307 204.358L816.411 204.769C814.781 204.904 813.239 205.04 811.927 205.087C810.609 205.128 809.979 205.128 809.932 205.087C809.479 204.722 809.208 203.816 809.161 202.91C809.114 202.503 809.073 202.092 809.073 201.686V200.826C809.073 200.509 808.161 200.415 807.213 200.55C806.307 200.691 805.354 201.05 805.307 201.639C805.26 202.545 805.354 204.045 805.536 205.446C805.76 206.852 806.078 208.123 806.625 208.441C806.802 208.483 807.937 208.483 809.479 208.441C812.739 208.305 817.729 208.029 821.171 207.67C822.942 207.488 824.255 207.259 824.802 207.035C825.161 206.852 825.296 206.035 825.255 205.311C825.073 204.587 824.89 203.951 824.573 203.951ZM815.599 193.389C816.14 193.206 816.052 192.529 815.869 191.805C815.599 191.123 815.145 190.488 814.963 190.488C813.963 190.852 810.974 191.076 807.849 191.394C804.63 191.623 801.276 191.805 799.599 191.805C799.369 191.805 799.187 192.665 799.234 193.524C799.323 194.43 799.64 195.248 800.229 195.248C801.317 195.384 802.994 195.295 804.489 195.16C805.989 195.113 807.437 194.977 808.255 194.842L808.437 199.055C808.479 199.555 809.526 199.691 810.474 199.555C811.38 199.509 812.333 199.191 812.109 198.696L811.562 194.477L815.599 193.389ZM803.724 180.472C803.583 177.389 804.265 176.347 807.39 176.029C808.755 175.983 809.75 176.165 810.567 176.571C811.38 176.983 811.833 178.071 811.927 179.748C811.927 181.561 811.791 182.602 811.38 183.191C810.838 183.733 810.203 183.962 808.932 184.009C807.573 184.186 806.307 184.05 805.307 183.597C804.312 183.102 803.765 182.055 803.724 180.472Z" fill="black"/>
<path d="M838.896 181.878C835.859 182.055 834 183.237 832.823 184.867C831.687 186.498 831.328 188.675 831.464 190.852C831.641 195.565 834.724 196.607 840.255 196.248C844.609 196.065 846.375 193.206 846.328 188.992C846.193 186.633 845.875 184.779 844.745 183.508C843.609 182.237 841.844 181.696 838.896 181.878ZM853.266 173.31C852.901 172.763 851.953 172.675 851.047 172.857C850.276 173.034 849.458 173.581 849.641 174.352C849.729 174.893 849.865 176.029 850.047 177.753L850.635 183.373C850.818 185.409 850.953 187.451 851.089 189.446C851.224 191.44 851.406 192.982 851.453 194.117C851.224 194.977 851.953 195.248 852.766 195.248C853.536 195.248 854.401 194.977 854.719 194.295C854.99 192.711 854.807 188.904 854.807 186.138L858.526 185.503C858.932 185.367 859.068 184.461 859.068 183.732C858.75 183.008 858.344 182.373 857.932 182.42L854.443 183.055C854.26 181.649 854.083 179.472 853.854 177.477C853.63 175.482 853.448 173.716 853.266 173.31ZM855.396 203.951C854.76 204.086 853.719 204.222 852.13 204.357L847.234 204.768C845.604 204.904 844.063 205.039 842.75 205.086C841.432 205.128 840.802 205.128 840.755 205.086C840.302 204.722 840.031 203.815 839.984 202.909C839.937 202.503 839.896 202.091 839.896 201.685V200.826C839.896 200.508 838.984 200.414 838.036 200.55C837.13 200.69 836.177 201.05 836.13 201.638C836.083 202.545 836.177 204.045 836.359 205.446C836.583 206.852 836.901 208.123 837.448 208.44C837.625 208.482 838.76 208.482 840.302 208.44C843.562 208.305 848.552 208.029 851.995 207.67C853.766 207.487 855.078 207.258 855.625 207.034C855.984 206.852 856.12 206.034 856.078 205.31C855.896 204.586 855.714 203.951 855.396 203.951ZM840.349 176.664C840.391 174.711 840.349 173.67 839.984 171.81C839.667 170.862 838.76 170.545 837.625 170.727C836.719 170.862 836.359 171.768 836.495 171.992C836.536 172.857 836.719 173.534 836.766 174.399C836.901 175.17 836.901 175.935 836.766 176.847C834.953 177.024 833.005 177.117 831.146 177.117C830.057 177.117 829.922 178.112 829.922 178.883C829.922 179.748 830.057 180.472 831.37 180.654C833.182 180.654 836.083 180.518 838.76 180.336C841.432 180.107 843.974 179.883 845.245 179.518C846.193 179.295 846.464 178.295 846.422 177.206C846.286 176.435 845.286 176.117 845.062 176.117L840.349 176.664ZM834.724 190.305C834.547 187.086 836.042 185.591 838.984 185.409C840.437 185.367 841.479 185.55 842.026 186.003C842.521 186.409 842.839 187.498 842.932 189.175C842.839 190.581 842.656 191.487 842.339 191.982C842.068 192.482 841.344 192.8 840.255 193.029C839.167 193.206 837.807 193.347 836.677 192.982C835.542 192.664 834.724 191.893 834.724 190.305Z" fill="black"/>
<path d="M873.845 178.978C872.532 178.795 869.584 178.795 866.772 179.113C864.006 179.337 861.423 179.748 861.063 180.29C860.787 180.655 860.746 181.879 860.787 183.462C860.834 185.05 861.063 187.134 861.246 189.129C861.74 193.207 862.152 197.379 862.287 198.467C862.464 200.144 862.923 200.691 864.506 200.509C866.73 200.373 868.313 200.415 869.855 200.233C871.35 200.097 872.938 199.873 875.251 199.149C875.928 198.967 876.292 198.103 876.339 197.332C876.339 196.561 875.975 195.837 875.433 195.884C873.527 196.29 871.308 196.655 869.584 196.837C867.813 197.019 866.412 197.061 866.048 196.701C865.865 196.655 865.73 195.837 865.506 194.571C865.324 193.3 865.141 191.712 865.006 190.129C864.824 188.54 864.735 186.91 864.688 185.639V184.144C864.688 183.733 864.735 183.509 864.824 183.42C865.23 182.92 866.954 182.691 868.766 182.649C870.673 182.509 872.574 182.556 873.845 182.509C874.615 182.509 874.933 181.738 874.933 180.879C874.933 180.019 874.615 179.155 873.845 178.978ZM883.819 174.259C883.501 173.717 882.548 173.582 881.641 173.764C880.688 173.946 879.917 174.353 880.053 175.076L880.417 179.925C880.6 182.332 880.735 185.457 880.917 188.587C881.1 191.806 881.235 194.931 881.277 197.649C881.324 200.373 881.371 202.545 881.324 203.681C881.324 204.54 882.048 204.905 882.954 204.905C883.772 204.905 884.678 204.498 884.996 203.769L884.907 189.582L889.121 188.811C889.485 188.811 889.621 188.587 889.667 188.269C889.709 188.134 889.709 187.951 889.709 187.769V187.228C889.574 186.457 889.121 185.728 888.756 185.774L884.631 186.41C884.36 184.733 884.225 182.014 884.089 179.519L883.819 174.259Z" fill="black"/>
<path d="M895.193 176.118C893.562 176.3 892.474 176.529 892.245 178.701C892.068 179.748 892.156 182.555 892.338 185.456C892.521 188.404 892.745 191.394 893.109 192.529C893.109 194.024 893.651 194.253 894.922 194.118C895.917 194.118 898.047 193.936 900.088 193.706C902.083 193.482 904.125 193.253 905.073 192.894C906.161 192.665 906.391 191.712 906.344 190.852V189.899L906.432 190.217C906.573 190.535 906.708 190.67 906.891 190.67C907.614 190.805 909.198 190.67 910.786 190.488C912.281 190.305 913.958 189.993 915.141 189.764L915.453 195.519C915.635 196.066 916.588 196.248 917.495 196.066C918.448 195.883 919.307 195.477 919.307 194.571C919.266 193.66 919.219 191.894 919.083 189.852C919.036 187.816 918.901 185.368 918.672 183.008C918.536 180.654 918.354 178.295 918.219 176.436C918.042 174.623 917.901 173.217 917.766 172.675C917.583 171.993 916.724 171.811 915.771 171.811C914.864 171.857 913.958 172.128 913.958 172.675L914.37 178.071C913.417 178.43 911.922 178.66 910.422 178.795C908.88 178.93 907.521 178.977 906.797 178.977C906.614 179.019 906.479 179.201 906.432 179.566L906.344 179.925C906.344 179.566 906.344 179.201 906.297 178.883C906.161 177.477 905.937 176.394 905.667 175.982C905.167 175.623 902.854 175.576 900.453 175.712C898.047 175.847 895.734 176.076 895.193 176.118ZM917.948 203.863C917.312 204.045 916.047 204.18 914.547 204.316L909.292 204.722C907.568 204.904 905.844 204.993 904.531 205.04C903.219 205.175 902.401 205.128 902.401 205.087C901.948 204.722 901.677 203.816 901.63 202.91C901.583 202.503 901.542 202.092 901.542 201.686V200.826C901.542 200.508 900.63 200.415 899.682 200.55C898.776 200.691 897.823 201.05 897.776 201.639C897.729 202.545 897.823 204.045 898.005 205.446C898.229 206.852 898.547 208.123 899.094 208.441C899.271 208.482 900.453 208.482 902.083 208.441C903.807 208.394 905.979 208.258 908.156 208.076C910.38 208.029 912.599 207.805 914.458 207.623C916.271 207.399 917.63 207.17 918.219 206.946C918.583 206.764 918.672 205.993 918.63 205.269C918.495 204.498 918.266 203.863 917.948 203.863ZM897.141 179.337C897.552 179.337 898.635 179.201 899.771 179.154C900.906 179.113 901.995 179.113 902.401 179.337C902.807 179.654 902.989 182.238 902.989 184.915C902.943 187.587 902.672 190.128 902.266 190.305L896.958 191.17L896.281 190.217L895.828 180.472C895.781 179.925 895.963 179.748 896.281 179.566C896.552 179.43 896.958 179.383 897.141 179.337ZM915.141 186.498C913.87 186.998 912.099 187.18 910.422 187.316C908.745 187.498 907.25 187.545 906.526 187.545L906.432 187.633V183.826C906.432 182.962 906.432 182.149 906.391 181.285V181.014L906.573 181.785C906.661 182.102 906.797 182.238 906.979 182.238C908.703 182.738 911.739 182.196 914.729 181.467L915.141 186.498Z" fill="black"/>
<path d="M124.021 237.259C123.844 236.129 123.115 235.811 121.438 235.858L118.495 236.035L113.506 236.4L108.428 236.806C106.75 236.946 105.62 237.035 105.032 237.17C104.485 237.306 104.303 238.077 104.349 238.936C104.396 239.665 104.667 240.436 105.391 240.389L120.032 239.301L119.49 246.327C119.308 247.233 120.214 247.686 121.167 247.686C122.167 247.686 123.162 247.327 123.344 246.733L124.021 237.259ZM102.855 254.894C102.131 254.941 101.902 255.712 102.037 256.436C102.084 257.16 102.49 257.884 103.172 257.842C105.98 257.66 110.698 257.389 115.23 257.025C119.896 256.618 124.521 256.165 127.334 255.436C127.875 255.394 128.105 254.577 128.105 253.717C128.058 252.946 127.787 252.176 127.24 252.176C125.745 252.4 123.48 252.764 120.896 253.129C118.402 253.488 115.547 253.759 112.917 253.941L113.053 248.275C112.829 247.686 111.964 247.504 111.152 247.551C110.334 247.686 109.563 248.004 109.563 248.368L108.974 254.259L102.855 254.894ZM114.865 269.67C113.235 269.764 111.875 269.764 110.74 269.629C109.652 269.493 109.063 268.946 109.063 267.905C108.928 265.957 110.063 264.91 113.777 264.733C117.902 264.368 120.308 265.41 120.443 267.045C120.443 269.082 118.631 269.446 114.865 269.67ZM105.303 268.176C105.303 270.488 106.573 271.624 108.428 272.301C110.152 272.889 112.511 272.983 114.777 272.801C117.542 272.618 119.943 272.301 121.532 271.394C123.073 270.535 124.021 269.176 124.021 266.952C123.886 264.821 122.527 263.415 120.625 262.509C118.584 261.65 116.089 261.379 113.688 261.556C108.61 261.785 105.12 263.78 105.303 268.176Z" fill="black"/>
<path d="M136.129 268.174C136.129 270.486 137.4 271.622 139.254 272.299C140.978 272.888 143.337 272.981 145.603 272.799C148.368 272.617 150.769 272.299 152.358 271.393C153.9 270.533 154.848 269.174 154.848 266.95C154.712 264.82 153.353 263.414 151.452 262.507C149.41 261.648 146.915 261.377 144.514 261.554C139.436 261.783 135.946 263.778 136.129 268.174ZM154.259 236.216C150.499 235.856 138.17 236.804 135.946 238.71C135.358 239.299 135.311 241.023 135.493 242.835C135.676 244.695 135.946 246.554 135.946 247.643C135.993 249.32 136.311 249.726 137.988 249.591C140.207 249.455 143.29 249.32 146.509 249.002C149.634 248.773 152.853 248.367 155.301 247.82C155.936 247.643 156.301 246.96 156.301 246.278C156.301 245.554 155.983 244.966 155.394 244.966L151.493 245.466C149.863 245.69 148.186 245.872 146.556 246.054C143.155 246.419 140.207 246.596 139.889 246.236C139.665 246.054 139.301 244.966 139.077 243.83C138.894 242.7 138.801 241.565 139.212 241.247C139.618 240.841 142.384 240.341 145.556 239.981C148.639 239.617 152.176 239.346 154.17 239.481C154.577 239.481 154.806 238.71 154.806 237.94C154.806 237.169 154.67 236.398 154.259 236.216ZM143.066 254.981C140.66 255.346 138.712 255.434 137.259 255.575C135.723 255.617 134.634 255.71 133.905 255.71C132.368 255.934 132.728 259.106 133.905 258.882C134.905 258.882 136.806 258.794 138.983 258.611L146.374 257.976C148.957 257.794 151.452 257.523 153.535 257.205C155.754 256.976 157.254 256.705 158.16 256.388C158.837 256.252 159.108 255.481 159.108 254.757C159.108 253.986 158.749 253.351 158.066 253.398C155.848 253.757 153.941 254.075 152.223 254.257C150.452 254.486 148.728 254.622 147.009 254.622L146.733 250.45C146.691 250.044 145.785 249.861 144.879 249.997C143.973 250.044 143.155 250.403 143.155 250.815L143.066 254.981ZM145.691 269.669C144.061 269.763 142.702 269.763 141.566 269.627C140.478 269.492 139.889 268.945 139.889 267.903C139.754 265.955 140.889 264.908 144.603 264.731C148.728 264.367 151.134 265.408 151.269 267.044C151.269 269.08 149.457 269.445 145.691 269.669Z" fill="black"/>
<path d="M186.031 240.658C185.895 239.528 185.213 239.028 183.536 239.21L180.635 239.393L175.603 239.752L170.484 240.158C168.895 240.299 167.765 240.434 167.13 240.57C166.583 240.705 166.359 241.523 166.447 242.382C166.447 243.153 166.718 243.971 167.4 243.924L181.676 242.835L180.77 252.309C180.593 253.263 181.406 253.716 182.359 253.757C183.359 253.757 184.353 253.445 184.536 252.763L186.031 240.658ZM189.614 261.466C190.202 261.419 190.385 260.559 190.385 259.7C190.338 258.835 190.109 258.065 189.52 258.247C186.713 258.929 181.994 259.424 177.281 259.924C172.567 260.424 167.807 260.742 164.817 260.924C164.135 261.059 163.817 261.783 163.864 262.643C163.911 263.414 164.317 264.143 164.906 264.096L176.603 263.549C176.468 267.044 176.557 268.58 176.692 269.851C176.874 270.575 177.734 270.851 178.64 270.804C179.546 270.757 180.317 270.304 180.317 269.58C180.14 268.539 179.999 265.82 180.14 262.96L189.614 261.466Z" fill="black"/>
<path d="M194.557 242.701C194.24 243.201 194.057 244.561 194.016 246.373C193.969 247.279 193.969 248.274 193.969 249.363V252.717L194.151 259.108C194.193 259.972 194.193 260.743 194.193 261.378V262.602C194.24 263.644 195.057 264.368 196.87 264.368L204.62 263.326C206.073 262.78 206.885 262.238 207.021 260.561V257.024C206.979 255.212 206.932 252.899 206.797 250.587C206.526 246.009 206.115 241.701 205.62 241.071C205.073 240.753 202.578 240.753 200.13 241.071C197.682 241.384 195.193 241.977 194.557 242.701ZM222.297 260.832L222.12 252.175C221.938 248.957 221.844 245.738 221.802 243.061C221.755 240.477 221.62 238.441 221.62 237.712C221.62 236.988 220.667 236.717 219.76 236.717C218.807 236.67 217.854 236.899 217.854 237.259L218.13 250.045L214.276 250.905L214.188 238.076C214.188 237.712 213.234 237.576 212.281 237.759C211.328 237.941 210.422 238.394 210.422 239.118C210.375 239.394 210.333 239.983 210.333 240.842V243.972C210.375 246.462 210.516 249.592 210.651 252.811C210.828 256.071 210.969 259.201 211.193 261.873C211.422 264.457 211.646 266.498 211.964 267.222C211.964 267.722 212.87 267.993 213.823 267.951C214.729 267.951 215.635 267.675 215.635 267.134L214.458 253.941L218.313 253.035L218.807 265.368C218.807 265.681 219.578 265.821 220.484 265.774C221.302 265.727 222.255 265.503 222.297 265.003V260.832ZM197.958 245.149C198.318 245.014 199.318 244.696 200.271 244.467C201.219 244.149 202.083 244.061 202.307 244.285C202.443 244.467 202.578 245.509 202.719 246.962C202.896 248.457 203.031 250.363 203.214 252.222L203.307 254.941C203.349 255.847 203.349 256.66 203.349 257.389V259.108C203.349 259.561 203.307 259.79 203.26 259.837C202.854 260.061 201.99 260.332 201.042 260.514C200.042 260.696 199.135 260.832 198.818 260.832C198.229 260.967 197.911 260.425 197.865 260.108C197.823 259.019 197.682 255.618 197.682 252.358C197.682 249.092 197.729 245.92 197.958 245.149Z" fill="black"/>
<path d="M227.051 268.086C227.051 268.446 226.686 268.81 226.327 269.175L225.285 270.123C224.785 270.534 224.921 271.347 225.327 271.941C225.738 272.618 226.415 272.982 227.322 272.435C229.41 271.029 230.358 267.498 229.723 264.909C229.587 263.279 227.91 262.373 226.733 262.42C225.192 262.555 224.15 263.691 224.285 265.862C224.285 267.269 225.556 268.628 227.051 268.086Z" fill="black"/>
<path d="M247.947 239.571C244.551 239.8 242.733 240.659 241.645 241.977C240.514 243.289 240.332 245.331 240.514 247.914C240.561 250.768 241.15 253.17 242.509 254.758C243.869 256.388 245.91 257.253 249.264 257.024C255.29 256.659 256.697 251.904 256.426 246.732C256.29 243.972 255.837 242.154 254.52 240.93C253.254 239.847 251.124 239.393 247.947 239.571ZM264.811 236.399C264.582 236.034 263.634 235.857 262.77 236.034C261.863 236.216 261.092 236.67 261.228 237.534C261.41 238.623 261.639 242.154 261.816 245.961C261.999 249.815 262.181 254.076 262.046 256.753C262.046 257.659 262.863 258.065 263.634 258.112C264.54 258.248 265.353 257.977 265.535 257.388C265.582 256.888 265.671 255.482 265.671 253.67C265.717 251.722 265.629 249.456 265.582 247.097C265.535 244.737 265.447 242.43 265.311 240.477C265.176 238.482 265.035 237.081 264.811 236.399ZM265.4 266.951C264.764 267.086 263.723 267.222 262.134 267.357L257.238 267.768C255.608 267.904 254.066 268.039 252.754 268.086C251.436 268.128 250.806 268.128 250.759 268.086C250.306 267.722 250.035 266.815 249.988 265.909C249.941 265.503 249.9 265.091 249.9 264.685V263.826C249.9 263.508 248.988 263.414 248.04 263.55C247.134 263.69 246.181 264.05 246.134 264.638C246.087 265.545 246.181 267.045 246.363 268.446C246.587 269.852 246.905 271.123 247.452 271.44C247.629 271.482 248.764 271.482 250.306 271.44C253.566 271.305 258.556 271.029 261.999 270.67C263.77 270.487 265.082 270.258 265.629 270.034C265.988 269.852 266.124 269.034 266.082 268.31C265.9 267.586 265.717 266.951 265.4 266.951ZM244.092 248.003C243.957 246.055 244.092 244.966 244.639 244.284C245.228 243.56 246.316 243.378 248.129 243.201C249.9 243.154 251.03 243.018 251.712 243.518C252.436 243.925 252.707 244.966 252.754 247.008C252.936 251.404 252.389 252.992 249.353 253.216C245.634 253.716 244.139 251.81 244.092 248.003Z" fill="black"/>
<path d="M278.958 235.581C276.01 235.811 274.244 236.717 273.156 238.123C272.203 239.529 271.843 241.43 271.979 243.654C272.203 248.41 275.104 250.951 280.588 250.451C283.218 250.269 284.895 249.41 285.895 248.003C286.843 246.555 287.119 244.696 287.073 242.519C286.89 237.67 284.218 235.222 278.958 235.581ZM294.281 248.41C293.416 248.727 292.333 248.956 291.151 249.003C289.974 249.045 289.067 249.003 288.432 248.956C287.932 249.003 287.661 249.816 287.661 250.587C287.661 251.451 287.89 252.222 288.432 252.222C290.203 252.535 292.333 252.493 294.552 251.811C294.599 254.576 294.687 256.753 294.823 257.477C295.005 257.795 295.911 257.842 296.682 257.66C297.588 257.477 298.312 257.071 298.312 256.206L298.088 252.222L297.859 246.373L297.724 240.753C297.682 239.029 297.724 237.941 297.77 237.441C297.817 236.764 297.088 236.488 296.276 236.535C295.369 236.581 294.463 236.899 294.416 237.441L294.281 248.41ZM296.229 266.951C295.593 267.087 294.552 267.222 292.963 267.358L288.067 267.769C286.437 267.904 284.895 268.04 283.583 268.087C282.265 268.128 281.635 268.128 281.588 268.087C281.135 267.722 280.864 266.816 280.817 265.91C280.77 265.503 280.729 265.092 280.729 264.686V263.826C280.729 263.509 279.817 263.415 278.869 263.55C277.963 263.691 277.01 264.05 276.963 264.639C276.916 265.545 277.01 267.045 277.192 268.446C277.416 269.852 277.734 271.123 278.281 271.441C278.458 271.483 279.593 271.483 281.135 271.441C284.395 271.305 289.385 271.029 292.828 270.67C294.599 270.488 295.911 270.259 296.458 270.035C296.817 269.852 296.953 269.035 296.911 268.311C296.729 267.587 296.546 266.951 296.229 266.951ZM287.255 256.389C287.796 256.206 287.708 255.529 287.526 254.805C287.255 254.123 286.802 253.488 286.619 253.488C285.619 253.852 282.63 254.076 279.505 254.394C276.286 254.623 272.932 254.805 271.255 254.805C271.026 254.805 270.843 255.665 270.89 256.524C270.979 257.43 271.296 258.248 271.885 258.248C272.974 258.384 274.651 258.295 276.145 258.16C277.645 258.113 279.093 257.977 279.911 257.842L280.093 262.055C280.135 262.555 281.182 262.691 282.13 262.555C283.036 262.509 283.989 262.191 283.765 261.696L283.218 257.477L287.255 256.389ZM275.38 243.472C275.239 240.389 275.921 239.347 279.046 239.029C280.411 238.983 281.406 239.165 282.224 239.571C283.036 239.983 283.489 241.071 283.583 242.748C283.583 244.561 283.448 245.602 283.036 246.191C282.494 246.733 281.859 246.962 280.588 247.009C279.229 247.186 277.963 247.05 276.963 246.597C275.968 246.102 275.421 245.055 275.38 243.472Z" fill="black"/>
<path d="M308.054 243.107C308.283 243.018 309.054 242.883 310.367 242.701C311.726 242.471 313.132 242.294 314.674 242.112C316.262 241.883 317.664 241.748 318.934 241.659C320.205 241.524 320.929 241.524 321.065 241.612C321.247 241.977 321.476 243.831 321.611 245.649C321.835 247.461 321.882 249.32 321.653 249.498C321.294 249.727 318.481 250.044 315.627 250.362C312.815 250.721 310.049 250.998 309.778 250.998C309.278 250.998 309.007 250.544 309.007 250.227C308.96 249.138 308.554 247.685 308.236 246.419C308.012 245.013 307.736 243.831 308.054 243.107ZM303.976 240.57C303.252 241.477 303.523 244.107 303.929 246.69C304.382 249.274 304.976 251.904 304.929 252.675C304.976 253.758 305.924 254.623 307.783 254.623L323.106 253.034C324.554 252.445 325.46 251.992 325.46 250.315C325.507 249.456 325.554 246.732 325.419 244.06C325.19 241.383 324.919 238.846 324.377 238.346C324.012 238.169 322.7 238.123 320.882 238.169C318.981 238.211 316.58 238.393 314.174 238.623C311.773 238.846 309.372 239.117 307.466 239.482C305.653 239.846 304.247 240.206 303.976 240.57ZM303.705 264.638C303.117 264.685 302.887 265.503 302.981 266.362C303.117 267.221 303.434 267.951 303.976 267.904C306.424 267.904 311.231 267.721 316.08 267.221C320.841 266.815 325.825 266.227 328.679 265.68C329.226 265.638 329.544 264.685 329.544 263.779C329.544 262.919 329.315 262.055 328.773 262.237C327.867 262.466 326.278 262.69 324.377 262.873C322.424 263.096 319.976 263.373 317.528 263.732L317.351 259.742C317.304 259.154 316.351 259.018 315.398 259.065C314.492 259.201 313.632 259.56 313.679 259.925V264.185L303.705 264.638Z" fill="black"/>
<path d="M358.009 266.499C358.009 265.546 358.009 264.504 357.962 263.415C357.962 261.197 357.874 259.108 357.691 258.431C357.556 258.296 356.785 258.342 355.879 258.384C355.108 258.52 354.249 258.702 354.249 259.066L354.431 262.056L343.322 262.874L343.004 260.29C342.962 259.79 342.098 259.743 341.191 259.926C340.238 260.108 339.332 260.514 339.332 260.926L340.603 271.171C340.603 271.712 340.738 271.895 341.285 271.895C342.78 271.759 345.999 271.665 349.171 271.483C352.301 271.306 355.29 271.077 356.468 270.671C357.962 270.306 358.056 269.447 358.009 268.54V266.499ZM342.056 240.889C342.598 240.889 343.504 240.796 344.593 240.754C345.681 240.613 346.811 240.572 347.723 240.389C348.264 240.342 348.353 239.53 348.311 238.665C348.264 237.895 347.994 237.082 347.447 237.082C345.228 237.4 342.462 237.577 339.832 237.759C337.113 237.941 334.53 238.124 332.988 238.171C332.218 238.212 331.947 239.03 331.947 239.889C331.9 240.754 332.171 241.525 332.806 241.525L338.249 241.16V247.462L331.9 251.176C331.676 251.723 331.947 252.4 332.441 252.947C332.9 253.535 333.53 253.9 333.941 253.671L340.421 250.816L347.358 253.488C347.676 253.806 348.129 253.171 348.447 252.4C348.764 251.676 348.941 250.723 348.629 250.363L342.056 247.098V240.889ZM357.509 235.176C357.374 234.634 356.426 234.358 355.473 234.54C354.52 234.723 353.613 235.223 353.837 236.129C354.02 237.353 354.202 240.389 354.337 243.832C354.473 247.28 354.473 250.905 354.431 253.217C354.431 253.988 355.244 254.395 356.108 254.441C356.921 254.488 357.785 254.259 357.921 253.671L358.191 252.4L358.327 250.316C358.462 247.009 358.327 242.113 357.962 238.801C357.921 237.035 357.691 235.764 357.509 235.176ZM354.337 268.087L343.957 268.723L343.504 265.863L354.337 265.275V268.087Z" fill="black"/>
<path d="M367.482 248.685C367.347 245.237 368.206 243.336 371.425 243.018C374.419 242.836 376.05 244.148 376.232 247.732C376.232 249.68 376.185 250.815 375.779 251.492C375.367 252.174 374.597 252.357 373.284 252.398C370.065 252.898 367.529 251.992 367.482 248.685ZM371.242 239.393C368.07 239.617 366.305 240.841 365.169 242.471C364.628 243.336 364.216 244.284 364.081 245.331C363.899 246.372 363.857 247.461 363.899 248.591C364.081 253.852 367.3 256.523 373.195 256.029C375.956 255.893 377.68 254.846 378.768 253.352C379.675 251.857 379.992 249.773 379.945 247.461C379.722 242.43 376.956 239.029 371.242 239.393ZM387.107 266.409C387.154 266.768 388.018 266.904 388.966 266.727C389.873 266.544 390.737 266.133 390.737 265.367C390.69 264.638 390.602 262.826 390.555 260.513C390.461 258.159 390.326 255.299 390.284 252.398C390.237 249.544 390.149 246.643 390.149 244.284C390.149 241.883 390.19 240.023 390.326 239.117C390.284 238.44 389.513 237.987 388.695 237.94C387.789 237.893 386.93 238.211 386.748 238.799C386.565 239.393 386.518 241.383 386.518 243.971C386.518 246.555 386.565 249.773 386.612 252.992L386.794 261.872C386.93 264.367 386.93 266.091 387.107 266.409ZM382.623 261.872C380.492 262.419 376.774 262.872 373.055 263.232C369.43 263.596 365.623 263.732 363.628 263.549C362.951 263.549 362.992 266.862 363.992 266.862C365.852 266.904 369.748 266.768 373.555 266.451C377.456 266.227 381.169 265.773 382.623 265.409C382.982 265.409 383.211 264.503 383.211 263.596C383.211 262.737 382.982 261.872 382.623 261.872Z" fill="black"/>
<path d="M419.656 264.185C419.609 263.596 419.609 262.961 419.609 262.284V260.331C419.609 259.107 419.656 257.977 419.656 257.206C419.474 256.523 418.526 256.3 417.708 256.346C416.849 256.346 416.031 256.706 416.031 257.117L415.713 264.732L412.13 265.003L411.182 258.794C411.135 257.93 410.276 257.794 409.364 257.977C408.505 258.112 407.687 258.565 407.687 258.794L408.417 265.091L403.609 265.367C402.838 265.409 402.568 266.227 402.614 267.086C402.75 267.857 403.109 268.675 403.838 268.628C406.604 268.445 411.542 268.268 416.484 267.904C419.021 267.721 421.38 267.497 423.646 267.268C425.958 267.044 427.859 266.768 429.224 266.409C429.812 266.362 430.036 265.456 430.036 264.55C430.036 263.643 429.812 262.872 429.224 263.055L419.656 264.185ZM426.547 240.659C426.411 239.529 425.729 239.164 424.052 239.211L420.974 239.435L415.713 239.8C413.766 239.935 411.995 240.07 410.229 240.253C408.552 240.388 407.375 240.523 406.739 240.659C406.193 240.794 405.969 241.612 406.057 242.471C406.057 243.242 406.328 244.06 407.01 244.013L422.198 242.836L421.286 252.492C421.109 253.534 422.016 253.94 423.01 253.987C423.963 253.987 424.958 253.622 425.099 253.034L426.547 240.659Z" fill="black"/>
<path d="M437.107 253.306C437.107 255.165 437.831 255.754 439.961 255.618L447.529 255.077C450.883 254.759 454.419 254.441 455.826 254.077C456.414 253.941 456.69 253.17 456.69 252.446C456.69 251.769 456.372 251.087 455.826 251.087C453.966 251.269 450.477 251.722 447.258 252.04C444.133 252.264 441.367 252.535 441.003 252.176L440.732 251.629C440.596 251.358 440.549 251.087 440.549 250.769C440.503 250.228 440.596 249.634 441.138 249.41C441.456 249.228 442.409 249.045 443.951 248.91L448.846 248.368L453.56 247.686C455.008 247.415 455.919 247.097 456.19 246.733C456.69 246.327 456.826 243.832 456.69 241.478C456.69 239.118 456.326 236.806 455.826 236.582C454.695 236.353 450.477 236.4 446.398 236.629C444.315 236.764 442.18 236.9 440.549 237.082C438.826 237.217 437.602 237.4 437.195 237.535C436.654 237.853 436.424 238.624 436.471 239.347C436.471 240.071 436.742 240.707 437.195 240.66C437.378 240.66 438.419 240.613 439.872 240.436L444.992 240.025C446.898 239.847 448.753 239.754 450.117 239.707C451.477 239.707 452.518 239.754 452.701 239.936C452.836 240.118 453.018 241.16 453.154 242.249C453.195 243.29 453.242 244.426 452.701 244.65C452.336 244.879 451.383 245.103 449.888 245.285L444.945 245.785C443.227 245.962 441.638 246.191 440.096 246.42C438.602 246.644 437.695 246.915 437.378 247.28C436.742 248.868 436.742 251.54 437.107 253.306ZM460.451 258.342C459.544 258.655 457.956 258.972 455.872 259.29C453.742 259.608 451.477 259.879 448.982 260.196C446.534 260.514 444.133 260.785 441.727 261.014C439.326 261.243 437.378 261.379 435.924 261.467C435.154 261.514 434.93 262.327 434.93 263.097C434.977 263.827 435.247 264.597 435.836 264.551L441.727 264.457V270.759C441.727 271.17 442.456 271.306 443.362 271.259C444.268 271.124 445.039 270.806 445.221 270.217V264.186L450.659 263.327C450.523 265.728 450.747 267.905 451.294 270.4C451.294 271.077 452.201 271.212 453.06 271.077C454.013 271.077 454.872 270.67 454.872 270.124C454.331 267.816 454.195 265.457 454.148 262.874L460.451 261.556C461.539 261.467 461.539 258.295 460.451 258.342Z" fill="black"/>
<path d="M468.291 248.957C468.927 250.452 469.515 250.999 471.557 250.816C472.463 250.816 475.593 250.634 478.854 250.27C482.072 249.952 485.474 249.546 486.833 249.046C487.421 248.91 487.739 248.233 487.739 247.504C487.651 246.78 487.333 246.145 486.744 246.145C485.02 246.462 481.531 246.827 478.494 247.186C475.317 247.504 472.645 247.686 472.234 247.462C471.875 247.327 471.604 246.827 471.557 246.28C471.421 245.691 471.604 245.103 472.145 244.785C472.51 244.603 473.416 244.426 474.911 244.285L479.718 243.743L484.52 243.202C486.015 243.02 486.968 242.79 487.286 242.52C487.828 242.113 487.968 240.16 487.921 238.306C487.786 236.488 487.375 234.676 486.651 234.358C486.062 234.223 484.75 234.223 483.072 234.223C481.302 234.27 479.218 234.405 477.177 234.587L471.468 235.087C469.791 235.223 468.609 235.358 468.385 235.405C467.796 235.723 467.567 236.535 467.614 237.306C467.796 238.077 468.067 238.759 468.744 238.712C469.88 238.53 473.234 238.077 476.5 237.712C478.13 237.577 479.625 237.441 480.942 237.4C482.302 237.353 483.114 237.4 483.343 237.535C483.703 237.712 484.067 238.306 484.114 238.895C484.296 239.395 484.203 240.025 483.614 240.207C483.25 240.436 482.302 240.66 480.802 240.796C479.265 240.931 477.677 241.113 475.953 241.249C474.229 241.431 472.645 241.613 471.104 241.837C469.651 242.066 468.744 242.296 468.474 242.608C468.067 243.29 467.885 244.332 467.885 245.556C467.885 246.78 467.974 248.004 468.291 248.957ZM470.244 272.254C470.833 273.525 471.604 273.796 472.734 273.66C473.505 273.66 476.588 273.389 479.671 273.165C482.708 272.936 485.88 272.618 486.833 272.436C487.375 272.118 487.604 271.348 487.604 270.624C487.557 269.9 487.333 269.311 486.833 269.311L474.187 270.941C473.687 270.624 473.281 270.259 473.052 269.764C472.828 269.264 473.005 268.947 473.687 268.811C473.822 268.764 474.546 268.629 475.953 268.493C477.312 268.358 478.765 268.176 480.395 267.952C482.026 267.723 483.479 267.499 484.838 267.223C486.197 266.999 487.015 266.681 487.197 266.316C487.604 265.41 487.604 263.962 487.375 262.691C487.057 261.285 486.651 260.197 486.244 259.837C486.151 259.79 485.88 259.79 485.474 259.79H483.843C482.526 259.837 480.802 259.926 479.083 260.061C477.27 260.243 475.411 260.332 474.052 260.514L471.057 260.832C470.333 260.832 470.062 261.603 470.062 262.374C470.062 263.145 470.38 263.868 470.786 263.827L483.432 262.603L483.526 262.874L483.661 263.509C483.703 263.915 483.843 264.504 483.526 264.733C483.479 264.868 482.708 264.91 481.395 265.051C480.125 265.228 478.536 265.322 476.817 265.546C475.14 265.728 473.322 265.957 471.963 266.181C470.651 266.41 469.562 266.728 469.244 266.952C468.609 267.358 468.703 268.358 469.062 269.447C469.427 270.535 469.88 271.665 470.244 272.254ZM489.645 251.629C487.375 252.223 482.619 252.853 477.901 253.4C475.546 253.671 473.281 253.9 471.057 254.077C468.927 254.259 467.25 254.395 466.072 254.441C465.349 254.488 464.937 255.301 465.072 256.072C465.119 256.842 465.619 257.613 466.343 257.572C467.52 257.572 469.291 257.478 471.557 257.296C473.822 257.072 476.182 256.842 478.583 256.572C480.984 256.254 483.25 255.983 485.38 255.665C487.468 255.348 488.963 255.077 489.822 254.806C490.416 254.671 490.729 253.806 490.729 253.035C490.729 252.176 490.416 251.493 489.645 251.629Z" fill="black"/>
<path d="M511.216 235.581C508.268 235.811 506.502 236.717 505.414 238.123C504.461 239.529 504.101 241.43 504.237 243.654C504.461 248.41 507.362 250.951 512.846 250.451C515.476 250.269 517.153 249.41 518.153 248.003C519.101 246.555 519.377 244.696 519.33 242.519C519.148 237.67 516.476 235.222 511.216 235.581ZM526.539 248.41C525.674 248.727 524.591 248.956 523.408 249.003C522.231 249.045 521.325 249.003 520.69 248.956C520.19 249.003 519.919 249.816 519.919 250.587C519.919 251.451 520.148 252.222 520.69 252.222C522.461 252.535 524.591 252.493 526.809 251.811C526.856 254.576 526.945 256.753 527.08 257.477C527.263 257.795 528.169 257.842 528.94 257.66C529.846 257.477 530.57 257.071 530.57 256.206L530.346 252.222L530.117 246.373L529.981 240.753C529.94 239.029 529.981 237.941 530.028 237.441C530.075 236.764 529.346 236.488 528.533 236.535C527.627 236.581 526.721 236.899 526.674 237.441L526.539 248.41ZM528.487 266.951C527.851 267.087 526.809 267.222 525.221 267.358L520.325 267.769C518.695 267.904 517.153 268.04 515.841 268.087C514.523 268.128 513.893 268.128 513.846 268.087C513.393 267.722 513.122 266.816 513.075 265.91C513.028 265.503 512.987 265.092 512.987 264.686V263.826C512.987 263.509 512.075 263.415 511.127 263.55C510.221 263.691 509.268 264.05 509.221 264.639C509.174 265.545 509.268 267.045 509.45 268.446C509.674 269.852 509.992 271.123 510.539 271.441C510.716 271.483 511.851 271.483 513.393 271.441C516.653 271.305 521.643 271.029 525.086 270.67C526.856 270.488 528.169 270.259 528.716 270.035C529.075 269.852 529.211 269.035 529.169 268.311C528.987 267.587 528.804 266.951 528.487 266.951ZM519.513 256.389C520.054 256.206 519.966 255.529 519.783 254.805C519.513 254.123 519.059 253.488 518.877 253.488C517.877 253.852 514.888 254.076 511.763 254.394C508.544 254.623 505.19 254.805 503.513 254.805C503.283 254.805 503.101 255.665 503.148 256.524C503.237 257.43 503.554 258.248 504.143 258.248C505.231 258.384 506.908 258.295 508.403 258.16C509.903 258.113 511.351 257.977 512.169 257.842L512.351 262.055C512.393 262.555 513.44 262.691 514.388 262.555C515.294 262.509 516.247 262.191 516.023 261.696L515.476 257.477L519.513 256.389ZM507.638 243.472C507.497 240.389 508.179 239.347 511.304 239.029C512.669 238.983 513.664 239.165 514.481 239.571C515.294 239.983 515.747 241.071 515.841 242.748C515.841 244.561 515.705 245.602 515.294 246.191C514.752 246.733 514.117 246.962 512.846 247.009C511.487 247.186 510.221 247.05 509.221 246.597C508.226 246.102 507.679 245.055 507.638 243.472Z" fill="black"/>
<path d="M542.81 244.878C539.773 245.055 537.914 246.237 536.737 247.867C535.602 249.498 535.242 251.675 535.378 253.852C535.555 258.565 538.638 259.607 544.169 259.248C548.523 259.065 550.289 256.206 550.242 251.992C550.107 249.633 549.789 247.779 548.659 246.508C547.523 245.237 545.758 244.696 542.81 244.878ZM557.18 236.31C556.815 235.763 555.867 235.675 554.961 235.857C554.19 236.034 553.372 236.581 553.555 237.352C553.643 237.893 553.779 239.029 553.961 240.753L554.549 246.373C554.732 248.409 554.867 250.451 555.003 252.446C555.138 254.44 555.32 255.982 555.367 257.117C555.138 257.977 555.867 258.248 556.68 258.248C557.451 258.248 558.315 257.977 558.633 257.295C558.904 255.711 558.721 251.904 558.721 249.138L562.44 248.503C562.846 248.367 562.982 247.461 562.982 246.732C562.664 246.008 562.258 245.373 561.846 245.42L558.357 246.055C558.174 244.649 557.997 242.472 557.768 240.477C557.544 238.482 557.362 236.716 557.18 236.31ZM559.31 266.951C558.674 267.086 557.633 267.222 556.044 267.357L551.148 267.768C549.518 267.904 547.977 268.039 546.664 268.086C545.346 268.128 544.716 268.128 544.669 268.086C544.216 267.722 543.945 266.815 543.898 265.909C543.852 265.503 543.81 265.091 543.81 264.685V263.826C543.81 263.508 542.898 263.414 541.951 263.55C541.044 263.69 540.091 264.05 540.044 264.638C539.997 265.545 540.091 267.045 540.273 268.446C540.497 269.852 540.815 271.123 541.362 271.44C541.539 271.482 542.674 271.482 544.216 271.44C547.477 271.305 552.466 271.029 555.909 270.67C557.68 270.487 558.992 270.258 559.539 270.034C559.898 269.852 560.034 269.034 559.992 268.31C559.81 267.586 559.628 266.951 559.31 266.951ZM544.263 239.664C544.305 237.711 544.263 236.67 543.898 234.81C543.581 233.862 542.674 233.545 541.539 233.727C540.633 233.862 540.273 234.768 540.409 234.992C540.451 235.857 540.633 236.534 540.68 237.399C540.815 238.17 540.815 238.935 540.68 239.847C538.867 240.024 536.919 240.117 535.06 240.117C533.971 240.117 533.836 241.112 533.836 241.883C533.836 242.748 533.971 243.472 535.284 243.654C537.096 243.654 539.997 243.518 542.674 243.336C545.346 243.107 547.888 242.883 549.159 242.518C550.107 242.295 550.378 241.295 550.336 240.206C550.201 239.435 549.201 239.117 548.977 239.117L544.263 239.664ZM538.638 253.305C538.461 250.086 539.956 248.591 542.898 248.409C544.352 248.367 545.393 248.55 545.94 249.003C546.435 249.409 546.753 250.498 546.846 252.175C546.753 253.581 546.57 254.487 546.253 254.982C545.982 255.482 545.258 255.8 544.169 256.029C543.081 256.206 541.721 256.347 540.591 255.982C539.456 255.664 538.638 254.893 538.638 253.305Z" fill="black"/>
<path d="M577.759 241.978C576.446 241.795 573.498 241.795 570.686 242.113C567.92 242.337 565.337 242.748 564.977 243.29C564.701 243.655 564.66 244.879 564.701 246.462C564.748 248.05 564.977 250.134 565.16 252.129C565.654 256.207 566.066 260.379 566.201 261.467C566.378 263.144 566.837 263.691 568.42 263.509C570.644 263.373 572.227 263.415 573.769 263.233C575.264 263.097 576.852 262.873 579.165 262.149C579.842 261.967 580.207 261.103 580.253 260.332C580.253 259.561 579.889 258.837 579.347 258.884C577.441 259.29 575.222 259.655 573.498 259.837C571.727 260.019 570.326 260.061 569.962 259.701C569.779 259.655 569.644 258.837 569.42 257.571C569.238 256.3 569.055 254.712 568.92 253.129C568.738 251.54 568.649 249.91 568.602 248.639V247.144C568.602 246.733 568.649 246.509 568.738 246.42C569.144 245.92 570.868 245.691 572.68 245.649C574.587 245.509 576.488 245.556 577.759 245.509C578.529 245.509 578.847 244.738 578.847 243.879C578.847 243.019 578.529 242.155 577.759 241.978ZM587.733 237.259C587.415 236.717 586.462 236.582 585.555 236.764C584.602 236.946 583.832 237.353 583.967 238.076L584.332 242.925C584.514 245.332 584.649 248.457 584.832 251.587C585.014 254.806 585.149 257.931 585.191 260.649C585.238 263.373 585.285 265.545 585.238 266.681C585.238 267.54 585.962 267.905 586.868 267.905C587.686 267.905 588.592 267.498 588.91 266.769L588.821 252.582L593.035 251.811C593.399 251.811 593.535 251.587 593.582 251.269C593.623 251.134 593.623 250.951 593.623 250.769V250.228C593.488 249.457 593.035 248.728 592.67 248.774L588.545 249.41C588.274 247.733 588.139 245.014 588.003 242.519L587.733 237.259Z" fill="black"/>
<path d="M599.107 239.118C597.476 239.3 596.388 239.529 596.159 241.701C595.982 242.748 596.07 245.555 596.252 248.456C596.435 251.404 596.659 254.394 597.023 255.529C597.023 257.024 597.565 257.253 598.836 257.118C599.831 257.118 601.961 256.936 604.002 256.706C605.997 256.482 608.039 256.253 608.987 255.894C610.075 255.665 610.305 254.712 610.258 253.852V252.899L610.346 253.217C610.487 253.535 610.622 253.67 610.805 253.67C611.529 253.805 613.112 253.67 614.7 253.488C616.195 253.305 617.872 252.993 619.055 252.764L619.367 258.519C619.549 259.066 620.502 259.248 621.409 259.066C622.362 258.883 623.221 258.477 623.221 257.571C623.18 256.66 623.133 254.894 622.997 252.852C622.95 250.816 622.815 248.368 622.586 246.008C622.45 243.654 622.268 241.295 622.133 239.436C621.956 237.623 621.815 236.217 621.68 235.675C621.497 234.993 620.638 234.811 619.685 234.811C618.779 234.857 617.872 235.128 617.872 235.675L618.284 241.071C617.331 241.43 615.836 241.66 614.336 241.795C612.794 241.93 611.435 241.977 610.711 241.977C610.529 242.019 610.393 242.201 610.346 242.566L610.258 242.925C610.258 242.566 610.258 242.201 610.211 241.883C610.075 240.477 609.851 239.394 609.581 238.982C609.081 238.623 606.768 238.576 604.367 238.712C601.961 238.847 599.648 239.076 599.107 239.118ZM621.862 266.863C621.226 267.045 619.961 267.18 618.461 267.316L613.206 267.722C611.482 267.904 609.758 267.993 608.445 268.04C607.133 268.175 606.315 268.128 606.315 268.087C605.862 267.722 605.591 266.816 605.544 265.91C605.497 265.503 605.456 265.092 605.456 264.686V263.826C605.456 263.508 604.544 263.415 603.596 263.55C602.69 263.691 601.737 264.05 601.69 264.639C601.643 265.545 601.737 267.045 601.919 268.446C602.143 269.852 602.461 271.123 603.008 271.441C603.185 271.482 604.367 271.482 605.997 271.441C607.721 271.394 609.893 271.258 612.07 271.076C614.294 271.029 616.513 270.805 618.372 270.623C620.185 270.399 621.544 270.17 622.133 269.946C622.497 269.764 622.586 268.993 622.544 268.269C622.409 267.498 622.18 266.863 621.862 266.863ZM601.055 242.337C601.466 242.337 602.549 242.201 603.685 242.154C604.82 242.113 605.909 242.113 606.315 242.337C606.721 242.654 606.904 245.238 606.904 247.915C606.857 250.587 606.586 253.128 606.18 253.305L600.872 254.17L600.195 253.217L599.742 243.472C599.695 242.925 599.877 242.748 600.195 242.566C600.466 242.43 600.872 242.383 601.055 242.337ZM619.055 249.498C617.784 249.998 616.013 250.18 614.336 250.316C612.659 250.498 611.164 250.545 610.44 250.545L610.346 250.633V246.826C610.346 245.962 610.346 245.149 610.305 244.285V244.014L610.487 244.785C610.575 245.102 610.711 245.238 610.893 245.238C612.617 245.738 615.654 245.196 618.643 244.467L619.055 249.498Z" fill="black"/>
</svg>
